<svg width="416" height="341" viewBox="0 0 416 341" fill="none" xmlns="http://www.w3.org/2000/svg">
<g clip-path="url(#clip0)">
<path d="M95.3703 68.9501L97.1412 215.076L173.662 252.357L171.892 106.232L95.3703 68.9501Z" fill="#F2F2F2"/>
<path d="M72.1174 57.277L14.9388 174.683L92.522 212.482L90.7511 66.3554L72.1174 57.277Z" fill="#F2F2F2"/>
<path d="M416 222.211L261.569 146.972L263.34 293.098L358.822 339.617L416 222.211Z" fill="#F2F2F2"/>
<path d="M178.809 106.232L180.58 252.357L257.101 289.639L255.33 143.513L178.809 106.232Z" fill="#F2F2F2"/>
<path d="M351.526 112.456L341.917 112.828L342.396 125.185L352.005 124.813L351.526 112.456Z" fill="#6C63FF"/>
<path d="M308.179 155.733C308.179 155.733 294.872 149.374 295.085 154.866C295.298 160.358 308.498 163.971 308.498 163.971L308.179 155.733Z" fill="#FFB9B9"/>
<path d="M315.48 202.202C315.48 202.202 309.202 217.571 306.882 228.662C304.562 239.752 301.03 255.015 305.574 265.839C310.118 276.663 323.037 308.476 323.17 311.909C323.303 315.341 322.064 318.827 324.809 318.721C327.554 318.614 342.495 313.91 343.101 311.823C343.708 309.737 338.004 304.458 338.004 304.458L323.919 260.315L338.615 231.556L349.214 274.459L351.29 328.007C351.29 328.007 361.479 324.861 362.959 327.554C362.959 327.554 367.524 321.189 368.103 318.417C368.683 315.644 365.948 262.81 365.948 262.81C365.948 262.81 375.3 202.632 367.75 202.925C360.2 203.217 330.627 185.113 315.48 202.202Z" fill="#2F2E41"/>
<path d="M324.703 315.975C324.703 315.975 317.738 331.371 317.078 332.084C316.419 332.797 311.88 339.848 315.312 339.715C318.744 339.582 326.847 335.83 332.812 330.098C338.776 324.367 346.64 314.436 345.927 313.776C345.214 313.117 340.329 311.243 340.329 311.243L324.703 315.975Z" fill="#2F2E41"/>
<path d="M352.53 324.521C352.53 324.521 352.11 331.413 350.843 334.212C349.577 337.011 349.737 341.13 353.169 340.997C356.601 340.864 365.47 339.145 365.47 339.145C365.47 339.145 365.997 334.999 365.284 334.339C364.571 333.679 361.532 326.234 362.825 324.122C364.118 322.009 352.53 324.521 352.53 324.521Z" fill="#2F2E41"/>
<path d="M357.607 100.875C357.607 100.875 364.923 112.28 367.775 114.919C370.627 117.559 362.604 123.37 362.604 123.37L348.243 125.302C348.243 125.302 348.424 112.232 347.684 110.886C346.945 109.539 357.607 100.875 357.607 100.875Z" fill="#FFB9B9"/>
<path d="M345.125 115.798C345.125 115.798 348.083 121.183 350.829 121.077C353.574 120.97 367.775 114.919 368.382 112.833C368.988 110.747 373.085 127.777 373.085 127.777L338.337 188.94L329.861 183.081L333.968 147.17L337.341 127.788L345.125 115.798Z" fill="#6C63FF"/>
<path d="M369.663 170.536C368.277 173.436 367.411 176.461 367.532 179.557C367.537 179.694 367.542 179.831 367.554 179.968C367.883 186.322 370.223 193.671 371.063 199.015C371.672 202.848 371.499 205.646 369.256 206.304C363.818 207.89 370.049 209.023 349.011 216.027C327.973 223.031 324.302 216.985 324.248 215.612C324.195 214.239 327.228 203.809 326.515 203.149C325.802 202.489 316.539 211.786 313.74 210.52C310.941 209.253 313.421 202.282 313.421 202.282C313.421 202.282 319.725 187.599 319.592 184.166C319.459 180.734 329.143 164.545 329.143 164.545L335.729 121.663C335.729 121.663 338.261 116.064 341.667 115.244C345.072 114.425 347.897 116.378 347.897 116.378L342.199 128.974L336.187 151.209L337.193 159.42C337.193 159.42 344.184 144.711 348.775 139.032C353.367 133.354 363.157 119.911 363.157 119.911C363.157 119.911 365.442 112.198 363.717 109.893C361.991 107.581 370.914 107.235 374.719 116.713C376.735 121.736 380.009 129.227 382.059 136.201C383.887 142.38 384.75 148.156 382.94 151.458C380.173 156.502 373.212 163.131 369.663 170.536Z" fill="#575A89"/>
<path opacity="0.1" d="M382.94 151.458C380.173 156.502 373.212 163.132 369.663 170.536C368.736 167.197 367.606 163.741 367.606 163.741C367.606 163.741 363.269 140.533 376.097 134.535C378.223 134.33 380.348 134.924 382.06 136.201C383.887 142.38 384.75 148.156 382.94 151.458Z" fill="black"/>
<path d="M332.015 149.995L321.14 153.167L306.04 153.753L304.487 166.876L329.302 168.664C329.302 168.664 335.5 151.235 332.015 149.995Z" fill="#575A89"/>
<path d="M349.749 194.12C349.749 194.12 335.2 196.535 338.521 200.914C341.842 205.293 354.73 200.689 354.73 200.689L349.749 194.12Z" fill="#FFB9B9"/>
<path opacity="0.1" d="M367.554 179.969C367.883 186.322 370.223 193.671 371.063 199.015C366.428 203.402 362.021 207.272 360.36 207.336C356.928 207.47 351.41 206.996 349.378 207.762C347.345 208.529 346.153 195.512 346.153 195.512C346.153 195.512 347.366 191.34 352.777 189.067C356.43 187.53 363.431 183.36 367.554 179.969Z" fill="black"/>
<path d="M375.937 130.416C375.937 130.416 387.552 128.59 386.925 147.866C386.297 167.141 388.149 179.445 383.478 183.064C378.806 186.683 363.632 203.084 360.2 203.217C356.768 203.351 351.251 202.877 349.218 203.643C347.186 204.41 345.994 191.393 345.994 191.393C345.994 191.393 347.207 187.221 352.618 184.948C358.029 182.676 370.777 174.618 370.671 171.872C370.564 169.126 367.446 159.622 367.446 159.622C367.446 159.622 363.109 136.414 375.937 130.416Z" fill="#575A89"/>
<path d="M347.365 117.762C355.711 117.762 362.476 110.995 362.476 102.648C362.476 94.3004 355.711 87.5334 347.365 87.5334C339.019 87.5334 332.253 94.3004 332.253 102.648C332.253 110.995 339.019 117.762 347.365 117.762Z" fill="#FFB9B9"/>
<path d="M337.19 80.9846C336.825 81.2987 336.389 81.5178 335.919 81.6223C335.683 81.6644 335.441 81.6114 335.244 81.475C335.047 81.3386 334.912 81.1299 334.868 80.8944C334.523 81.6115 334.133 82.3758 333.427 82.7438C332.721 83.1118 331.629 82.8032 331.528 82.0136C331.425 82.6132 331.159 83.173 330.761 83.6326C330.323 84.0502 329.529 84.1556 329.146 83.6866C329.455 85.3763 329.265 87.1139 329.362 88.8289C329.459 90.5439 329.916 92.3621 331.211 93.4898C333.101 95.1345 335.942 94.7286 338.427 94.417C338.803 94.3381 339.193 94.3595 339.558 94.4789C340.488 94.8754 340.446 96.171 340.459 97.1826C340.535 98.9576 341.237 100.648 342.441 101.954C343.645 103.26 345.273 104.097 347.036 104.317C348.022 104.469 349.029 104.223 349.834 103.634C350.54 103.035 350.9 102.06 351.708 101.611C353.024 100.88 354.619 101.946 355.58 103.104C356.542 104.261 357.49 105.685 358.979 105.897C360.95 106.177 362.45 104.169 363.186 102.32C364.202 99.7279 364.689 96.959 364.618 94.1762C364.546 91.3934 363.919 88.653 362.772 86.1166C358.658 77.1475 344.606 75.7289 337.19 80.9846Z" fill="#2F2E41"/>
<path d="M257.222 93.4347C274.414 93.4347 288.351 79.4951 288.351 62.2997C288.351 45.1044 274.414 31.1648 257.222 31.1648C240.03 31.1648 226.093 45.1044 226.093 62.2997C226.093 79.4951 240.03 93.4347 257.222 93.4347Z" fill="#6C63FF"/>
<path d="M223.356 29.4509C230.528 36.8091 241.546 37.7003 241.546 37.7003C241.546 37.7003 240.935 26.6615 233.763 19.3033C226.59 11.9451 215.573 11.0538 215.573 11.0538C215.573 11.0538 216.184 22.0926 223.356 29.4509Z" fill="#3F3D56"/>
<path d="M225.762 25.6689C235.682 28.3451 241.831 37.5321 241.831 37.5321C241.831 37.5321 231.897 42.3802 221.977 39.7041C212.057 37.028 205.908 27.841 205.908 27.841C205.908 27.841 215.842 22.9928 225.762 25.6689Z" fill="#6C63FF"/>
<path d="M235.499 18.6531C235.565 28.9293 242.885 37.2132 242.885 37.2132C242.885 37.2132 250.099 28.8362 250.033 18.5601C249.967 8.28393 242.647 0 242.647 0C242.647 0 235.434 8.377 235.499 18.6531Z" fill="#3F3D56"/>
<path d="M239.855 17.5971C245.147 26.4056 243.207 37.2898 243.207 37.2898C243.207 37.2898 232.689 33.8926 227.397 25.084C222.105 16.2755 224.044 5.39124 224.044 5.39124C224.044 5.39124 234.563 8.7885 239.855 17.5971Z" fill="#6C63FF"/>
<path d="M254.405 75.9095C263.24 75.9095 270.402 68.7461 270.402 59.9096C270.402 51.0731 263.24 43.9097 254.405 43.9097C245.57 43.9097 238.408 51.0731 238.408 59.9096C238.408 68.7461 245.57 75.9095 254.405 75.9095Z" fill="#F2F2F2"/>
<path d="M246.919 70.0492C249.784 70.0492 252.107 67.726 252.107 64.8601C252.107 61.9942 249.784 59.6709 246.919 59.6709C244.053 59.6709 241.731 61.9942 241.731 64.8601C241.731 67.726 244.053 70.0492 246.919 70.0492Z" fill="#3F3D56"/>
<path d="M89.9279 338.554C107.12 338.554 121.057 324.615 121.057 307.419C121.057 290.224 107.12 276.284 89.9279 276.284C72.7359 276.284 58.799 290.224 58.799 307.419C58.799 324.615 72.7359 338.554 89.9279 338.554Z" fill="#6C63FF"/>
<path d="M76.3365 262.235C79.0195 272.155 88.2093 278.299 88.2093 278.299C88.2093 278.299 93.0491 268.359 90.3661 258.439C87.6832 248.519 78.4934 242.376 78.4934 242.376C78.4934 242.376 73.6536 252.315 76.3365 262.235Z" fill="#3F3D56"/>
<path d="M80.279 260.103C87.6411 267.271 88.5403 278.291 88.5403 278.291C88.5403 278.291 77.5032 277.688 70.1411 270.52C62.779 263.352 61.8797 252.333 61.8797 252.333C61.8797 252.333 72.9169 252.935 80.279 260.103Z" fill="#6C63FF"/>
<path d="M92.1996 258.717C87.2549 267.725 89.6165 278.525 89.6165 278.525C89.6165 278.525 99.995 274.721 104.94 265.713C109.884 256.705 107.523 245.905 107.523 245.905C107.523 245.905 97.1443 249.709 92.1996 258.717Z" fill="#3F3D56"/>
<path d="M96.5182 259.916C96.8526 270.186 89.8606 278.749 89.8606 278.749C89.8606 278.749 82.3264 270.66 81.992 260.389C81.6576 250.118 88.6496 241.555 88.6496 241.555C88.6496 241.555 96.1838 249.645 96.5182 259.916Z" fill="#6C63FF"/>
<path d="M88.6309 319.96C97.4656 319.96 104.628 312.796 104.628 303.96C104.628 295.123 97.4656 287.96 88.6309 287.96C79.7961 287.96 72.6341 295.123 72.6341 303.96C72.6341 312.796 79.7961 319.96 88.6309 319.96Z" fill="#F2F2F2"/>
<path d="M93.819 301.365C96.6843 301.365 99.0072 299.042 99.0072 296.176C99.0072 293.31 96.6843 290.987 93.819 290.987C90.9537 290.987 88.6309 293.31 88.6309 296.176C88.6309 299.042 90.9537 301.365 93.819 301.365Z" fill="#3F3D56"/>
<path d="M166.453 338.122H4.32346V338.987H166.453V338.122Z" fill="#2F2E41"/>
<path d="M405.54 339.852H243.411V340.716H405.54V339.852Z" fill="#2F2E41"/>
<path d="M41.4571 338.753L40.6886 338.356C50.668 319.059 45.3317 293.999 39.0982 276.375C34.8654 264.529 29.4666 253.132 22.9812 242.354L23.7121 241.892C30.2311 252.725 35.6581 264.179 39.913 276.086C46.204 293.872 51.5779 319.182 41.4571 338.753Z" fill="#2F2E41"/>
<path d="M48.8563 242.046L43.2469 272.75L44.0972 272.905L49.7066 242.201L48.8563 242.046Z" fill="#2F2E41"/>
<path d="M11.5577 268.206L10.9244 268.795L39.8915 299.93L40.5247 299.341L11.5577 268.206Z" fill="#2F2E41"/>
<path d="M63.6333 302.407L48.9404 322.736L49.6413 323.243L64.3342 302.914L63.6333 302.407Z" fill="#2F2E41"/>
<path d="M51.4491 233.906C53.8369 233.906 55.7726 231.97 55.7726 229.582C55.7726 227.194 53.8369 225.258 51.4491 225.258C49.0614 225.258 47.1257 227.194 47.1257 229.582C47.1257 231.97 49.0614 233.906 51.4491 233.906Z" fill="#6C63FF"/>
<path d="M4.32346 267.203C6.71124 267.203 8.64691 265.267 8.64691 262.879C8.64691 260.491 6.71124 258.555 4.32346 258.555C1.93568 258.555 0 260.491 0 262.879C0 265.267 1.93568 267.203 4.32346 267.203Z" fill="#3F3D56"/>
<path d="M23.3467 271.528C25.7344 271.528 27.6701 269.592 27.6701 267.203C27.6701 264.815 25.7344 262.879 23.3467 262.879C20.9589 262.879 19.0232 264.815 19.0232 267.203C19.0232 269.592 20.9589 271.528 23.3467 271.528Z" fill="#3F3D56"/>
<path d="M14.6998 288.392C17.0875 288.392 19.0232 286.456 19.0232 284.068C19.0232 281.68 17.0875 279.744 14.6998 279.744C12.312 279.744 10.3763 281.68 10.3763 284.068C10.3763 286.456 12.312 288.392 14.6998 288.392Z" fill="#6C63FF"/>
<path d="M68.743 299.203C71.1307 299.203 73.0664 297.267 73.0664 294.879C73.0664 292.491 71.1307 290.555 68.743 290.555C66.3552 290.555 64.4195 292.491 64.4195 294.879C64.4195 297.267 66.3552 299.203 68.743 299.203Z" fill="#3F3D56"/>
<path d="M54.4756 303.96C56.8633 303.96 58.799 302.024 58.799 299.636C58.799 297.247 56.8633 295.311 54.4756 295.311C52.0878 295.311 50.1521 297.247 50.1521 299.636C50.1521 302.024 52.0878 303.96 54.4756 303.96Z" fill="#3F3D56"/>
<path d="M64.4195 317.798C66.8073 317.798 68.743 315.862 68.743 313.473C68.743 311.085 66.8073 309.149 64.4195 309.149C62.0317 309.149 60.096 311.085 60.096 313.473C60.096 315.862 62.0317 317.798 64.4195 317.798Z" fill="#3F3D56"/>
<path d="M19.0232 239.095C21.411 239.095 23.3467 237.159 23.3467 234.771C23.3467 232.383 21.411 230.447 19.0232 230.447C16.6354 230.447 14.6998 232.383 14.6998 234.771C14.6998 237.159 16.6354 239.095 19.0232 239.095Z" fill="#3F3D56"/>
<path d="M296.847 77.5085H88.4564V202.481H296.847V77.5085Z" fill="#3F3D56"/>
<path d="M96.671 84.4274C97.8649 84.4274 98.8327 83.4594 98.8327 82.2653C98.8327 81.0712 97.8649 80.1031 96.671 80.1031C95.4771 80.1031 94.5093 81.0712 94.5093 82.2653C94.5093 83.4594 95.4771 84.4274 96.671 84.4274Z" fill="#6C63FF"/>
<path d="M104.453 84.4274C105.647 84.4274 106.615 83.4594 106.615 82.2653C106.615 81.0712 105.647 80.1031 104.453 80.1031C103.259 80.1031 102.291 81.0712 102.291 82.2653C102.291 83.4594 103.259 84.4274 104.453 84.4274Z" fill="#6C63FF"/>
<path d="M112.235 84.4274C113.429 84.4274 114.397 83.4594 114.397 82.2653C114.397 81.0712 113.429 80.1031 112.235 80.1031C111.042 80.1031 110.074 81.0712 110.074 82.2653C110.074 83.4594 111.042 84.4274 112.235 84.4274Z" fill="#6C63FF"/>
<path d="M296.847 87.1008H88.6308V87.9657H296.847V87.1008Z" fill="#2F2E41"/>
<path d="M209.946 112.536V151.454H153.382L142.932 163.995L144.125 151.454H139.041V112.536H209.946Z" fill="#6C63FF"/>
<path opacity="0.1" d="M209.946 125.941H184.437V151.454H209.946V125.941Z" fill="black"/>
<path d="M190.058 131.562H260.963V170.481H255.877L257.071 183.021L246.623 170.481H190.058V131.562Z" fill="#6C63FF"/>
<path opacity="0.1" d="M143.364 170.27C151.96 170.27 158.929 169.59 158.929 168.751C158.929 167.912 151.96 167.232 143.364 167.232C134.768 167.232 127.8 167.912 127.8 168.751C127.8 169.59 134.768 170.27 143.364 170.27Z" fill="black"/>
<path opacity="0.1" d="M257.071 190.805C266.861 190.805 274.797 190.031 274.797 189.075C274.797 188.12 266.861 187.346 257.071 187.346C247.281 187.346 239.345 188.12 239.345 189.075C239.345 190.031 247.281 190.805 257.071 190.805Z" fill="black"/>
</g>
<defs>
<clipPath id="clip0">
<rect width="416" height="341" fill="white"/>
</clipPath>
</defs>
</svg>
