<svg width="3811" height="2088" viewBox="0 0 3811 2088" fill="none" xmlns="http://www.w3.org/2000/svg">
<rect width="3811" height="2088" fill="url(#paint0_linear)"/>
<path d="M264.296 1747.86C264.307 1732.75 270.314 1718.26 280.995 1707.58C291.676 1696.89 306.158 1690.89 321.257 1690.89C336.357 1690.89 350.839 1696.89 361.52 1707.58C372.201 1718.26 378.207 1732.75 378.219 1747.86" fill="#2F4B51"/>
<path d="M321.255 1747.86C320.847 1747.86 320.456 1747.7 320.167 1747.41C319.878 1747.12 319.716 1746.73 319.716 1746.32V1716.28C319.716 1715.87 319.878 1715.47 320.167 1715.19C320.455 1714.9 320.847 1714.73 321.255 1714.73C321.664 1714.73 322.055 1714.9 322.344 1715.19C322.633 1715.47 322.795 1715.87 322.795 1716.28V1746.32C322.795 1746.73 322.633 1747.12 322.344 1747.41C322.055 1747.7 321.664 1747.86 321.255 1747.86Z" fill="#9CC1C9"/>
<path d="M321.256 1737.54C320.888 1737.54 320.532 1737.41 320.253 1737.17L301.78 1721.3C301.624 1721.17 301.496 1721 301.403 1720.82C301.31 1720.64 301.254 1720.45 301.237 1720.24C301.221 1720.04 301.245 1719.84 301.308 1719.64C301.371 1719.45 301.471 1719.27 301.604 1719.12C301.736 1718.96 301.898 1718.83 302.079 1718.74C302.261 1718.65 302.459 1718.6 302.662 1718.58C302.865 1718.57 303.068 1718.59 303.261 1718.66C303.454 1718.72 303.632 1718.82 303.785 1718.96L322.259 1734.83C322.498 1735.03 322.668 1735.31 322.747 1735.61C322.826 1735.92 322.809 1736.24 322.7 1736.53C322.591 1736.83 322.394 1737.08 322.135 1737.26C321.877 1737.44 321.57 1737.54 321.255 1737.54L321.256 1737.54Z" fill="#9CC1C9"/>
<path d="M439.798 1747.86C439.809 1732.75 445.816 1718.26 456.497 1707.58C467.178 1696.89 481.66 1690.89 496.759 1690.89C511.859 1690.89 526.341 1696.89 537.022 1707.58C547.703 1718.26 553.709 1732.75 553.721 1747.86" fill="#2F4B51"/>
<path d="M496.759 1747.86C496.351 1747.86 495.959 1747.7 495.671 1747.41C495.382 1747.12 495.22 1746.73 495.22 1746.32V1716.28C495.22 1715.87 495.382 1715.47 495.671 1715.19C495.959 1714.9 496.351 1714.73 496.759 1714.73C497.168 1714.73 497.559 1714.9 497.848 1715.19C498.137 1715.47 498.299 1715.87 498.299 1716.28V1746.32C498.299 1746.73 498.136 1747.12 497.848 1747.41C497.559 1747.7 497.167 1747.86 496.759 1747.86Z" fill="#9CC1C9"/>
<path d="M496.759 1737.54C496.391 1737.54 496.035 1737.41 495.757 1737.17L477.283 1721.3C477.127 1721.17 476.999 1721 476.906 1720.82C476.812 1720.64 476.756 1720.45 476.739 1720.24C476.723 1720.04 476.747 1719.84 476.81 1719.64C476.873 1719.45 476.973 1719.27 477.106 1719.11C477.238 1718.96 477.4 1718.83 477.582 1718.74C477.764 1718.65 477.962 1718.6 478.165 1718.58C478.367 1718.57 478.571 1718.59 478.764 1718.66C478.957 1718.72 479.135 1718.82 479.288 1718.96L497.762 1734.83C498.001 1735.03 498.171 1735.31 498.25 1735.61C498.329 1735.92 498.312 1736.24 498.203 1736.53C498.094 1736.83 497.897 1737.08 497.638 1737.26C497.38 1737.44 497.073 1737.54 496.759 1737.54L496.759 1737.54Z" fill="#9CC1C9"/>
<path d="M528.026 1870.21C583.007 1870.21 627.578 1859.8 627.578 1846.96C627.578 1834.12 583.007 1823.71 528.026 1823.71C473.045 1823.71 428.475 1834.12 428.475 1846.96C428.475 1859.8 473.045 1870.21 528.026 1870.21Z" fill="#2F4B51"/>
<path d="M886.414 1516.13C886.414 1457.47 838.871 1318.27 780.225 1318.27C721.578 1318.27 674.036 1457.47 674.036 1516.13C674.036 1544.32 685.224 1571.36 705.138 1591.29C725.052 1611.22 752.062 1622.42 780.225 1622.42C808.388 1622.42 835.398 1611.22 855.312 1591.29C875.226 1571.36 886.414 1544.32 886.414 1516.13H886.414Z" fill="#E6EDEF"/>
<path d="M859.866 1516.13C859.866 1457.47 812.323 1318.27 753.677 1318.27C695.031 1318.27 647.488 1457.47 647.488 1516.13C647.488 1544.32 658.676 1571.36 678.59 1591.29C698.504 1611.22 725.514 1622.42 753.677 1622.42C781.84 1622.42 808.85 1611.22 828.764 1591.29C848.678 1571.36 859.866 1544.32 859.866 1516.13H859.866Z" fill="#2F4B51"/>
<path d="M756.996 1753.79C756.116 1753.79 755.272 1753.44 754.65 1752.82C754.027 1752.19 753.678 1751.35 753.678 1750.47V1454.38C753.678 1453.5 754.027 1452.66 754.65 1452.04C755.272 1451.41 756.116 1451.06 756.996 1451.06C757.876 1451.06 758.72 1451.41 759.343 1452.04C759.965 1452.66 760.315 1453.5 760.315 1454.38V1750.47C760.315 1751.35 759.965 1752.19 759.343 1752.82C758.72 1753.44 757.876 1753.79 756.996 1753.79Z" fill="#9CC1C9"/>
<path d="M756.995 1502.92C756.339 1502.92 755.698 1502.73 755.152 1502.36C754.607 1502 754.181 1501.48 753.93 1500.87C753.679 1500.26 753.613 1499.6 753.741 1498.95C753.869 1498.31 754.185 1497.72 754.649 1497.25L798.046 1453.81C798.668 1453.19 799.512 1452.84 800.392 1452.84C801.272 1452.84 802.116 1453.19 802.739 1453.81C803.361 1454.44 803.71 1455.28 803.71 1456.16C803.71 1457.04 803.361 1457.89 802.739 1458.51L759.342 1501.95C759.034 1502.26 758.668 1502.5 758.266 1502.67C757.863 1502.84 757.431 1502.92 756.995 1502.92Z" fill="#9CC1C9"/>
<path d="M3640.68 1757.28H170.318C169.438 1757.28 168.594 1756.93 167.972 1756.31C167.35 1755.68 167 1754.84 167 1753.96C167 1753.08 167.35 1752.23 167.972 1751.61C168.594 1750.99 169.438 1750.64 170.318 1750.64H3640.68C3641.56 1750.64 3642.41 1750.99 3643.03 1751.61C3643.65 1752.23 3644 1753.08 3644 1753.96C3644 1754.84 3643.65 1755.68 3643.03 1756.31C3642.41 1756.93 3641.56 1757.28 3640.68 1757.28Z" fill="#E6EDEF"/>
<path d="M1370.9 1873.53H1062.29C1061.41 1873.53 1060.56 1873.18 1059.94 1872.56C1059.32 1871.94 1058.97 1871.09 1058.97 1870.21C1058.97 1869.33 1059.32 1868.49 1059.94 1867.86C1060.56 1867.24 1061.41 1866.89 1062.29 1866.89H1370.9C1371.78 1866.89 1372.62 1867.24 1373.25 1867.86C1373.87 1868.49 1374.22 1869.33 1374.22 1870.21C1374.22 1871.09 1373.87 1871.94 1373.25 1872.56C1372.62 1873.18 1371.78 1873.53 1370.9 1873.53Z" fill="#E6EDEF"/>
<path d="M2137.45 1873.53H1828.84C1827.96 1873.53 1827.11 1873.18 1826.49 1872.56C1825.87 1871.94 1825.52 1871.09 1825.52 1870.21C1825.52 1869.33 1825.87 1868.49 1826.49 1867.86C1827.11 1867.24 1827.96 1866.89 1828.84 1866.89H2137.45C2138.33 1866.89 2139.17 1867.24 2139.8 1867.86C2140.42 1868.49 2140.77 1869.33 2140.77 1870.21C2140.77 1871.09 2140.42 1871.94 2139.8 1872.56C2139.17 1873.18 2138.33 1873.53 2137.45 1873.53Z" fill="#E6EDEF"/>
<path d="M2904 1873.53H2595.39C2594.51 1873.53 2593.66 1873.18 2593.04 1872.56C2592.42 1871.94 2592.07 1871.09 2592.07 1870.21C2592.07 1869.33 2592.42 1868.49 2593.04 1867.86C2593.66 1867.24 2594.51 1866.89 2595.39 1866.89H2904C2904.88 1866.89 2905.72 1867.24 2906.34 1867.86C2906.97 1868.49 2907.32 1869.33 2907.32 1870.21C2907.32 1871.09 2906.97 1871.94 2906.34 1872.56C2905.72 1873.18 2904.88 1873.53 2904 1873.53Z" fill="#E6EDEF"/>
<path d="M3242.47 1516.13C3242.47 1457.47 3194.93 1318.27 3136.29 1318.27C3077.64 1318.27 3030.1 1457.47 3030.1 1516.13C3030.1 1544.32 3041.28 1571.36 3061.2 1591.29C3081.11 1611.22 3108.12 1622.42 3136.29 1622.42C3164.45 1622.42 3191.46 1611.22 3211.37 1591.29C3231.29 1571.36 3242.47 1544.32 3242.47 1516.13H3242.47Z" fill="#E6EDEF"/>
<path d="M3215.93 1516.13C3215.93 1457.47 3168.38 1318.27 3109.74 1318.27C3051.09 1318.27 3003.55 1457.47 3003.55 1516.13C3003.55 1544.32 3014.74 1571.36 3034.65 1591.29C3054.57 1611.22 3081.57 1622.42 3109.74 1622.42C3137.9 1622.42 3164.91 1611.22 3184.82 1591.29C3204.74 1571.36 3215.93 1544.32 3215.93 1516.13H3215.93Z" fill="#2F4B51"/>
<path d="M3113.06 1753.79C3112.18 1753.79 3111.33 1753.44 3110.71 1752.82C3110.09 1752.19 3109.74 1751.35 3109.74 1750.47V1454.38C3109.74 1453.5 3110.09 1452.66 3110.71 1452.04C3111.33 1451.41 3112.18 1451.06 3113.06 1451.06C3113.94 1451.06 3114.78 1451.41 3115.4 1452.04C3116.03 1452.66 3116.37 1453.5 3116.37 1454.38V1750.47C3116.37 1751.35 3116.03 1752.19 3115.4 1752.82C3114.78 1753.44 3113.94 1753.79 3113.06 1753.79Z" fill="#9CC1C9"/>
<path d="M3113.06 1502.92C3112.4 1502.92 3111.76 1502.73 3111.21 1502.36C3110.67 1502 3110.24 1501.48 3109.99 1500.87C3109.74 1500.26 3109.67 1499.6 3109.8 1498.95C3109.93 1498.31 3110.25 1497.72 3110.71 1497.25L3154.11 1453.81C3154.73 1453.19 3155.57 1452.84 3156.45 1452.84C3157.33 1452.84 3158.18 1453.19 3158.8 1453.81C3159.42 1454.44 3159.77 1455.28 3159.77 1456.16C3159.77 1457.04 3159.42 1457.89 3158.8 1458.51L3115.4 1501.95C3115.09 1502.26 3114.73 1502.5 3114.33 1502.67C3113.92 1502.84 3113.49 1502.92 3113.06 1502.92Z" fill="#9CC1C9"/>
<path d="M2723.36 1588.59C2724.16 1588.8 2724.9 1589.18 2725.54 1589.71C2726.17 1590.24 2726.68 1590.9 2727.03 1591.64C2727.38 1592.39 2727.57 1593.21 2727.57 1594.03C2727.57 1594.86 2727.4 1595.67 2727.05 1596.42L2741.48 1610.35L2731.31 1612.63L2719.17 1599.05C2717.95 1598.39 2717.02 1597.3 2716.55 1595.99C2716.08 1594.68 2716.11 1593.25 2716.62 1591.96C2717.14 1590.67 2718.11 1589.61 2719.35 1588.99C2720.59 1588.37 2722.02 1588.23 2723.36 1588.59H2723.36Z" fill="#825961"/>
<path d="M2743.65 1625.23L2725.85 1608.51C2725.61 1608.28 2725.41 1608.01 2725.27 1607.7C2725.14 1607.39 2725.06 1607.06 2725.06 1606.72C2725.05 1606.38 2725.11 1606.05 2725.24 1605.74C2725.36 1605.42 2725.55 1605.14 2725.78 1604.9L2729.42 1601.21C2729.85 1600.78 2730.43 1600.51 2731.04 1600.47C2731.65 1600.43 2732.26 1600.61 2732.75 1600.98L2747.66 1612.39L2756.97 1589.8C2757.34 1588.91 2757.88 1588.1 2758.57 1587.43C2759.27 1586.76 2760.09 1586.24 2760.99 1585.89C2761.89 1585.55 2762.85 1585.4 2763.81 1585.45C2764.77 1585.49 2765.72 1585.73 2766.58 1586.16C2767.95 1586.82 2769.06 1587.9 2769.75 1589.25C2770.45 1590.6 2770.69 1592.13 2770.44 1593.63C2768.75 1603.9 2758.52 1617.49 2752.57 1624.67C2751.76 1625.65 2750.66 1626.35 2749.43 1626.68C2748.21 1627.01 2746.91 1626.95 2745.71 1626.51C2744.95 1626.23 2744.25 1625.79 2743.65 1625.23Z" fill="#70B3C2"/>
<path d="M2733.66 1609.02L2720.56 1589.99C2720.39 1589.74 2720.33 1589.44 2720.38 1589.15C2720.43 1588.86 2720.6 1588.6 2720.85 1588.43L2721.37 1588.06C2721.49 1587.98 2721.63 1587.92 2721.78 1587.89C2721.92 1587.86 2722.07 1587.86 2722.21 1587.88C2722.36 1587.91 2722.5 1587.97 2722.62 1588.05C2722.74 1588.13 2722.85 1588.23 2722.93 1588.35L2736.04 1607.38C2736.12 1607.5 2736.18 1607.64 2736.21 1607.78C2736.24 1607.92 2736.24 1608.07 2736.22 1608.22C2736.19 1608.36 2736.14 1608.5 2736.06 1608.62C2735.98 1608.75 2735.87 1608.86 2735.75 1608.94L2735.22 1609.3C2734.98 1609.47 2734.68 1609.54 2734.39 1609.48C2734.09 1609.43 2733.83 1609.26 2733.66 1609.02Z" fill="white"/>
<path d="M2730 1609.16L2719.13 1593.37C2718.66 1592.69 2718.49 1591.86 2718.63 1591.06C2718.78 1590.25 2719.24 1589.54 2719.91 1589.07L2721.02 1588.31L2735.4 1609.18L2734.29 1609.95C2733.62 1610.41 2732.79 1610.59 2731.98 1610.44C2731.18 1610.29 2730.47 1609.83 2730 1609.16Z" fill="#3F3D56"/>
<path d="M2731.32 1745.44L2724.48 1744.65L2725.39 1718.03L2734.36 1719.07L2731.32 1745.44Z" fill="#825961"/>
<path d="M2732.29 1752.27L2710.27 1749.73L2710.3 1749.45C2710.43 1748.32 2710.78 1747.23 2711.33 1746.24C2711.88 1745.25 2712.62 1744.37 2713.51 1743.67C2714.4 1742.96 2715.42 1742.44 2716.51 1742.13C2717.6 1741.82 2718.74 1741.72 2719.86 1741.85H2719.86L2733.32 1743.41L2732.29 1752.27Z" fill="#0F2024"/>
<path d="M2810.76 1740.38L2804.19 1742.42L2793.23 1718.02L2802.93 1715.02L2810.76 1740.38Z" fill="#825961"/>
<path d="M2814.4 1746.24L2793.22 1752.79L2793.13 1752.52C2792.8 1751.44 2792.68 1750.3 2792.79 1749.17C2792.89 1748.04 2793.22 1746.94 2793.75 1745.94C2794.28 1744.94 2795 1744.05 2795.87 1743.32C2796.74 1742.6 2797.75 1742.05 2798.83 1741.72H2798.83L2811.77 1737.72L2814.4 1746.24Z" fill="#0F2024"/>
<path d="M2723.69 1739.3C2723 1739.09 2722.41 1738.61 2722.06 1737.97C2721.71 1737.34 2721.63 1736.59 2721.82 1735.89L2725.94 1688.44C2726.13 1686.27 2726.81 1684.18 2727.93 1682.32L2752.85 1640.91L2775.16 1644.92L2775.3 1644.98C2786.14 1651.63 2795.77 1683.86 2805.08 1715.02C2806.52 1719.87 2808.02 1724.88 2809.48 1729.67C2809.75 1730.35 2809.75 1731.11 2809.47 1731.79C2809.18 1732.47 2808.65 1733.02 2807.97 1733.3L2801.22 1736.15C2800.58 1736.42 2799.86 1736.45 2799.2 1736.22C2798.54 1735.99 2798 1735.52 2797.67 1734.91L2762.94 1671.28C2762.9 1671.2 2762.84 1671.13 2762.76 1671.08C2762.69 1671.03 2762.6 1671 2762.51 1670.99C2762.42 1670.98 2762.33 1670.99 2762.25 1671.02C2762.16 1671.05 2762.09 1671.11 2762.03 1671.18L2741.88 1694L2734.47 1737.5L2734.44 1737.59C2734.18 1738.21 2733.69 1738.72 2733.08 1739.01C2732.48 1739.31 2731.78 1739.37 2731.13 1739.19L2723.86 1739.33L2723.82 1739.33L2723.69 1739.3Z" fill="#0F2024"/>
<path d="M2751.65 1645.45L2751.51 1645.4L2751.46 1645.26C2751.36 1644.92 2741.16 1610.38 2750.35 1588.37L2750.36 1588.35C2750.63 1587.82 2757.04 1575.5 2764.49 1574.26L2764.68 1574.23L2767.1 1578.76C2767.86 1579.52 2780.97 1593.14 2775.02 1616.54C2775.55 1618.46 2782.79 1644.81 2778.85 1648.75C2777.42 1649.74 2775.68 1650.18 2773.94 1649.98C2766.36 1649.33 2758.88 1647.81 2751.65 1645.45Z" fill="#70B3C2"/>
<path d="M2762.95 1569.95C2772.55 1569.95 2780.34 1562.15 2780.34 1552.54C2780.34 1542.93 2772.55 1535.13 2762.95 1535.13C2753.35 1535.13 2745.56 1542.93 2745.56 1552.54C2745.56 1562.15 2753.35 1569.95 2762.95 1569.95Z" fill="#0F2024"/>
<path d="M2756.04 1569.86C2763.65 1569.86 2769.82 1563.69 2769.82 1556.07C2769.82 1548.46 2763.65 1542.28 2756.04 1542.28C2748.43 1542.28 2742.27 1548.46 2742.27 1556.07C2742.27 1563.69 2748.43 1569.86 2756.04 1569.86Z" fill="#825961"/>
<path d="M2764.91 1569.47C2763.65 1569.91 2762.11 1570.31 2761.12 1569.38C2760.71 1568.85 2760.47 1568.2 2760.43 1567.53C2760.39 1566.86 2760.55 1566.19 2760.9 1565.61C2761.61 1564.47 2762.19 1563.26 2762.62 1561.99C2762.75 1561.03 2762.63 1560.06 2762.27 1559.16C2761.91 1558.27 2761.33 1557.48 2760.58 1556.88C2759.08 1555.74 2757.39 1554.88 2755.59 1554.36L2745.94 1550.93C2743.43 1550.34 2741.21 1548.9 2739.65 1546.85C2738.84 1545.14 2738.7 1543.2 2739.26 1541.39C2739.81 1539.59 2741.02 1538.06 2742.65 1537.1C2744.29 1536.28 2746.09 1535.83 2747.93 1535.79C2749.76 1535.76 2751.58 1536.13 2753.25 1536.9C2755.09 1537.75 2756.97 1538.51 2758.9 1539.16C2762.76 1540.18 2767.15 1539.26 2770.54 1541.44C2771.97 1542.53 2773.11 1543.96 2773.85 1545.6C2774.59 1547.24 2774.9 1549.04 2774.77 1550.83C2774.48 1554.44 2773.51 1557.96 2771.93 1561.22C2771.19 1563.22 2770.13 1565.09 2768.78 1566.75C2768.12 1567.56 2767.28 1568.19 2766.32 1568.61C2765.36 1569.02 2764.32 1569.2 2763.28 1569.12L2764.91 1569.47Z" fill="#0F2024"/>
<path d="M2777.53 1555.35C2783.73 1555.35 2788.75 1550.32 2788.75 1544.12C2788.75 1537.92 2783.73 1532.89 2777.53 1532.89C2771.34 1532.89 2766.32 1537.92 2766.32 1544.12C2766.32 1550.32 2771.34 1555.35 2777.53 1555.35Z" fill="#0F2024"/>
<path d="M2759.02 1560.4C2759.02 1560.2 2759.08 1560 2759.18 1559.82C2759.29 1559.65 2759.44 1559.5 2759.62 1559.41C2759.8 1559.31 2760 1559.27 2760.2 1559.28C2760.41 1559.29 2760.6 1559.35 2760.77 1559.47C2760.94 1559.58 2761.08 1559.74 2761.16 1559.92C2761.25 1560.11 2761.28 1560.31 2761.26 1560.52C2761.24 1560.72 2761.16 1560.91 2761.04 1561.07C2760.92 1561.24 2760.75 1561.36 2760.57 1561.44V1563.91C2760.57 1563.97 2760.56 1564.02 2760.54 1564.07C2760.51 1564.12 2760.48 1564.17 2760.44 1564.21C2760.4 1564.25 2760.36 1564.28 2760.31 1564.3C2760.26 1564.32 2760.2 1564.34 2760.15 1564.34C2760.09 1564.34 2760.03 1564.32 2759.98 1564.3C2759.93 1564.28 2759.89 1564.25 2759.85 1564.21C2759.81 1564.17 2759.78 1564.12 2759.76 1564.07C2759.73 1564.02 2759.72 1563.97 2759.72 1563.91V1561.44C2759.52 1561.36 2759.34 1561.21 2759.22 1561.03C2759.09 1560.84 2759.02 1560.62 2759.02 1560.4Z" fill="white"/>
<path d="M2724.05 1600.38C2724.87 1600.3 2725.7 1600.39 2726.47 1600.67C2727.25 1600.94 2727.96 1601.38 2728.55 1601.96C2729.14 1602.54 2729.6 1603.24 2729.89 1604.01C2730.18 1604.78 2730.29 1605.61 2730.23 1606.43L2748.6 1614.45L2739.87 1620.14L2723.76 1611.65C2722.39 1611.45 2721.13 1610.75 2720.24 1609.69C2719.34 1608.63 2718.87 1607.28 2718.9 1605.89C2718.94 1604.5 2719.48 1603.17 2720.43 1602.15C2721.38 1601.14 2722.66 1600.51 2724.05 1600.38Z" fill="#825961"/>
<path d="M2755.82 1627.64L2733.32 1618.18C2733.01 1618.05 2732.73 1617.86 2732.49 1617.62C2732.25 1617.38 2732.07 1617.09 2731.95 1616.78C2731.82 1616.47 2731.76 1616.13 2731.77 1615.79C2731.78 1615.46 2731.85 1615.12 2731.99 1614.82L2734.12 1610.09C2734.37 1609.53 2734.82 1609.09 2735.38 1608.83C2735.94 1608.58 2736.57 1608.54 2737.16 1608.72L2755.11 1614.21L2755.97 1589.79C2756 1588.82 2756.23 1587.88 2756.64 1587C2757.06 1586.13 2757.65 1585.36 2758.37 1584.72C2759.1 1584.09 2759.94 1583.61 2760.86 1583.32C2761.78 1583.02 2762.75 1582.92 2763.71 1583.02C2765.21 1583.16 2766.64 1583.79 2767.76 1584.81C2768.88 1585.83 2769.64 1587.19 2769.92 1588.68C2771.92 1598.9 2767.06 1615.2 2763.98 1624.01C2763.56 1625.21 2762.78 1626.25 2761.74 1626.98C2760.71 1627.72 2759.47 1628.12 2758.2 1628.12C2757.38 1628.12 2756.57 1627.96 2755.82 1627.64Z" fill="#70B3C2"/>
<path d="M448.376 1621.86H413.911V1611.39C424.802 1603.8 434.451 1604.46 447.145 1612L448.376 1621.86Z" fill="#70B3C2"/>
<path d="M405.932 1807.87H398.386L397.258 1778.74H405.932V1807.87Z" fill="#825961"/>
<path d="M407.855 1815.19L383.526 1815.19V1814.89C383.526 1813.64 383.771 1812.41 384.247 1811.26C384.723 1810.11 385.421 1809.06 386.3 1808.18C387.179 1807.3 388.223 1806.61 389.372 1806.13C390.521 1805.65 391.752 1805.41 392.996 1805.41H392.996L407.856 1805.41L407.855 1815.19Z" fill="#0F2024"/>
<path d="M448.43 1807.87H455.973L457.101 1778.74H448.427L448.43 1807.87Z" fill="#825961"/>
<path d="M446.504 1805.41L461.363 1805.41H461.364C462.607 1805.41 463.839 1805.65 464.987 1806.13C466.136 1806.61 467.18 1807.3 468.06 1808.18C468.939 1809.06 469.636 1810.11 470.112 1811.26C470.588 1812.41 470.833 1813.64 470.833 1814.89V1815.19L446.504 1815.19L446.504 1805.41Z" fill="#0F2024"/>
<path d="M448.628 1804.14C447.999 1804.14 447.388 1803.92 446.897 1803.53C446.406 1803.13 446.063 1802.59 445.924 1801.97L427.223 1720.32C427.182 1720.12 427.069 1719.93 426.904 1719.8C426.739 1719.66 426.533 1719.6 426.322 1719.6H426.317C426.105 1719.6 425.898 1719.67 425.734 1719.8C425.569 1719.94 425.458 1720.12 425.418 1720.33L408.245 1801.43C408.111 1802.05 407.769 1802.61 407.276 1803C406.784 1803.4 406.169 1803.62 405.535 1803.63H397.354C396.977 1803.63 396.604 1803.55 396.257 1803.4C395.91 1803.25 395.598 1803.03 395.339 1802.76C395.08 1802.48 394.88 1802.16 394.751 1801.8C394.622 1801.45 394.568 1801.07 394.59 1800.69L400.683 1697.9L403.135 1697.18L403.181 1697.18L451.344 1697.6L461.602 1800.27C461.638 1800.64 461.601 1801.01 461.492 1801.36C461.384 1801.71 461.206 1802.04 460.971 1802.32C460.735 1802.6 460.445 1802.84 460.119 1803C459.792 1803.17 459.435 1803.28 459.069 1803.31L448.85 1804.13C448.776 1804.14 448.702 1804.14 448.628 1804.14Z" fill="#0F2024"/>
<path d="M428.737 1603.09C437.085 1603.09 443.853 1596.32 443.853 1587.96C443.853 1579.61 437.085 1572.83 428.737 1572.83C420.389 1572.83 413.621 1579.61 413.621 1587.96C413.621 1596.32 420.389 1603.09 428.737 1603.09Z" fill="#825961"/>
<path d="M419.477 1709.17C416.825 1709.21 414.184 1708.83 411.644 1708.07C409.385 1707.39 407.29 1706.25 405.486 1704.73C403.683 1703.2 402.21 1701.33 401.158 1699.21C400.825 1698.58 400.751 1697.84 400.952 1697.15C402.619 1691.45 410.675 1661.85 405.535 1638.32C404.809 1635.05 404.749 1631.66 405.358 1628.37C405.966 1625.08 407.231 1621.94 409.077 1619.15C410.88 1616.38 413.222 1614 415.963 1612.15C418.705 1610.31 421.789 1609.03 425.033 1608.41V1608.41C425.886 1608.24 426.743 1608.1 427.581 1608C431.167 1607.56 434.806 1607.91 438.238 1609.04C441.67 1610.17 444.81 1612.05 447.434 1614.54C450.135 1617.07 452.243 1620.17 453.606 1623.62C454.97 1627.07 455.555 1630.77 455.321 1634.47L451.371 1697.92C451.344 1698.4 451.193 1698.86 450.934 1699.26C450.676 1699.66 450.317 1699.99 449.895 1700.21C445.345 1702.59 431.678 1709.17 419.477 1709.17Z" fill="#3F3D56"/>
<path d="M445.814 1576.82C444.244 1572.87 441.367 1569.58 437.665 1567.5C433.963 1565.42 429.659 1564.67 425.472 1565.38L430.238 1569.23C424.316 1569.43 418.083 1569.01 413.855 1573.16C415.201 1573.12 416.965 1576.01 418.311 1575.97C417.052 1576.06 415.839 1576.48 414.799 1577.2C413.76 1577.92 412.932 1578.9 412.401 1580.05C411.372 1582.37 411.131 1584.97 411.716 1587.44C413.241 1591.08 415.015 1594.6 417.025 1598C416.849 1591.98 428.687 1577.62 434.467 1579.12C431.53 1580.21 428.982 1582.15 427.143 1584.69C431.076 1582.7 435.524 1581.97 439.884 1582.6C440.879 1582.83 441.906 1582.89 442.921 1582.77C443.543 1582.65 444.123 1582.37 444.606 1581.96C445.088 1581.54 445.457 1581.02 445.678 1580.42C445.898 1579.83 445.963 1579.18 445.865 1578.56C445.767 1577.93 445.511 1577.34 445.119 1576.84L445.814 1576.82Z" fill="#0F2024"/>
<path d="M418.436 1705.36C418.054 1705.36 417.676 1705.28 417.326 1705.13L388.646 1692.6C388.037 1692.34 387.543 1691.86 387.254 1691.27C386.965 1690.67 386.902 1689.99 387.075 1689.35L406.061 1617.56C406.414 1616.22 407.03 1614.97 407.872 1613.87C408.715 1612.78 409.767 1611.86 410.967 1611.18C412.167 1610.5 413.491 1610.06 414.862 1609.9C416.232 1609.73 417.622 1609.84 418.949 1610.22L426.541 1612.39L421.197 1702.75C421.169 1703.2 421.035 1703.63 420.805 1704.01C420.575 1704.4 420.256 1704.72 419.876 1704.95C419.443 1705.22 418.944 1705.36 418.436 1705.36Z" fill="#70B3C2"/>
<path d="M471.516 1689.35L470.254 1684.58L468.426 1677.66L467.546 1674.34L465.719 1667.43L452.529 1617.56C452.178 1616.22 451.563 1614.97 450.721 1613.87C449.879 1612.78 448.827 1611.86 447.626 1611.18C446.426 1610.49 445.101 1610.06 443.73 1609.89C442.359 1609.73 440.969 1609.84 439.642 1610.22L432.054 1612.39L435.814 1675.95L436.202 1682.58L436.448 1686.77V1686.77L436.842 1693.37L437.396 1702.75C437.441 1703.46 437.751 1704.12 438.264 1704.6C438.777 1705.09 439.454 1705.36 440.159 1705.36C440.54 1705.36 440.917 1705.28 441.267 1705.13L469.946 1692.6C470.556 1692.34 471.051 1691.86 471.339 1691.27C471.628 1690.67 471.69 1689.99 471.516 1689.35Z" fill="#70B3C2"/>
<path d="M467.547 1674.34L436.202 1682.58L435.813 1675.95L465.719 1667.43L467.547 1674.34Z" fill="#9CC1C9"/>
<path d="M470.255 1684.59L436.842 1693.37L436.447 1686.77V1686.76L468.427 1677.66L470.255 1684.59Z" fill="#9CC1C9"/>
<path d="M422.394 1677.38L422.005 1683.89L391.264 1674.72L393.066 1667.91L422.394 1677.38Z" fill="#9CC1C9"/>
<path d="M421.753 1688.18L390.384 1678.04L388.579 1684.87L421.372 1694.65L421.753 1688.18Z" fill="#9CC1C9"/>
<path d="M390.929 1694.99C391.864 1694.74 392.735 1694.29 393.479 1693.68C394.223 1693.06 394.823 1692.29 395.236 1691.41C395.649 1690.54 395.866 1689.58 395.871 1688.62C395.876 1687.65 395.669 1686.69 395.264 1685.81L410.011 1639.47L399.554 1637.28L386.033 1682.71C384.604 1683.49 383.509 1684.77 382.956 1686.3C382.404 1687.83 382.432 1689.51 383.035 1691.03C383.639 1692.54 384.776 1693.78 386.231 1694.51C387.685 1695.24 389.357 1695.41 390.929 1694.99V1694.99Z" fill="#825961"/>
<path d="M410.422 1616.69C413.424 1617 415.113 1620.38 414.367 1624.58L410.784 1644.78C410.516 1646.29 409.271 1647.49 408.237 1647.23L396.118 1644.2C395.186 1643.96 394.842 1642.64 395.371 1641.31L402.646 1623.04C403.138 1621.32 404.147 1619.78 405.537 1618.65C406.928 1617.51 408.632 1616.83 410.422 1616.69Z" fill="#3F3D56"/>
<path d="M428.682 1559.64C433.798 1559.64 438.713 1561.64 442.386 1565.2C446.059 1568.77 448.202 1573.62 448.361 1578.74H452.069C452.396 1578.74 452.709 1578.87 452.94 1579.1C453.17 1579.33 453.3 1579.64 453.3 1579.97V1584.9C453.3 1585.23 453.17 1585.54 452.94 1585.77C452.709 1586 452.396 1586.13 452.069 1586.13H410.219C409.893 1586.13 409.58 1586 409.349 1585.77C409.118 1585.54 408.988 1585.23 408.988 1584.9V1579.36C408.988 1576.77 409.498 1574.2 410.487 1571.81C411.477 1569.42 412.928 1567.25 414.757 1565.42C416.585 1563.59 418.756 1562.13 421.146 1561.14C423.535 1560.15 426.096 1559.64 428.682 1559.64Z" fill="#70B3C2"/>
<path d="M431.035 1681.5H422.335C422.056 1681.5 421.787 1681.39 421.58 1681.21C421.373 1681.02 421.244 1680.76 421.218 1680.48L419.477 1662.61H433.894L432.153 1680.48C432.127 1680.76 431.997 1681.02 431.791 1681.21C431.584 1681.39 431.314 1681.5 431.035 1681.5Z" fill="#E6EDEF"/>
<path d="M433.87 1664.86H419.499C419.201 1664.86 418.916 1664.74 418.705 1664.53C418.495 1664.32 418.376 1664.04 418.376 1663.74V1661.04C418.376 1660.74 418.495 1660.46 418.705 1660.25C418.916 1660.04 419.201 1659.92 419.499 1659.92H433.87C434.168 1659.92 434.453 1660.04 434.664 1660.25C434.874 1660.46 434.993 1660.74 434.993 1661.04V1663.74C434.993 1664.04 434.874 1664.32 434.664 1664.53C434.453 1664.74 434.168 1664.86 433.87 1664.86Z" fill="#9CC1C9"/>
<path d="M426.872 1671.91C427.211 1671.95 427.545 1672.02 427.873 1672.11L451.042 1652.22L449.688 1644.93L460.423 1641.44L464.075 1654.13C464.37 1655.15 464.325 1656.24 463.946 1657.24C463.568 1658.24 462.877 1659.08 461.977 1659.65L432.634 1678.24C432.655 1679.55 432.276 1680.84 431.547 1681.93C430.819 1683.03 429.775 1683.87 428.556 1684.35C427.336 1684.84 425.998 1684.94 424.72 1684.64C423.442 1684.35 422.284 1683.67 421.4 1682.7C420.516 1681.73 419.948 1680.51 419.772 1679.21C419.596 1677.91 419.82 1676.59 420.414 1675.41C421.008 1674.24 421.944 1673.28 423.098 1672.66C424.252 1672.03 425.568 1671.77 426.872 1671.91H426.872Z" fill="#825961"/>
<path d="M451.102 1618.36C454.31 1617.46 457.515 1619.9 458.589 1624.07L463.742 1644.04C464.128 1645.54 463.378 1647.13 462.206 1647.3L448.478 1649.28C447.421 1649.43 446.491 1648.35 446.452 1646.92L445.919 1627.26C445.715 1625.41 446.108 1623.55 447.042 1621.95C447.975 1620.35 449.399 1619.09 451.102 1618.36Z" fill="#3F3D56"/>
<path d="M607.151 1672.41H596.698C596.363 1672.41 596.039 1672.28 595.791 1672.06C595.543 1671.83 595.387 1671.52 595.356 1671.19L593.264 1649.72H610.585L608.493 1671.19C608.462 1671.52 608.307 1671.83 608.058 1672.06C607.81 1672.28 607.486 1672.41 607.151 1672.41Z" fill="#E6EDEF"/>
<path d="M610.558 1652.42H593.291C592.934 1652.42 592.591 1652.28 592.338 1652.03C592.085 1651.77 591.943 1651.43 591.942 1651.07V1647.83C591.943 1647.47 592.085 1647.13 592.338 1646.88C592.591 1646.62 592.934 1646.48 593.291 1646.48H610.558C610.915 1646.48 611.258 1646.62 611.511 1646.88C611.764 1647.13 611.906 1647.47 611.907 1647.83V1651.07C611.906 1651.43 611.764 1651.77 611.511 1652.03C611.258 1652.28 610.915 1652.42 610.558 1652.42Z" fill="#9CC1C9"/>
<path d="M709.839 1798.46C702.245 1788.35 696.241 1777.13 692.037 1765.2C691.794 1764.49 691.811 1763.71 692.086 1763.01C692.361 1762.31 692.876 1761.73 693.539 1761.37L719.526 1747.43C719.947 1747.21 720.413 1747.08 720.891 1747.06C721.368 1747.04 721.844 1747.13 722.281 1747.32C722.727 1747.51 723.122 1747.81 723.437 1748.18C723.753 1748.55 723.98 1748.98 724.101 1749.46C727.126 1760.95 732.811 1771.57 740.698 1780.46C741.022 1780.82 741.26 1781.25 741.393 1781.72C741.526 1782.19 741.551 1782.68 741.465 1783.16C741.383 1783.63 741.194 1784.08 740.914 1784.46C740.633 1784.85 740.268 1785.17 739.846 1785.39L713.859 1799.33C713.195 1799.68 712.426 1799.79 711.69 1799.63C710.953 1799.47 710.297 1799.06 709.839 1798.46Z" fill="#9CC1C9"/>
<path d="M711.613 1797.12C711.752 1797.3 711.949 1797.42 712.168 1797.46C712.387 1797.51 712.615 1797.48 712.812 1797.37L738.799 1783.43C738.925 1783.37 739.035 1783.27 739.118 1783.16C739.202 1783.04 739.258 1782.91 739.282 1782.77C739.309 1782.62 739.301 1782.47 739.26 1782.33C739.218 1782.18 739.143 1782.05 739.041 1781.94C730.923 1772.79 725.07 1761.85 721.956 1750.02C721.92 1749.87 721.85 1749.74 721.753 1749.62C721.656 1749.51 721.533 1749.42 721.395 1749.36C721.265 1749.3 721.123 1749.27 720.981 1749.28C720.838 1749.28 720.699 1749.32 720.574 1749.39L694.588 1763.33C694.391 1763.43 694.237 1763.61 694.154 1763.81C694.07 1764.02 694.061 1764.25 694.129 1764.47C698.258 1776.18 704.154 1787.19 711.613 1797.12Z" fill="white"/>
<path d="M721.232 1767.32L707.079 1773.58C706.54 1773.81 705.93 1773.83 705.382 1773.61C704.833 1773.4 704.392 1772.98 704.153 1772.44L703.803 1771.65C703.566 1771.11 703.553 1770.5 703.765 1769.95C703.978 1769.4 704.399 1768.96 704.937 1768.72L719.091 1762.47C719.629 1762.23 720.239 1762.22 720.787 1762.43C721.336 1762.64 721.778 1763.06 722.016 1763.6L722.366 1764.4C722.603 1764.93 722.616 1765.55 722.404 1766.09C722.191 1766.64 721.77 1767.08 721.232 1767.32Z" fill="#9CC1C9"/>
<path d="M726.409 1776.94L712.255 1783.2C711.717 1783.44 711.107 1783.45 710.558 1783.24C710.01 1783.02 709.568 1782.6 709.33 1782.06L708.98 1781.27C708.743 1780.73 708.73 1780.12 708.942 1779.57C709.155 1779.02 709.576 1778.58 710.114 1778.34L724.267 1772.09C724.806 1771.85 725.416 1771.84 725.964 1772.05C726.513 1772.26 726.954 1772.68 727.192 1773.22L727.543 1774.02C727.779 1774.56 727.793 1775.17 727.581 1775.72C727.368 1776.26 726.947 1776.71 726.409 1776.94Z" fill="#9CC1C9"/>
<path d="M693.213 1768.93C692.236 1768.3 691.409 1767.46 690.79 1766.48C690.171 1765.5 689.774 1764.39 689.629 1763.24C689.484 1762.08 689.593 1760.91 689.948 1759.8C690.304 1758.7 690.898 1757.68 691.688 1756.83L685.719 1672.05L702.912 1673.71L703.385 1756.75C704.727 1758.17 705.5 1760.04 705.559 1761.99C705.618 1763.95 704.958 1765.86 703.704 1767.36C702.45 1768.86 700.69 1769.85 698.756 1770.14C696.822 1770.43 694.85 1770 693.213 1768.93Z" fill="#A0616A"/>
<path d="M689.611 1700.54C689.208 1700.25 688.876 1699.87 688.638 1699.43C688.4 1699 688.263 1698.51 688.237 1698.02L686.977 1675.17C686.852 1672.9 687.569 1670.67 688.99 1668.91C690.411 1667.14 692.434 1665.96 694.671 1665.6C696.907 1665.24 699.198 1665.72 701.101 1666.95C703.005 1668.18 704.386 1670.07 704.979 1672.26L710.513 1692.69C710.743 1693.54 710.626 1694.45 710.187 1695.22C709.748 1695.98 709.024 1696.54 708.172 1696.78L692.43 1701.05C691.952 1701.18 691.45 1701.2 690.962 1701.11C690.474 1701.02 690.012 1700.83 689.611 1700.54Z" fill="#3F3D56"/>
<path d="M660.306 1873.17L651.244 1873.16L646.93 1838.17H660.309L660.306 1873.17Z" fill="#A0616A"/>
<path d="M642.744 1870.57H662.251V1881.59H633.761V1879.56C633.761 1878.38 633.993 1877.21 634.445 1876.12C634.896 1875.03 635.558 1874.04 636.392 1873.2C637.226 1872.37 638.216 1871.71 639.306 1871.26C640.396 1870.8 641.564 1870.57 642.744 1870.57Z" fill="#0F2024"/>
<path d="M694.319 1873.17L685.256 1873.16L680.942 1838.17H694.322L694.319 1873.17Z" fill="#A0616A"/>
<path d="M676.756 1870.57H696.263V1881.59H667.772V1879.56C667.772 1878.38 668.005 1877.21 668.456 1876.12C668.908 1875.03 669.569 1874.04 670.403 1873.2C671.238 1872.37 672.228 1871.71 673.318 1871.26C674.408 1870.8 675.576 1870.57 676.756 1870.57Z" fill="#0F2024"/>
<path d="M659.88 1855.53L649.901 1855.06C649.051 1855.02 648.249 1854.65 647.659 1854.04C647.07 1853.42 646.738 1852.6 646.732 1851.75C644.101 1811.11 640.457 1767.52 646.035 1750.69C646.032 1750.21 646.132 1749.73 646.329 1749.29C646.526 1748.86 646.816 1748.47 647.177 1748.15C647.538 1747.84 647.963 1747.6 648.423 1747.47C648.883 1747.33 649.366 1747.3 649.841 1747.37L689.764 1753.17C690.553 1753.28 691.276 1753.67 691.799 1754.27C692.323 1754.87 692.612 1755.64 692.614 1756.44C697.711 1776.37 697.941 1812.53 697.749 1850.09C697.752 1850.53 697.668 1850.96 697.503 1851.37C697.337 1851.78 697.092 1852.15 696.783 1852.46C696.474 1852.77 696.106 1853.02 695.7 1853.19C695.295 1853.36 694.86 1853.44 694.421 1853.44H683.663C682.869 1853.45 682.1 1853.16 681.497 1852.65C680.894 1852.13 680.496 1851.42 680.376 1850.63L673.738 1808.39C673.641 1807.78 673.324 1807.21 672.845 1806.81C672.366 1806.41 671.758 1806.19 671.134 1806.21C670.509 1806.22 669.909 1806.46 669.446 1806.87C668.982 1807.29 668.686 1807.87 668.612 1808.49L663.343 1852.6C663.243 1853.41 662.853 1854.15 662.245 1854.69C661.636 1855.23 660.852 1855.53 660.038 1855.54C659.986 1855.54 659.933 1855.54 659.88 1855.53Z" fill="#0F2024"/>
<path d="M666.905 1756.44C661.078 1753.02 654.619 1750.8 647.917 1749.93C647.476 1749.89 647.049 1749.76 646.661 1749.55C646.273 1749.33 645.932 1749.04 645.659 1748.69C645.38 1748.34 645.175 1747.94 645.057 1747.51C644.939 1747.07 644.909 1746.62 644.971 1746.18L654.537 1675.09C655.088 1670.93 656.692 1666.98 659.199 1663.62C661.705 1660.26 665.029 1657.59 668.855 1655.88C672.558 1654.17 676.635 1653.45 680.698 1653.76C684.762 1654.08 688.676 1655.44 692.069 1657.7C692.397 1657.92 692.718 1658.14 693.034 1658.37C696.941 1661.23 699.913 1665.19 701.576 1669.75C703.239 1674.3 703.518 1679.24 702.377 1683.96C696.511 1707.98 694.496 1747.35 694.152 1755.01C694.125 1755.66 693.905 1756.29 693.521 1756.81C693.138 1757.34 692.606 1757.74 691.994 1757.97C688.385 1759.28 684.576 1759.96 680.736 1759.98C675.899 1760.01 671.136 1758.79 666.905 1756.44Z" fill="#3F3D56"/>
<path d="M674.905 1646.22C684.935 1646.22 693.066 1638.09 693.066 1628.05C693.066 1618.01 684.935 1609.87 674.905 1609.87C664.875 1609.87 656.744 1618.01 656.744 1628.05C656.744 1638.09 664.875 1646.22 674.905 1646.22Z" fill="#A0616A"/>
<path d="M687.758 1642.43C686.999 1643.25 686.022 1643.83 684.941 1644.12C683.861 1644.4 682.723 1644.37 681.66 1644.02C680.597 1643.68 679.653 1643.04 678.941 1642.18C678.228 1641.32 677.776 1640.28 677.637 1639.17C677.602 1638.78 677.605 1638.4 677.644 1638.02C678.306 1635.91 678.705 1633.74 678.832 1631.54C678.763 1630.96 678.55 1630.41 678.211 1629.95C675.511 1626.33 669.173 1631.56 666.625 1628.29C665.063 1626.28 666.9 1623.12 665.701 1620.87C664.118 1617.91 659.431 1619.37 656.492 1617.75C653.222 1615.94 653.417 1610.92 655.57 1607.87C656.971 1606.06 658.753 1604.59 660.788 1603.55C662.823 1602.51 665.062 1601.94 667.344 1601.87C671.914 1601.76 676.453 1602.64 680.648 1604.46C685.601 1606.08 689.973 1609.11 693.218 1613.19C694.898 1615.86 695.962 1618.88 696.334 1622.01C696.706 1625.15 696.377 1628.33 695.369 1631.32C693.593 1635.49 691.006 1639.27 687.758 1642.43Z" fill="#0F2024"/>
<path d="M702.14 1660.1C701.822 1658.61 699.094 1656.56 695.19 1654.9C688.915 1652.35 682.128 1651.33 675.382 1651.91C668.636 1652.49 662.122 1654.65 656.371 1658.23C655.97 1658.25 655.586 1658.4 655.281 1658.66C654.975 1658.92 654.763 1659.28 654.677 1659.67L641.545 1717.81L639.837 1725.38L638.706 1730.39L636.998 1737.94L636.089 1741.97C636.03 1742.23 636.028 1742.5 636.081 1742.76C636.135 1743.02 636.243 1743.26 636.398 1743.47C636.554 1743.69 636.753 1743.87 636.982 1744C637.212 1744.13 637.467 1744.21 637.73 1744.23L694.436 1749.13C694.487 1749.13 694.547 1749.14 694.598 1749.14C695.066 1749.13 695.516 1748.95 695.856 1748.63C696.196 1748.31 696.402 1747.87 696.432 1747.41L696.972 1739.18L697.549 1730.39L697.8 1726.58L698.369 1717.81L702.148 1660.2V1660.15L702.14 1660.1Z" fill="#70B3C2"/>
<path d="M609.096 1663.76C609.186 1664.16 609.245 1664.57 609.273 1664.97L641.036 1683.32L648.757 1678.87L656.987 1689.65L640.471 1701.44L604.233 1672.82C602.755 1673.37 601.146 1673.45 599.619 1673.06C598.092 1672.67 596.72 1671.82 595.686 1670.63C594.651 1669.44 594.003 1667.97 593.828 1666.4C593.652 1664.83 593.958 1663.25 594.703 1661.86C595.449 1660.47 596.6 1659.34 598.002 1658.62C599.405 1657.9 600.993 1657.63 602.556 1657.83C604.118 1658.04 605.58 1658.72 606.749 1659.78C607.917 1660.84 608.736 1662.22 609.096 1663.76V1663.76Z" fill="#A0616A"/>
<path d="M642.17 1681.76C642.117 1681.26 642.176 1680.76 642.341 1680.3C642.507 1679.83 642.775 1679.4 643.126 1679.05L659.293 1662.87C660.894 1661.26 663.032 1660.31 665.295 1660.19C667.557 1660.07 669.783 1660.8 671.544 1662.22C673.304 1663.65 674.475 1665.68 674.83 1667.92C675.185 1670.16 674.699 1672.45 673.466 1674.35L661.953 1692.11C661.472 1692.85 660.717 1693.37 659.854 1693.55C658.992 1693.73 658.091 1693.57 657.351 1693.09L643.668 1684.2C643.252 1683.93 642.901 1683.57 642.642 1683.15C642.382 1682.73 642.221 1682.25 642.17 1681.76Z" fill="#3F3D56"/>
<path d="M698.367 1717.81L697.8 1726.58L639.834 1725.38L641.543 1717.81H698.367Z" fill="#9CC1C9"/>
<path d="M697.548 1730.39L696.97 1739.18L636.997 1737.94L638.706 1730.39H697.548Z" fill="#9CC1C9"/>
<path d="M675.261 1592.73C669.115 1592.73 663.21 1595.12 658.797 1599.41C654.384 1603.69 651.81 1609.52 651.619 1615.67H647.163C646.771 1615.67 646.395 1615.83 646.118 1616.11C645.84 1616.38 645.685 1616.76 645.685 1617.15V1623.07C645.685 1623.47 645.84 1623.84 646.118 1624.12C646.395 1624.4 646.771 1624.55 647.163 1624.55H697.444C697.836 1624.55 698.212 1624.4 698.489 1624.12C698.767 1623.84 698.923 1623.47 698.923 1623.07V1616.41C698.923 1613.3 698.311 1610.22 697.121 1607.35C695.932 1604.48 694.19 1601.86 691.992 1599.67C689.795 1597.47 687.187 1595.72 684.316 1594.53C681.445 1593.34 678.368 1592.73 675.261 1592.73Z" fill="#70B3C2"/>
<path d="M808.43 1833.68H803.359C803.326 1833.06 796.518 1817.07 796.518 1817.07L792.402 1807.1L789.682 1800.46L785.566 1790.5L780.854 1779.04C780.734 1778.52 780.442 1778.06 780.026 1777.73C779.611 1777.4 779.095 1777.22 778.565 1777.22C778.034 1777.22 777.519 1777.4 777.103 1777.73C776.688 1778.06 776.396 1778.52 776.275 1779.04L771.563 1790.5L767.448 1800.46L764.727 1807.1L760.612 1817.07C760.612 1817.07 753.803 1833.06 753.771 1833.68H748.699C747.379 1833.68 746.113 1834.2 745.18 1835.13C744.246 1836.07 743.722 1837.34 743.722 1838.66C743.722 1839.98 744.246 1841.25 745.18 1842.18C746.113 1843.12 747.379 1843.64 748.699 1843.64H808.43C809.75 1843.64 811.017 1843.12 811.95 1842.18C812.884 1841.25 813.408 1839.98 813.408 1838.66C813.408 1837.34 812.884 1836.07 811.95 1835.13C811.017 1834.2 809.75 1833.68 808.43 1833.68Z" fill="#FF6584"/>
<path d="M805.111 1920.04H803.146C803.326 1919.61 794.592 1897.25 794.592 1897.25L789.349 1884.46L785.831 1875.89L780.588 1863.1L774.881 1849.25C774.72 1848.6 774.345 1848.02 773.816 1847.6C773.287 1847.19 772.633 1846.96 771.96 1846.96C771.288 1846.96 770.634 1847.19 770.105 1847.6C769.575 1848.02 769.2 1848.6 769.04 1849.25L763.333 1863.1L758.09 1875.89L754.538 1884.46L749.296 1897.25C749.296 1897.25 740.595 1919.61 740.775 1920.04H738.743C737.423 1920.04 736.157 1920.56 735.224 1921.49C734.29 1922.43 733.766 1923.7 733.766 1925.02C733.766 1926.34 734.29 1927.61 735.224 1928.54C736.157 1929.48 737.423 1930 738.743 1930H805.111C806.431 1930 807.697 1929.48 808.631 1928.54C809.564 1927.61 810.089 1926.34 810.089 1925.02C810.089 1923.7 809.564 1922.43 808.631 1921.49C807.697 1920.56 806.431 1920.04 805.111 1920.04Z" fill="#FF6584"/>
<path d="M789.681 1800.46H767.447L771.562 1790.5H785.566L789.681 1800.46Z" fill="#2F4B51"/>
<path d="M796.517 1817.07H760.612L764.727 1807.1H792.403L796.517 1817.07Z" fill="#2F4B51"/>
<path d="M785.832 1875.89H758.09L763.333 1863.1H780.589L785.832 1875.89Z" fill="#2F4B51"/>
<path d="M794.592 1897.25H749.296L754.539 1884.46H789.349L794.592 1897.25Z" fill="#2F4B51"/>
<path d="M3197.76 1747.86C3197.77 1732.75 3203.77 1718.26 3214.46 1707.58C3225.14 1696.89 3239.62 1690.89 3254.72 1690.89C3269.82 1690.89 3284.3 1696.89 3294.98 1707.58C3305.66 1718.26 3311.67 1732.75 3311.68 1747.86" fill="#2F4B51"/>
<path d="M3254.72 1747.86C3254.31 1747.86 3253.92 1747.7 3253.63 1747.41C3253.34 1747.12 3253.18 1746.73 3253.18 1746.32V1716.28C3253.18 1715.87 3253.34 1715.47 3253.63 1715.19C3253.92 1714.9 3254.31 1714.73 3254.72 1714.73C3255.13 1714.73 3255.52 1714.9 3255.81 1715.19C3256.1 1715.47 3256.26 1715.87 3256.26 1716.28V1746.32C3256.26 1746.73 3256.1 1747.12 3255.81 1747.41C3255.52 1747.7 3255.13 1747.86 3254.72 1747.86Z" fill="#9CC1C9"/>
<path d="M3254.72 1737.54C3254.35 1737.54 3253.99 1737.41 3253.72 1737.17L3235.24 1721.3C3235.09 1721.17 3234.96 1721 3234.86 1720.82C3234.77 1720.64 3234.72 1720.45 3234.7 1720.24C3234.68 1720.04 3234.71 1719.84 3234.77 1719.64C3234.83 1719.45 3234.93 1719.27 3235.07 1719.12C3235.2 1718.96 3235.36 1718.83 3235.54 1718.74C3235.72 1718.65 3235.92 1718.6 3236.12 1718.58C3236.33 1718.57 3236.53 1718.59 3236.72 1718.66C3236.92 1718.72 3237.09 1718.82 3237.25 1718.96L3255.72 1734.83C3255.96 1735.03 3256.13 1735.31 3256.21 1735.61C3256.29 1735.92 3256.27 1736.24 3256.16 1736.53C3256.05 1736.83 3255.86 1737.08 3255.6 1737.26C3255.34 1737.44 3255.03 1737.54 3254.72 1737.54L3254.72 1737.54Z" fill="#9CC1C9"/>
<path d="M3373.26 1747.86C3373.27 1732.75 3379.28 1718.26 3389.96 1707.58C3400.64 1696.89 3415.12 1690.89 3430.22 1690.89C3445.32 1690.89 3459.8 1696.89 3470.48 1707.58C3481.16 1718.26 3487.17 1732.75 3487.18 1747.86" fill="#2F4B51"/>
<path d="M3430.22 1747.86C3429.81 1747.86 3429.42 1747.7 3429.13 1747.41C3428.84 1747.12 3428.68 1746.73 3428.68 1746.32V1716.28C3428.68 1715.87 3428.84 1715.47 3429.13 1715.19C3429.42 1714.9 3429.81 1714.73 3430.22 1714.73C3430.63 1714.73 3431.02 1714.9 3431.31 1715.19C3431.6 1715.47 3431.76 1715.87 3431.76 1716.28V1746.32C3431.76 1746.73 3431.6 1747.12 3431.31 1747.41C3431.02 1747.7 3430.63 1747.86 3430.22 1747.86Z" fill="#9CC1C9"/>
<path d="M3430.22 1737.54C3429.85 1737.54 3429.5 1737.41 3429.22 1737.17L3410.74 1721.3C3410.59 1721.17 3410.46 1721 3410.37 1720.82C3410.27 1720.64 3410.22 1720.45 3410.2 1720.24C3410.18 1720.04 3410.21 1719.84 3410.27 1719.64C3410.33 1719.45 3410.43 1719.27 3410.57 1719.11C3410.7 1718.96 3410.86 1718.83 3411.04 1718.74C3411.23 1718.65 3411.42 1718.6 3411.63 1718.58C3411.83 1718.57 3412.03 1718.59 3412.23 1718.66C3412.42 1718.72 3412.6 1718.82 3412.75 1718.96L3431.22 1734.83C3431.46 1735.03 3431.63 1735.31 3431.71 1735.61C3431.79 1735.92 3431.77 1736.24 3431.66 1736.53C3431.56 1736.83 3431.36 1737.08 3431.1 1737.26C3430.84 1737.44 3430.54 1737.54 3430.22 1737.54V1737.54Z" fill="#9CC1C9"/>
<defs>
<linearGradient id="paint0_linear" x1="0" y1="0" x2="4006.94" y2="1596.98" gradientUnits="userSpaceOnUse">
<stop stop-color="#2F4B51"/>
<stop offset="1" stop-color="#0F2024"/>
</linearGradient>
</defs>
</svg>
