<svg width="142" height="137" viewBox="0 0 142 137" fill="none" xmlns="http://www.w3.org/2000/svg">
<g clip-path="url(#clip0)">
<g opacity="0.5">
<path opacity="0.5" d="M86.8714 0.00189348L12.0542 34.0052L59.2081 137.003L134.025 102.999L86.8714 0.00189348Z" fill="url(#paint0_linear)"/>
</g>
<path d="M86.2656 1.19335L13.3521 34.3315L59.4638 135.053L132.377 101.915L86.2656 1.19335Z" fill="white"/>
<path d="M66.7734 6.83807L30.6021 23.2775L34.5987 32.0074L70.7701 15.568L66.7734 6.83807Z" fill="url(#paint1_linear)"/>
<path d="M44.7803 6.52578C41.9884 7.79513 40.7818 11.1332 42.0863 13.982C43.3908 16.8308 46.7121 18.1114 49.504 16.842C52.2959 15.5727 53.5025 12.2346 52.198 9.38581C50.8935 6.53697 47.5722 5.25643 44.7803 6.52578ZM48.5044 14.6598C47.9169 14.9438 47.2579 15.0469 46.6113 14.9559C45.9648 14.8649 45.3602 14.5839 44.8747 14.1489C44.3891 13.714 44.0448 13.1447 43.8855 12.5137C43.7262 11.8828 43.7593 11.2189 43.9805 10.6069C44.2017 9.99476 44.601 9.46226 45.1274 9.07734C45.6538 8.69242 46.2834 8.47256 46.9358 8.44583C47.5882 8.4191 48.2338 8.58672 48.7901 8.92727C49.3464 9.26783 49.7883 9.76588 50.0592 10.3578C50.2407 10.7421 50.3445 11.1583 50.3646 11.5825C50.3847 12.0068 50.3208 12.4308 50.1764 12.8305C50.032 13.2301 49.8101 13.5975 49.5232 13.9116C49.2363 14.2258 48.8901 14.4806 48.5044 14.6614V14.6598Z" fill="url(#paint2_linear)"/>
<path d="M66.3937 7.01778L30.9844 23.1108L34.8053 31.4568L70.2146 15.3637L66.3937 7.01778Z" fill="#288BA1"/>
<path d="M44.9541 6.90629C43.9749 7.35114 43.1502 8.07531 42.5841 8.98721C42.018 9.89911 41.736 10.9578 41.7739 12.0294C41.8117 13.1009 42.1676 14.1373 42.7966 15.0073C43.4256 15.8773 44.2994 16.542 45.3075 16.9172C46.3156 17.2924 47.4127 17.3613 48.4602 17.1152C49.5076 16.8692 50.4582 16.3191 51.1919 15.5347C51.9256 14.7503 52.4093 13.7667 52.5819 12.7083C52.7545 11.65 52.6083 10.5644 52.1616 9.58887C51.5628 8.28093 50.467 7.26355 49.1154 6.76048C47.7638 6.25741 46.2669 6.30986 44.9541 6.90629ZM48.5145 14.6838C47.9498 14.9404 47.3214 15.0243 46.7088 14.925C46.0962 14.8257 45.5269 14.5477 45.0728 14.1261C44.6188 13.7044 44.3004 13.1581 44.158 12.5562C44.0155 11.9544 44.0554 11.3239 44.2725 10.7446C44.4897 10.1652 44.8744 9.66309 45.3779 9.30157C45.8815 8.94005 46.4813 8.73541 47.1016 8.71352C47.7218 8.69163 48.3347 8.85348 48.8627 9.1786C49.3906 9.50372 49.81 9.97752 50.0677 10.5401C50.413 11.2946 50.4433 12.1548 50.152 12.9316C49.8607 13.7084 49.2717 14.3381 48.5145 14.6822V14.6838Z" fill="#288BA1"/>
<path d="M39.8594 41.9918L24.248 49.0869L31.3691 64.6413L46.9804 57.5462L39.8594 41.9918Z" fill="url(#paint3_linear)"/>
<path d="M54.0239 72.7917L38.4126 79.8868L45.5337 95.4413L61.1449 88.3461L54.0239 72.7917Z" fill="url(#paint4_linear)"/>
<path d="M39.5474 42.8206L25.0791 49.3962L31.6788 63.8118L46.147 57.2362L39.5474 42.8206Z" fill="#40A8BF"/>
<path d="M53.5288 73.3583L39.0605 79.934L45.6602 94.3495L60.1285 87.7739L53.5288 73.3583Z" fill="#288BA1"/>
<path d="M70.9352 33.9317L51.1035 42.9449L51.7348 44.3238L71.5664 35.3106L70.9352 33.9317Z" fill="#E0E0E0"/>
<path d="M84.7965 30.1307L52.0513 45.0129L52.6825 46.3918L85.4277 31.5096L84.7965 30.1307Z" fill="#E0E0E0"/>
<path d="M83.4353 33.2468L52.9966 47.0808L53.6278 48.4597L84.0665 34.6257L83.4353 33.2468Z" fill="#E0E0E0"/>
<path d="M84.9171 64.4709L65.0854 73.4841L65.7167 74.863L85.5483 65.8498L84.9171 64.4709Z" fill="#E0E0E0"/>
<path d="M98.7779 60.6684L66.0327 75.5507L66.664 76.9295L99.4091 62.0473L98.7779 60.6684Z" fill="#E0E0E0"/>
<path d="M97.4172 63.786L66.9785 77.62L67.6098 78.9989L98.0485 65.1649L97.4172 63.786Z" fill="#E0E0E0"/>
<path d="M31.9362 53.9488L35.6619 55.1542L36.8877 48.0098L38.7009 48.5038L36.6615 57.3364L31.0425 54.8825L31.9362 53.9488Z" fill="url(#paint5_linear)"/>
<path d="M32.411 53.8545L35.6505 54.9017L36.7159 48.6892L38.2916 49.1193L36.5186 56.7993L31.6328 54.6666L32.411 53.8545Z" fill="white"/>
<path d="M46.4799 84.5827L49.7194 85.6298L50.7848 79.4174L52.3604 79.8474L50.5874 87.5274L45.7017 85.3948L46.4799 84.5827Z" fill="white"/>
<path d="M108.675 85.3033L62.4136 106.329L69.4474 121.693L115.709 100.667L108.675 85.3033Z" fill="#E0E0E0"/>
<path d="M101.969 97.5479C100.191 97.0427 98.3716 97.1386 97.8052 99.1641C97.6143 99.8468 97.5918 100.907 96.857 101.258C95.7755 101.776 94.471 100.74 93.5324 100.318C91.7835 99.5318 89.988 100.067 88.9756 101.72C88.4621 102.558 88.2423 103.522 88.0674 104.477C87.992 104.891 87.9824 105.402 87.8075 105.792C87.4721 106.539 86.4228 106.472 85.7344 106.443C85.5836 106.443 85.4296 106.425 85.2756 106.409C85.8197 105.662 86.0915 104.753 86.0457 103.831C86.0008 102.317 85.014 100.66 83.2892 100.846C81.744 101.006 80.6561 102.493 80.8294 103.997C80.977 105.276 81.813 106.267 82.8848 106.875C82.3585 107.106 81.797 107.287 81.2996 107.527C81.0673 107.639 80.8417 107.764 80.624 107.902C79.1206 107.18 77.1455 107.044 75.7928 107.781C75.1382 108.137 75.6163 109.197 76.2742 108.838C77.3043 108.277 78.4403 108.417 79.5169 108.774L79.6068 108.806C79.5004 108.942 79.4064 109.087 79.326 109.239C78.7179 110.416 79.326 112.276 80.8054 112.404C82.8912 112.582 82.9891 109.835 81.8563 108.742C81.8082 108.695 81.76 108.651 81.7087 108.608C82.1772 108.382 82.6842 108.213 83.1319 108.022C83.5219 107.858 83.8931 107.652 84.239 107.408L84.3193 107.429C85.9125 107.789 88.3995 107.901 88.9724 105.978C89.4633 104.309 89.5099 100.764 92.1573 101.092C93.2372 101.225 94.1229 102.051 95.1498 102.35C96.0692 102.624 97.1329 102.635 97.8871 101.96C98.5096 101.404 98.6492 100.582 98.8402 99.8148C98.938 99.4183 99.0343 98.9451 99.3584 98.6621C99.9441 98.1522 100.912 98.4527 101.565 98.6382C102.279 98.8396 102.693 97.7525 101.969 97.5479ZM81.2707 111.071C80.9193 111.418 80.547 111.143 80.3593 110.78C80.1315 110.339 80.2293 109.904 80.5198 109.516C80.5672 109.452 80.6181 109.391 80.6722 109.333C81.3669 109.781 81.9349 110.422 81.2771 111.071H81.2707ZM82.5029 102.438C83.225 101.77 84.231 101.917 84.661 102.835C85.091 103.752 84.9017 105.047 84.2984 105.856C84.2184 105.962 84.1299 106.062 84.0336 106.154C83.6132 106.013 83.2245 105.792 82.8896 105.503C82.036 104.736 81.5531 103.317 82.5094 102.433L82.5029 102.438Z" fill="#288BA1"/>
<path d="M111.591 35.4442L98.6395 40.4752C96.2038 40.2945 91.079 39.6359 85.9926 37.2459C80.3303 34.5857 73.8432 34.5921 68.3429 37.3786C55.6672 37.6807 48.6908 36.0628 44.9683 34.5313L45.9502 32.5234L32.8221 27.4236L0 12.767V72.8388L11.4868 77.9385L17.6481 63.2115L31.179 69.4464L33.7767 62.8694L42.661 69.4384L43.2659 69.9451L42.4331 70.8068C41.6696 71.6103 41.2441 72.6747 41.2441 73.7812C41.2441 74.8876 41.6696 75.952 42.4331 76.7555C42.8026 77.1447 43.2479 77.4547 43.7417 77.6665C44.2355 77.8784 44.7676 77.9876 45.3052 77.9876C45.8429 77.9876 46.3749 77.8784 46.8687 77.6665C47.3626 77.4547 47.8078 77.1447 48.1773 76.7555L47.7216 77.2351C46.9581 78.0386 46.5326 79.103 46.5326 80.2094C46.5326 81.3159 46.9581 82.3803 47.7216 83.1838C48.0911 83.5729 48.5364 83.8829 49.0302 84.0948C49.524 84.3066 50.0561 84.4159 50.5937 84.4159C51.1314 84.4159 51.6634 84.3066 52.1572 84.0948C52.6511 83.8829 53.0963 83.5729 53.4658 83.1838L56.0972 80.458L54.2905 82.3285C53.527 83.1319 53.1015 84.1963 53.1015 85.3028C53.1015 86.4093 53.527 87.4737 54.2905 88.2771C54.66 88.6663 55.1053 88.9763 55.5991 89.1882C56.0929 89.4 56.625 89.5093 57.1626 89.5093C57.7003 89.5093 58.2323 89.4 58.7261 89.1882C59.22 88.9763 59.6652 88.6663 60.0347 88.2771L62.6324 85.5866L61.5397 86.7184C61.006 87.2797 60.7084 88.0235 60.7084 88.7967C60.7084 89.5699 61.006 90.3137 61.5397 90.875C61.7978 91.1467 62.1088 91.3631 62.4536 91.511C62.7985 91.6589 63.17 91.7352 63.5454 91.7352C63.9208 91.7352 64.2923 91.6589 64.6372 91.511C64.982 91.3631 65.293 91.1467 65.551 90.875L67.2839 89.0813C70.2603 91.2475 72.6687 92.8286 73.848 93.2378C78.7627 94.9356 78.7627 91.5352 78.7627 91.5352C85.3268 94.934 88.6096 88.1365 88.6096 88.1365C96.8151 91.5352 96.8151 83.0367 96.8151 83.0367C98.8657 84.4531 100.345 83.8041 101.378 82.5571C102.786 80.8657 102.957 78.4789 101.991 76.5637L109.834 69.3425L113.226 76.2519L126.757 70.0171L132.918 83.6266L141.992 79.59V20.1464L111.591 35.4442Z" fill="url(#paint6_linear)"/>
<path d="M109.412 66.9013L95.1286 79.55L84.0205 58.9943L109.412 52.6699V66.9013Z" fill="#BE7C5E"/>
<path d="M41.1721 33.6952C41.1721 33.6952 45.7562 40.0195 72.9111 38.4385L88.7814 62.1564L99.4162 74.0777C101.086 75.9514 101.181 78.7922 99.5413 80.6914C98.5449 81.8441 97.1121 82.45 95.1289 81.1311C95.1289 81.1311 95.1289 89.0365 87.1945 85.8743C87.1945 85.8743 84.0208 92.1987 77.6733 89.0365C77.6733 89.0365 77.6733 92.1987 72.9127 90.6176C68.1521 89.0365 42.759 68.4823 42.759 68.4823L31.6509 60.5769L41.1721 33.6952Z" fill="#FDA57D"/>
<path d="M98.3027 41.6023C98.3027 41.6023 91.445 41.6023 84.6643 38.5345C78.4981 35.748 71.3179 36.1029 65.6283 39.7607C60.9912 42.7422 56.9735 47.6789 57.0489 55.8321C57.0489 55.8321 63.2199 62.1565 69.7439 49.5078H74.5045C74.5045 49.5078 79.0886 65.3203 91.9616 63.736C104.835 62.1517 107.832 60.5738 107.832 60.5738L98.3027 41.6023Z" fill="#BE7C5E"/>
<path d="M56.6395 72.8238L56.1244 72.3106C54.7327 70.924 52.4763 70.924 51.0846 72.3106L47.3961 75.9856C46.0045 77.3723 46.0045 79.6204 47.3961 81.007L47.9112 81.5202C49.3029 82.9069 51.5593 82.9069 52.951 81.5202L56.6395 77.8452C58.0312 76.4586 58.0311 74.2104 56.6395 72.8238Z" fill="#BE7C5E"/>
<path d="M51.5247 66.8507L51.0096 66.3375C49.6179 64.9509 47.3616 64.9509 45.9699 66.3375L42.2814 70.0125C40.8897 71.3991 40.8897 73.6473 42.2814 75.0339L42.7965 75.5471C44.1882 76.9337 46.4446 76.9337 47.8362 75.5471L51.5247 71.8721C52.9164 70.4855 52.9164 68.2373 51.5247 66.8507Z" fill="#BE7C5E"/>
<path d="M63.7796 76.7754L63.2645 76.2622C61.8728 74.8755 59.6164 74.8755 58.2248 76.2622L53.7432 80.7274C52.3515 82.114 52.3515 84.3621 53.7432 85.7488L54.2583 86.262C55.65 87.6486 57.9064 87.6486 59.2981 86.262L63.7796 81.7968C65.1713 80.4101 65.1713 78.162 63.7796 76.7754Z" fill="#BE7C5E"/>
<path d="M67.5378 82.2768L67.1782 81.9185C66.2063 80.9501 64.6306 80.9501 63.6587 81.9185L60.8303 84.7366C59.8584 85.705 59.8584 87.2749 60.8303 88.2433L61.1899 88.6016C62.1618 89.5699 63.7375 89.5699 64.7094 88.6016L67.5378 85.7834C68.5097 84.8151 68.5097 83.2451 67.5378 82.2768Z" fill="#BE7C5E"/>
<path d="M125.281 70.0635L110.999 76.3878L96.7158 41.6023L109.412 36.859L125.281 70.0635Z" fill="white"/>
<path d="M17.3691 62.1581L31.651 68.4824L45.9344 33.6969L33.2378 28.952L17.3691 62.1581Z" fill="white"/>
<path d="M1.49854 14.7222L33.2375 28.952L12.6082 76.3878L1.49854 71.6446V14.7222Z" fill="#333333"/>
<path d="M141.151 22.6277L109.412 36.8591L130.043 84.2934L141.151 79.5501V22.6277Z" fill="#176F82"/>
</g>
<defs>
<linearGradient id="paint0_linear" x1="96.6174" y1="120.001" x2="49.7478" y2="16.8741" gradientUnits="userSpaceOnUse">
<stop stop-color="#808080" stop-opacity="0.25"/>
<stop offset="0.54" stop-color="#808080" stop-opacity="0.12"/>
<stop offset="1" stop-color="#808080" stop-opacity="0.1"/>
</linearGradient>
<linearGradient id="paint1_linear" x1="22824.4" y1="-8724.16" x2="22586" y2="-9248.78" gradientUnits="userSpaceOnUse">
<stop stop-color="#808080" stop-opacity="0.25"/>
<stop offset="0.54" stop-color="#808080" stop-opacity="0.12"/>
<stop offset="1" stop-color="#808080" stop-opacity="0.1"/>
</linearGradient>
<linearGradient id="paint2_linear" x1="6745.05" y1="-1733.29" x2="6413.26" y2="-2463.32" gradientUnits="userSpaceOnUse">
<stop stop-color="#808080" stop-opacity="0.25"/>
<stop offset="0.54" stop-color="#808080" stop-opacity="0.12"/>
<stop offset="1" stop-color="#808080" stop-opacity="0.1"/>
</linearGradient>
<linearGradient id="paint3_linear" x1="9244.73" y1="2070.75" x2="8487.87" y2="405.429" gradientUnits="userSpaceOnUse">
<stop stop-color="#808080" stop-opacity="0.25"/>
<stop offset="0.54" stop-color="#808080" stop-opacity="0.12"/>
<stop offset="1" stop-color="#808080" stop-opacity="0.1"/>
</linearGradient>
<linearGradient id="paint4_linear" x1="10785.2" y1="5386.65" x2="10028.2" y2="3721.17" gradientUnits="userSpaceOnUse">
<stop stop-color="#808080" stop-opacity="0.25"/>
<stop offset="0.54" stop-color="#808080" stop-opacity="0.12"/>
<stop offset="1" stop-color="#808080" stop-opacity="0.1"/>
</linearGradient>
<linearGradient id="paint5_linear" x1="4242.95" y1="1241.19" x2="4040.27" y2="795.22" gradientUnits="userSpaceOnUse">
<stop stop-color="#808080" stop-opacity="0.25"/>
<stop offset="0.54" stop-color="#808080" stop-opacity="0.12"/>
<stop offset="1" stop-color="#808080" stop-opacity="0.1"/>
</linearGradient>
<linearGradient id="paint6_linear" x1="85141.2" y1="49154.9" x2="85141.2" y2="8170.48" gradientUnits="userSpaceOnUse">
<stop stop-color="#808080" stop-opacity="0.25"/>
<stop offset="0.54" stop-color="#808080" stop-opacity="0.12"/>
<stop offset="1" stop-color="#808080" stop-opacity="0.1"/>
</linearGradient>
<clipPath id="clip0">
<rect width="142" height="137" fill="white"/>
</clipPath>
</defs>
</svg>
