<svg width="141" height="102" viewBox="0 0 141 102" fill="none" xmlns="http://www.w3.org/2000/svg">
<g clip-path="url(#clip0)">
<path d="M123.691 49.6835H122.436V99.3517H123.691V49.6835Z" fill="#3F3D56"/>
<path d="M135.274 56.0131C135.354 73.3808 123.157 87.5168 123.157 87.5168C123.157 87.5168 110.831 73.4941 110.751 56.1263C110.671 38.7585 122.868 24.6226 122.868 24.6226C122.868 24.6226 135.194 38.6453 135.274 56.0131Z" fill="#3F3D56"/>
<path d="M98.5943 73.0531H97.9487V98.5987H98.5943V73.0531Z" fill="#3F3D56"/>
<path d="M104.552 76.3086C104.593 85.2412 98.32 92.5117 98.32 92.5117C98.32 92.5117 91.9803 85.2995 91.9392 76.3668C91.8981 67.4342 98.1712 60.1637 98.1712 60.1637C98.1712 60.1637 104.511 67.3759 104.552 76.3086Z" fill="#3F3D56"/>
<path d="M111.318 102C120.977 102 128.808 100.797 128.808 99.3141C128.808 97.8308 120.977 96.6283 111.318 96.6283C101.659 96.6283 93.8281 97.8308 93.8281 99.3141C93.8281 100.797 101.659 102 111.318 102Z" fill="#3F3D56"/>
<path d="M112.761 36.7168C111.279 34.2085 108.347 34.0916 108.347 34.0916C108.347 34.0916 105.491 33.7256 103.658 37.5459C101.95 41.1066 99.5928 44.5446 103.279 45.3782L103.944 43.3022L104.357 45.5327C104.882 45.5705 105.408 45.5795 105.934 45.5597C109.881 45.432 113.64 45.5971 113.519 44.178C113.358 42.2916 114.186 39.1304 112.761 36.7168Z" fill="#2F2E41"/>
<path d="M107.425 41.4407C107.425 41.4407 109.34 44.1265 108.191 46.3008C107.042 48.475 110.872 50.7772 110.872 50.7772L113.68 44.6381C113.68 44.6381 110.361 42.4638 111.255 40.4175L107.425 41.4407Z" fill="#FBBEBE"/>
<path d="M108.701 42.5917C110.534 42.5917 112.02 41.1029 112.02 39.2664C112.02 37.4298 110.534 35.941 108.701 35.941C106.868 35.941 105.382 37.4298 105.382 39.2664C105.382 41.1029 106.868 42.5917 108.701 42.5917Z" fill="#FBBEBE"/>
<path d="M97.2144 43.1105L99.9882 39.525C99.9882 39.525 100.965 35.7668 102.38 35.9573C103.794 36.1478 101.821 40.4644 101.821 40.4644L99.0646 44.4331L97.2144 43.1105Z" fill="#FBBEBE"/>
<path d="M111.254 90.809L112.148 95.5412L114.063 96.0528L113.552 90.4253L111.254 90.809Z" fill="#FBBEBE"/>
<path d="M130.532 85.693L133.979 90.4252L135.383 91.0647L136.532 89.1462L133.085 84.6698L130.532 85.693Z" fill="#FBBEBE"/>
<path d="M110.488 48.7308L108.359 45.9222C108.359 45.9222 104.233 46.6844 103.85 47.0681C103.467 47.4518 104.871 54.4861 104.871 54.4861C104.871 54.4861 105.127 56.4046 106.275 57.4278L107.424 58.1952L116.872 56.2767L117.227 52.0656C117.356 50.5317 117.164 48.9877 116.663 47.5325C116.163 46.0772 115.364 44.7429 114.318 43.6149L112.675 43.84L110.488 48.7308Z" fill="#0A4D5C"/>
<path d="M104.361 47.3239L103.722 47.0681L100.786 46.8123C100.786 46.8123 99.7647 46.5565 100.02 46.0449C100.275 45.5333 100.531 45.4054 100.02 45.2775C99.5094 45.1496 99.3818 45.0217 99.5094 44.638C99.6371 44.2544 100.403 43.487 100.403 43.487L98.2328 41.6964C98.2328 41.6964 98.1153 41.7796 97.9255 41.9336C96.8479 42.8077 93.4385 45.9611 95.9349 49.1145C98.8711 52.8235 102.318 54.9977 105.127 54.2303L104.361 47.3239Z" fill="#0A4D5C"/>
<path d="M107.169 57.5557V59.3463C107.169 59.3463 106.02 61.5205 106.403 63.5669C106.786 65.6132 106.914 66.6364 106.914 66.6364C106.956 68.3768 107.257 70.1011 107.808 71.7523C108.701 74.3102 105.765 91.0647 109.467 91.3205C113.17 91.5763 115.212 91.8321 116.361 90.5532C117.51 89.2742 114.446 67.2759 114.446 67.2759C114.446 67.2759 124.915 89.1463 127.085 88.251C129.255 87.3557 134.745 85.3094 134.106 84.1583C133.468 83.0072 117.382 57.4278 117.382 57.4278L116.872 56.2767L107.169 57.5557Z" fill="#2F2E41"/>
<path d="M113.297 94.6459C113.297 94.6459 111.254 94.518 111.254 95.1575C111.254 95.797 110.233 97.9713 110.233 97.9713C110.233 97.9713 109.467 100.529 111.51 100.273C113.552 100.018 114.829 97.7155 114.829 97.7155L114.318 95.2854L113.297 94.6459Z" fill="#2F2E41"/>
<path d="M134.617 90.1696C134.617 90.1696 132.83 89.0185 132.957 89.7859C133.085 90.5533 133.213 92.5996 134.106 92.7275C135 92.8554 137.681 93.6228 137.808 93.8786C137.936 94.1344 141 95.1576 141 93.4949C141 91.8322 139.085 90.5533 139.085 90.5533L136.915 88.8906C136.915 88.8906 135.51 88.7627 135.255 89.658C135 90.5533 134.617 90.1696 134.617 90.1696Z" fill="#2F2E41"/>
<path d="M108.706 36.228C109.877 36.228 110.826 35.2772 110.826 34.1044C110.826 32.9316 109.877 31.9808 108.706 31.9808C107.535 31.9808 106.586 32.9316 106.586 34.1044C106.586 35.2772 107.535 36.228 108.706 36.228Z" fill="#2F2E41"/>
<path d="M106.363 33.5456C106.363 33.0211 106.557 32.5152 106.907 32.1253C107.257 31.7354 107.739 31.4892 108.26 31.4339C108.186 31.4261 108.111 31.4221 108.037 31.422C107.475 31.422 106.935 31.6457 106.538 32.044C106.14 32.4422 105.917 32.9824 105.917 33.5456C105.917 34.1088 106.14 34.6489 106.538 35.0472C106.935 35.4454 107.475 35.6691 108.037 35.6691C108.111 35.6691 108.186 35.6651 108.26 35.6572C107.739 35.602 107.257 35.3557 106.907 34.9658C106.557 34.576 106.363 34.07 106.363 33.5456Z" fill="#2F2E41"/>
<path d="M112.106 36.4751L109.21 34.9552L105.21 35.577L104.382 39.2385L106.442 39.1591L107.018 37.814V39.1369L107.968 39.1004L108.52 36.9587L108.865 39.2385L112.244 39.1694L112.106 36.4751Z" fill="#2F2E41"/>
<path d="M111.932 57.852L107.465 57.973C107.465 57.973 103.654 58.7159 103.868 57.1748C104.082 55.6337 107.8 56.1727 107.8 56.1727L111.87 55.5507L111.932 57.852Z" fill="#FBBEBE"/>
<path d="M115.466 43.3981C115.691 43.364 115.92 43.4114 116.113 43.5316C116.306 43.6519 116.449 43.8371 116.518 44.0539C117.392 46.8145 120.086 56.0524 117.409 57.3198C114.257 58.8126 111.956 58.747 111.956 58.747L110.725 55.7097L111.846 54.6557L113.043 46.9467L113.616 43.6788L115.466 43.3981Z" fill="#0A4D5C"/>
<path opacity="0.4" d="M114.638 48.5389L114.127 53.6548L109.659 55.5733L114.638 54.4222V48.5389Z" fill="black"/>
<path d="M90.5405 31.6498C91.9796 32.0318 93.2248 32.938 94.0324 34.191L94.45 34.8389L94.471 34.8657L101.797 37.0133C101.931 37.0527 102.045 37.1433 102.113 37.2656C102.181 37.388 102.199 37.5323 102.162 37.6675L101.593 39.7567C101.575 39.8248 101.543 39.8885 101.5 39.9442C101.457 39.9999 101.403 40.0465 101.342 40.0813C101.28 40.1161 101.213 40.1384 101.143 40.147C101.073 40.1555 101.002 40.1502 100.934 40.1312L93.6067 38.0792L93.6065 38.0794L92.8705 38.3582C91.5154 38.8715 90.0289 38.9221 88.6421 38.5021L90.5405 31.6498Z" fill="#3F3D56"/>
<path d="M98.2558 37.7087C98.3251 37.4711 98.021 37.1729 97.5763 37.0426C97.1317 36.9122 96.715 36.9992 96.6457 37.2367C96.5763 37.4743 96.8804 37.7725 97.3251 37.9029C97.7697 38.0332 98.1864 37.9463 98.2558 37.7087Z" fill="#0A4D5C"/>
<path d="M97.8818 37.9278C98.0516 37.9278 98.1894 37.7898 98.1894 37.6196C98.1894 37.4495 98.0516 37.3115 97.8818 37.3115C97.7119 37.3115 97.5742 37.4495 97.5742 37.6196C97.5742 37.7898 97.7119 37.9278 97.8818 37.9278Z" fill="#3F3D56"/>
<path d="M91.1533 35.607C91.7642 33.7195 91.5688 31.9651 90.7168 31.6883C89.8648 31.4116 88.679 32.7173 88.0681 34.6047C87.4572 36.4921 87.6526 38.2466 88.5045 38.5233C89.3565 38.8001 90.5424 37.4944 91.1533 35.607Z" fill="#288BA1"/>
<path opacity="0.4" d="M90.9255 35.5403C91.5141 33.7216 91.354 32.0267 90.5794 31.658C90.626 31.6638 90.672 31.674 90.7167 31.6884C91.5687 31.9652 91.7641 33.7196 91.1532 35.607C90.5423 37.4945 89.3564 38.8002 88.5045 38.5234C88.4736 38.5133 88.4434 38.5012 88.4141 38.4871C89.2521 38.594 90.3468 37.3283 90.9255 35.5403Z" fill="black"/>
<path d="M90.6369 31.6565L74.0103 18.7356C71.0702 16.4343 68.2488 13.9847 65.5571 11.3962C60.8175 6.87021 54.3835 3.2516 46.8925 1.32502C28.6927 -3.35572 14.2748 4.9438 7.71707 17.1303C-2.3038 35.7527 -9.98346 65.9717 34.449 49.8861C44.1663 46.3682 54.0025 45.9943 61.4607 44.1413L88.4666 38.563L90.6369 31.6565Z" fill="#288BA1"/>
<path d="M40.7203 9.91397C41.2138 9.91397 41.6139 9.51314 41.6139 9.01869C41.6139 8.52424 41.2138 8.12341 40.7203 8.12341C40.2268 8.12341 39.8267 8.52424 39.8267 9.01869C39.8267 9.51314 40.2268 9.91397 40.7203 9.91397Z" fill="#F2F2F2"/>
<path d="M58.08 11.088H57.8474V10.855H57.8019V11.088H57.5693V11.1335H57.8019V11.3666H57.8474V11.1335H58.08V11.088Z" fill="#F2F2F2"/>
<path d="M81.4423 30.5284H81.2097V30.2954H81.1642V30.5284H80.9316V30.574H81.1642V30.807H81.2097V30.574H81.4423V30.5284Z" fill="#F2F2F2"/>
<path d="M79.7826 36.5396H79.55V36.3065H79.5046V36.5396H79.272V36.5851H79.5046V36.8181H79.55V36.5851H79.7826V36.5396Z" fill="#F2F2F2"/>
<path d="M8.41885 41.6555H8.18625V41.4225H8.1408V41.6555H7.9082V41.701H8.1408V41.9341H8.18625V41.701H8.41885V41.6555Z" fill="#F2F2F2"/>
<path d="M18.6322 13.7739H18.3996V13.5409H18.3542V13.7739H18.1216V13.8195H18.3542V14.0525H18.3996V13.8195H18.6322V13.7739Z" fill="#F2F2F2"/>
<path d="M58.3354 37.5627H58.1028V37.3297H58.0573V37.5627H57.8247V37.6083H58.0573V37.8413H58.1028V37.6083H58.3354V37.5627Z" fill="#F2F2F2"/>
<path d="M33.9516 5.58838H33.719V5.35535H33.6735V5.58838H33.4409V5.63391H33.6735V5.86694H33.719V5.63391H33.9516V5.58838Z" fill="#F2F2F2"/>
<path d="M34.0413 24.0029L33.7515 24.0477C33.8421 24.6283 33.9136 25.2218 33.9659 25.8088L34.2583 25.7833C34.2059 25.1885 34.1332 24.59 34.0413 24.0029Z" fill="#E6E6E6"/>
<path d="M33.2486 20.5061L32.9678 20.5918C33.1376 21.1545 33.2895 21.7314 33.4184 22.3056L33.7057 22.2404C33.5742 21.6597 33.4197 21.0765 33.2486 20.5061Z" fill="#E6E6E6"/>
<path d="M31.9831 17.1526L31.7163 17.2754C31.9614 17.8113 32.1912 18.3612 32.3993 18.9112L32.6738 18.8076C32.4631 18.2512 32.2321 17.6936 31.9831 17.1526Z" fill="#E6E6E6"/>
<path d="M30.2726 14.0089L30.0249 14.1662C30.3402 14.6625 30.6428 15.1766 30.9237 15.692L31.1815 15.5513C30.8981 15.0295 30.5917 14.5103 30.2726 14.0089Z" fill="#E6E6E6"/>
<path d="M28.1458 11.1274L27.9224 11.318C28.3028 11.7656 28.673 12.2338 29.0228 12.707L29.2577 12.5318C28.9054 12.0534 28.5313 11.5802 28.1458 11.1274Z" fill="#E6E6E6"/>
<path d="M25.646 8.56189L25.4507 8.78059C25.8898 9.17324 26.3201 9.58635 26.7299 10.0071L26.9405 9.80122C26.5256 9.37532 26.0903 8.95837 25.646 8.56189Z" fill="#E6E6E6"/>
<path d="M22.8219 6.35938L22.6572 6.60238C23.1449 6.93107 23.6275 7.28151 24.0909 7.64346L24.2722 7.41196C23.8024 7.04618 23.3147 6.69191 22.8219 6.35938Z" fill="#E6E6E6"/>
<path d="M20.2524 4.82971V5.16224C20.5576 5.32212 20.8601 5.48966 21.1563 5.66104L21.3031 5.40653C20.9584 5.207 20.6082 5.01473 20.2524 4.82971Z" fill="#E6E6E6"/>
<path d="M34.061 27.6231L34.3545 27.6178C34.3599 27.9147 34.3603 28.2131 34.3557 28.5049L34.0623 28.5003C34.0667 28.2118 34.0663 27.9167 34.061 27.6231Z" fill="#E6E6E6"/>
<path d="M16.8069 49.1986L16.5171 49.2434C16.6077 49.824 16.6792 50.4175 16.7316 51.0045L17.0239 50.979C16.9716 50.3842 16.8988 49.7857 16.8069 49.1986Z" fill="#E6E6E6"/>
<path d="M16.0138 45.7019L15.7329 45.7876C15.9027 46.3503 16.0546 46.9272 16.1836 47.5014L16.4708 47.4362C16.3393 46.8555 16.1848 46.2723 16.0138 45.7019Z" fill="#E6E6E6"/>
<path d="M14.7487 42.3484L14.4819 42.4712C14.727 43.0071 14.9568 43.557 15.1649 44.107L15.4394 44.0034C15.2288 43.447 14.9977 42.8894 14.7487 42.3484Z" fill="#E6E6E6"/>
<path d="M13.0382 39.2047L12.7905 39.362C13.1059 39.8583 13.4084 40.3724 13.6893 40.8878L13.9472 40.7472C13.6638 40.2253 13.3574 39.7061 13.0382 39.2047Z" fill="#E6E6E6"/>
<path d="M10.9114 36.3232L10.688 36.5138C11.0684 36.9614 11.4386 37.4296 11.7884 37.9028L12.0234 37.7276C11.671 37.2492 11.2969 36.776 10.9114 36.3232Z" fill="#E6E6E6"/>
<path d="M8.41163 33.7576L8.21631 33.9763C8.65547 34.3689 9.08569 34.782 9.49549 35.2028L9.70614 34.9969C9.29124 34.571 8.8559 34.154 8.41163 33.7576Z" fill="#E6E6E6"/>
<path d="M5.58754 31.5552L5.42285 31.7982C5.91052 32.1269 6.39309 32.4773 6.85651 32.8393L7.03779 32.6078C6.56799 32.242 6.08032 31.8877 5.58754 31.5552Z" fill="#E6E6E6"/>
<path d="M3.01807 30.0255V30.358C3.32318 30.5179 3.62574 30.6855 3.92192 30.8568L4.06874 30.6023C3.72404 30.4028 3.37382 30.2105 3.01807 30.0255Z" fill="#E6E6E6"/>
<path d="M16.8267 52.8188L17.1201 52.8135C17.1255 53.1103 17.1259 53.4088 17.1213 53.7006L16.8279 53.696C16.8323 53.4075 16.832 53.1124 16.8267 52.8188Z" fill="#E6E6E6"/>
<path d="M75.7873 36.5367L75.4976 36.5815C75.5882 37.1622 75.6597 37.7556 75.712 38.3427L76.0044 38.3171C75.952 37.7224 75.8793 37.1238 75.7873 36.5367Z" fill="#E6E6E6"/>
<path d="M74.9942 33.04L74.7134 33.1257C74.8832 33.6885 75.0351 34.2653 75.164 34.8396L75.4513 34.7743C75.3198 34.1937 75.1653 33.6105 74.9942 33.04Z" fill="#E6E6E6"/>
<path d="M73.7292 29.6866L73.4624 29.8094C73.7075 30.3453 73.9373 30.8953 74.1454 31.4452L74.4199 31.3416C74.2092 30.7853 73.9782 30.2277 73.7292 29.6866Z" fill="#E6E6E6"/>
<path d="M72.0187 26.5428L71.771 26.7002C72.0863 27.1964 72.3889 27.7105 72.6697 28.226L72.9276 28.0853C72.6442 27.5635 72.3378 27.0442 72.0187 26.5428Z" fill="#E6E6E6"/>
<path d="M69.8919 23.6614L69.6685 23.8519C70.0489 24.2996 70.4191 24.7677 70.7689 25.2409L71.0038 25.0657C70.6515 24.5874 70.2774 24.1141 69.8919 23.6614Z" fill="#E6E6E6"/>
<path d="M67.3921 21.0957L67.1968 21.3144C67.6359 21.707 68.0662 22.1202 68.476 22.5409L68.6866 22.335C68.2717 21.9091 67.8364 21.4922 67.3921 21.0957Z" fill="#E6E6E6"/>
<path d="M64.568 18.8933L64.4033 19.1363C64.891 19.465 65.3736 19.8155 65.837 20.1774L66.0183 19.9459C65.5485 19.5801 65.0608 19.2258 64.568 18.8933Z" fill="#E6E6E6"/>
<path d="M61.998 17.3636V17.6962C62.3032 17.8561 62.6057 18.0236 62.9019 18.195L63.0487 17.9405C62.704 17.7409 62.3538 17.5487 61.998 17.3636Z" fill="#E6E6E6"/>
<path d="M75.8066 40.157L76.1001 40.1516C76.1055 40.4485 76.1059 40.7469 76.1013 41.0387L75.8079 41.0341C75.8123 40.7456 75.8119 40.4505 75.8066 40.157Z" fill="#E6E6E6"/>
<path d="M19.0591 25.566H18.8428V25.3491H18.8005V25.566H18.584V25.6082H18.8005V25.8252H18.8428V25.6082H19.0591V25.566Z" fill="#F2F2F2"/>
<path d="M16.5645 38.6572H16.3481V38.4403H16.3059V38.6572H16.0894V38.6996H16.3059V38.9163H16.3481V38.6996H16.5645V38.6572Z" fill="#F2F2F2"/>
<path d="M9.24518 50.1305H9.02867V49.9137H8.98641V50.1305H8.77002V50.1728H8.98641V50.3897H9.02867V50.1728H9.24518V50.1305Z" fill="#F2F2F2"/>
<path d="M29.6073 35.5788C27.5145 32.4622 26.6058 28.6974 27.046 24.9672C27.4862 21.2369 29.2462 17.7882 32.0068 15.2464C34.7674 12.7047 38.3458 11.2382 42.0931 11.1129C45.8404 10.9876 49.5084 12.2118 52.432 14.5635C55.3556 16.9152 57.3412 20.2387 58.0287 23.9312C58.7162 27.6238 58.0601 31.4409 56.1793 34.6904C54.2985 37.9399 51.3177 40.4066 47.7773 41.6431C44.2369 42.8796 40.3714 42.8041 36.8818 41.4303C36.6556 42.2393 36.2326 42.9795 35.6509 43.5845C35.0691 44.1896 34.3466 44.6407 33.5481 44.8974C32.7497 45.1541 31.9001 45.2085 31.0755 45.0556C30.2509 44.9028 29.477 44.5474 28.8231 44.0215C28.1692 43.4955 27.6557 42.8152 27.3286 42.0417C27.0014 41.2681 26.8709 40.4253 26.9486 39.5888C27.0263 38.7523 27.3098 37.9482 27.7738 37.2484C28.2378 36.5485 28.8678 35.9749 29.6073 35.5788Z" fill="#3F3D56"/>
<path d="M42.5281 17.8336C46.1224 17.8336 48.5952 19.8309 48.5952 22.7019C48.5952 24.6032 47.6751 25.9187 45.9019 26.9653C44.2342 27.9351 43.6687 28.6457 43.6687 29.8748C43.6687 29.9744 43.6491 30.073 43.6111 30.1651C43.573 30.2571 43.5172 30.3407 43.4469 30.4112C43.3766 30.4816 43.2931 30.5375 43.2013 30.5756C43.1094 30.6137 43.011 30.6333 42.9115 30.6333H41.0741C40.8778 30.6333 40.6892 30.557 40.5481 30.4204C40.4069 30.2838 40.3242 30.0977 40.3173 29.9012L40.3141 29.8075C40.1511 27.8295 40.8412 26.6004 42.5761 25.5826C44.1959 24.6128 44.8764 23.9982 44.8764 22.8076C44.8764 21.6169 43.7262 20.7431 42.2981 20.7431C41.2126 20.7431 40.3536 21.2724 39.9596 22.1366C39.8211 22.4291 39.6019 22.6758 39.3279 22.8475C39.0539 23.0192 38.7365 23.1086 38.4133 23.1052C37.1684 23.1052 36.3459 21.7789 36.9282 20.6764C37.8492 18.9324 39.7924 17.8336 42.5281 17.8336ZM40.0074 34.2918C40.0074 33.1875 40.9275 32.3137 42.0585 32.3137C43.199 32.3137 44.1192 33.1779 44.1192 34.2918C44.1192 35.4056 43.199 36.2698 42.0585 36.2698C40.9179 36.2698 40.0074 35.4056 40.0074 34.2918Z" fill="#288BA1"/>
</g>
<defs>
<clipPath id="clip0">
<rect width="141" height="102" fill="white"/>
</clipPath>
</defs>
</svg>
