<svg width="142" height="117" viewBox="0 0 142 117" fill="none" xmlns="http://www.w3.org/2000/svg">
<g clip-path="url(#clip0)">
<path d="M26.7754 90.5986C26.7754 90.5986 79.6112 46.53 110.041 90.5986H26.7754Z" fill="#F2F2F2"/>
<path d="M113.476 117C126.991 117 137.948 115.294 137.948 113.189C137.948 111.084 126.991 109.377 113.476 109.377C99.9611 109.377 89.0049 111.084 89.0049 113.189C89.0049 115.294 99.9611 117 113.476 117Z" fill="#F2F2F2"/>
<path d="M117.449 115.571C130.964 115.571 141.92 113.864 141.92 111.759C141.92 109.655 130.964 107.948 117.449 107.948C103.934 107.948 92.9775 109.655 92.9775 111.759C92.9775 113.864 103.934 115.571 117.449 115.571Z" stroke="#3F3D56" stroke-miterlimit="10"/>
<path d="M127.856 72.328C128.215 72.4585 128.6 72.5039 128.979 72.4605C129.359 72.4171 129.723 72.2862 130.044 72.078C130.364 71.8699 130.632 71.5902 130.826 71.261C131.019 70.9319 131.134 70.5622 131.161 70.1812C131.187 69.8002 131.125 69.4183 130.978 69.0655C130.832 68.7127 130.605 68.3987 130.317 68.1483C130.028 67.8979 129.685 67.7179 129.315 67.6225C128.945 67.5271 128.558 67.5189 128.184 67.5985L128.246 68.8678L127.645 67.78C127.056 68.0569 126.6 68.5565 126.379 69.169C126.3 69.3835 126.252 69.6081 126.237 69.8361C126.199 70.3709 126.336 70.9035 126.628 71.3532C126.921 71.8029 127.351 72.1451 127.856 72.328Z" fill="#57B894"/>
<path d="M130.829 87.0495C130.617 85.97 131.536 85.013 132.444 84.391C133.351 83.769 134.412 83.1578 134.722 82.1022C135.167 80.5851 133.841 79.1957 132.809 77.9975C132.043 77.1083 131.386 76.1316 130.85 75.0877C130.617 74.6777 130.458 74.2298 130.381 73.7646C130.3 73.0921 130.516 72.423 130.734 71.7815C131.459 69.6446 132.235 67.5256 133.061 65.4246" stroke="#3F3D56" stroke-miterlimit="10"/>
<path d="M127.957 72.0012C128.317 72.1317 128.701 72.1771 129.081 72.1337C129.46 72.0903 129.825 71.9594 130.145 71.7512C130.466 71.5431 130.733 71.2634 130.927 70.9342C131.121 70.6051 131.236 70.2354 131.262 69.8544C131.289 69.4734 131.226 69.0915 131.08 68.7387C130.933 68.3859 130.707 68.072 130.418 67.8216C130.13 67.5711 129.787 67.3911 129.417 67.2957C129.047 67.2003 128.66 67.1921 128.286 67.2717L128.348 68.541L127.747 67.4532C127.157 67.7301 126.701 68.2297 126.48 68.8422C126.402 69.0568 126.354 69.2813 126.338 69.5093C126.3 70.0441 126.438 70.5767 126.73 71.0264C127.022 71.4761 127.453 71.8183 127.957 72.0012V72.0012Z" stroke="#3F3D56" stroke-miterlimit="10"/>
<path d="M130.527 64.9862C130.668 64.5976 130.905 64.2506 131.215 63.9773C131.526 63.704 131.9 63.5132 132.303 63.4225L132.507 64.6291L132.883 63.3618C133.406 63.3696 133.913 63.5432 134.331 63.8577C134.749 64.1722 135.056 64.6112 135.208 65.1115C135.36 65.6117 135.348 66.1472 135.176 66.6406C135.003 67.1341 134.678 67.56 134.248 67.8569C133.817 68.1537 133.304 68.3062 132.781 68.2922C132.258 68.2782 131.753 68.0985 131.339 67.7791C130.925 67.4596 130.623 67.0169 130.477 66.5149C130.331 66.013 130.349 65.4776 130.527 64.9862H130.527Z" fill="#57B894"/>
<path d="M130.663 64.5505C130.804 64.1618 131.04 63.8148 131.351 63.5415C131.661 63.2683 132.035 63.0774 132.439 62.9867L132.642 64.1933L133.019 62.926C133.542 62.9338 134.049 63.1074 134.466 63.4219C134.884 63.7364 135.191 64.1754 135.343 64.6757C135.495 65.1759 135.484 65.7114 135.311 66.2048C135.139 66.6983 134.814 67.1242 134.383 67.4211C133.953 67.7179 133.439 67.8704 132.916 67.8564C132.393 67.8424 131.888 67.6627 131.474 67.3432C131.06 67.0238 130.758 66.5811 130.613 66.0791C130.467 65.5772 130.484 65.0418 130.663 64.5505V64.5505Z" stroke="#3F3D56" stroke-miterlimit="10"/>
<path d="M132.376 78.022C132.946 78.2285 133.571 78.2183 134.134 77.9934C134.696 77.7685 135.156 77.3445 135.426 76.8024C135.696 76.2602 135.757 75.6378 135.597 75.0537C135.437 74.4696 135.068 73.9647 134.56 73.6352L134.27 74.6091L134.065 73.3882C134.063 73.3873 134.061 73.3865 134.059 73.3859C133.754 73.2754 133.431 73.226 133.107 73.2405C132.783 73.255 132.466 73.333 132.172 73.4702C131.879 73.6074 131.615 73.801 131.396 74.0399C131.178 74.2789 131.008 74.5586 130.898 74.863C130.787 75.1674 130.738 75.4906 130.752 75.8141C130.767 76.1376 130.845 76.4551 130.982 76.7485C131.12 77.0418 131.313 77.3053 131.552 77.5238C131.792 77.7423 132.071 77.9116 132.376 78.022Z" fill="#57B894"/>
<path d="M132.494 77.5806C133.063 77.7871 133.689 77.7769 134.252 77.552C134.814 77.327 135.274 76.9031 135.544 76.361C135.814 75.8188 135.875 75.1964 135.715 74.6123C135.555 74.0282 135.186 73.5233 134.677 73.1938L134.388 74.1677L134.183 72.9468C134.181 72.9459 134.179 72.9451 134.177 72.9444C133.561 72.7214 132.883 72.7518 132.29 73.0288C131.697 73.3058 131.239 73.8068 131.016 74.4216C130.792 75.0364 130.823 75.7146 131.1 76.307C131.377 76.8995 131.878 77.3576 132.494 77.5806V77.5806Z" stroke="#3F3D56" stroke-miterlimit="10"/>
<path d="M129.807 82.1173C129.905 82.6742 130.191 83.1806 130.619 83.5514C131.046 83.9222 131.588 84.135 132.153 84.154C132.718 84.1731 133.273 83.9972 133.724 83.6559C134.176 83.3146 134.496 82.8287 134.631 82.2797C134.766 81.7306 134.708 81.1517 134.467 80.6402C134.226 80.1287 133.816 79.7156 133.306 79.4702C132.797 79.2248 132.218 79.162 131.667 79.2924C131.117 79.4227 130.628 79.7383 130.282 80.1862L131.382 81.8399L129.88 80.9622C129.763 81.3359 129.738 81.732 129.807 82.1173Z" fill="#57B894"/>
<path d="M129.909 81.7904C130.007 82.3473 130.294 82.8537 130.721 83.2245C131.148 83.5953 131.69 83.8081 132.255 83.8271C132.821 83.8461 133.375 83.6703 133.827 83.329C134.278 82.9877 134.598 82.5018 134.733 81.9527C134.868 81.4037 134.81 80.8248 134.569 80.3133C134.328 79.8018 133.918 79.3887 133.408 79.1433C132.899 78.8979 132.32 78.8351 131.769 78.9655C131.219 79.0958 130.73 79.4114 130.385 79.8593L131.484 81.513L129.982 80.6353C129.865 81.009 129.84 81.4051 129.909 81.7904V81.7904Z" stroke="#3F3D56" stroke-miterlimit="10"/>
<path d="M127.403 88.5116C127.403 88.5116 129.58 87.6588 130.237 87.1918C130.893 86.7248 133.586 86.1671 133.749 86.9161C133.912 87.6651 137.021 90.6412 134.563 90.661C132.104 90.6808 128.851 91.0641 128.196 90.6653C127.541 90.2666 127.403 88.5116 127.403 88.5116Z" fill="#656380"/>
<path opacity="0.2" d="M134.607 90.4004C132.148 90.4203 128.895 90.8035 128.24 90.4048C127.741 90.1012 127.542 89.0116 127.476 88.5089C127.429 88.5109 127.403 88.5118 127.403 88.5118C127.403 88.5118 127.541 90.2668 128.196 90.6655C128.851 91.0643 132.104 90.681 134.563 90.6612C135.272 90.6554 135.518 90.4031 135.504 90.0294C135.405 90.2552 135.135 90.3962 134.607 90.4004Z" fill="black"/>
<path d="M32.9173 65.5867H27.1492C26.1092 65.5867 25.2661 66.4292 25.2661 67.4686V88.796C25.2661 89.8354 26.1092 90.678 27.1492 90.678H32.9173C33.9573 90.678 34.8004 89.8354 34.8004 88.796V67.4686C34.8004 66.4292 33.9573 65.5867 32.9173 65.5867Z" fill="#6C63FF"/>
<path d="M51.032 50.5001H45.264C44.224 50.5001 43.3809 51.3427 43.3809 52.3821V88.796C43.3809 89.8354 44.224 90.6779 45.264 90.6779H51.032C52.0721 90.6779 52.9151 89.8354 52.9151 88.796V52.3821C52.9151 51.3427 52.0721 50.5001 51.032 50.5001Z" fill="#6C63FF"/>
<path d="M69.1473 40.019H63.3792C62.3392 40.019 61.4961 40.8616 61.4961 41.901V88.7961C61.4961 89.8354 62.3392 90.678 63.3792 90.678H69.1473C70.1873 90.678 71.0304 89.8354 71.0304 88.7961V41.901C71.0304 40.8616 70.1873 40.019 69.1473 40.019Z" fill="#6C63FF"/>
<path d="M87.2625 30.0143H81.4944C80.4544 30.0143 79.6113 30.8569 79.6113 31.8962V88.7961C79.6113 89.8354 80.4544 90.678 81.4944 90.678H87.2625C88.3025 90.678 89.1456 89.8354 89.1456 88.7961V31.8962C89.1456 30.8569 88.3025 30.0143 87.2625 30.0143Z" fill="#6C63FF"/>
<path d="M105.378 12.5457H99.6097C98.5697 12.5457 97.7266 13.3882 97.7266 14.4276V88.7961C97.7266 89.8354 98.5697 90.678 99.6097 90.678H105.378C106.418 90.678 107.261 89.8354 107.261 88.7961V14.4276C107.261 13.3882 106.418 12.5457 105.378 12.5457Z" fill="#6C63FF"/>
<path d="M34.1883 64.3163H28.4202C27.3802 64.3163 26.5371 65.1589 26.5371 66.1982V87.5256C26.5371 88.565 27.3802 89.4076 28.4202 89.4076H34.1883C35.2283 89.4076 36.0714 88.565 36.0714 87.5256V66.1982C36.0714 65.1589 35.2283 64.3163 34.1883 64.3163Z" stroke="#3F3D56" stroke-miterlimit="10"/>
<path d="M52.3035 49.2297H46.5354C45.4954 49.2297 44.6523 50.0723 44.6523 51.1117V87.5256C44.6523 88.565 45.4954 89.4075 46.5354 89.4075H52.3035C53.3435 89.4075 54.1866 88.565 54.1866 87.5256V51.1117C54.1866 50.0723 53.3435 49.2297 52.3035 49.2297Z" stroke="#3F3D56" stroke-miterlimit="10"/>
<path d="M70.4188 38.7485H64.6507C63.6107 38.7485 62.7676 39.5911 62.7676 40.6305V87.5256C62.7676 88.565 63.6107 89.4075 64.6507 89.4075H70.4188C71.4588 89.4075 72.3019 88.565 72.3019 87.5256V40.6305C72.3019 39.5911 71.4588 38.7485 70.4188 38.7485Z" stroke="#3F3D56" stroke-miterlimit="10"/>
<path d="M88.5335 28.7439H82.7654C81.7254 28.7439 80.8823 29.5865 80.8823 30.6258V87.5257C80.8823 88.5651 81.7254 89.4076 82.7654 89.4076H88.5335C89.5735 89.4076 90.4166 88.5651 90.4166 87.5257V30.6258C90.4166 29.5865 89.5735 28.7439 88.5335 28.7439Z" stroke="#3F3D56" stroke-miterlimit="10"/>
<path d="M106.649 11.2751H100.881C99.8407 11.2751 98.9976 12.1177 98.9976 13.1571V87.5256C98.9976 88.5649 99.8407 89.4075 100.881 89.4075H106.649C107.689 89.4075 108.532 88.5649 108.532 87.5256V13.1571C108.532 12.1177 107.689 11.2751 106.649 11.2751Z" stroke="#3F3D56" stroke-miterlimit="10"/>
<path d="M136.817 90.7574H0" stroke="#3F3D56" stroke-miterlimit="10"/>
<path d="M128.189 75.524C128.189 75.524 129.684 80.9042 127.79 81.7013C125.896 82.4984 126.494 75.7233 126.494 75.7233L128.189 75.524Z" fill="#A0616A"/>
<path d="M114.63 109.997C114.63 109.997 113.235 109.898 112.736 110.197C112.587 110.284 112.421 110.338 112.249 110.355C112.077 110.372 111.903 110.352 111.739 110.296C111.739 110.296 109.546 110.097 110.344 111.193C111.141 112.289 111.939 112.687 111.939 113.186C111.939 113.684 115.229 113.684 115.328 113.186C115.428 112.687 115.528 110.097 115.328 109.997C115.129 109.898 114.63 109.997 114.63 109.997Z" fill="#575A89"/>
<path d="M118.319 109.997C118.319 109.997 119.715 109.898 120.213 110.197C120.362 110.284 120.529 110.338 120.701 110.355C120.873 110.372 121.046 110.352 121.21 110.296C121.21 110.296 123.403 110.097 122.606 111.193C121.808 112.289 121.011 112.687 121.011 113.186C121.011 113.684 117.721 113.684 117.621 113.186C117.521 112.687 117.422 110.097 117.621 109.997C117.82 109.898 118.319 109.997 118.319 109.997Z" fill="#575A89"/>
<path d="M110.543 74.4282C110.543 74.4282 109.845 90.1702 110.244 90.9672C110.642 91.7643 112.038 105.215 111.839 106.012C111.639 106.809 110.642 110.097 111.839 110.595C113.035 111.093 115.627 110.595 115.627 110.595C115.627 110.595 116.325 106.61 116.026 104.517C115.727 102.425 115.627 93.6573 115.627 93.6573L117.621 84.4911L118.319 93.1592C118.319 93.1592 118.518 105.015 117.123 107.407C115.727 109.798 117.621 110.794 117.621 110.794C117.621 110.794 121.41 111.292 121.808 111.193C122.207 111.093 121.509 107.207 121.808 105.514C122.107 103.82 122.805 94.3548 123.403 92.0632C124.002 89.7716 127.391 77.0186 124.899 74.4282C122.407 71.8377 110.543 74.4282 110.543 74.4282Z" fill="#3F3D56"/>
<path d="M117.821 42.6452C119.748 42.6452 121.31 41.084 121.31 39.1581C121.31 37.2322 119.748 35.6709 117.821 35.6709C115.894 35.6709 114.332 37.2322 114.332 39.1581C114.332 41.084 115.894 42.6452 117.821 42.6452Z" fill="#A0616A"/>
<path d="M115.229 40.7523C115.229 40.7523 115.827 45.5346 115.528 45.6343C115.229 45.7339 120.811 45.6343 120.811 45.6343C120.811 45.6343 119.715 42.7449 120.811 40.4534L115.229 40.7523Z" fill="#A0616A"/>
<path d="M115.229 44.638C115.229 44.638 117.658 42.2467 120.531 44.638L120.717 45.3507L119.216 45.3354H115.229V44.638Z" fill="#F2F2F2"/>
<path d="M127.093 75.2252C126.862 75.271 126.298 75.3647 125.562 75.4763C123.113 75.8459 118.772 76.4059 118.619 76.0223C118.419 75.5241 117.721 73.7307 117.223 74.5278C116.724 75.3249 117.023 76.0223 114.93 76.1219C113.505 76.1897 111.435 75.9804 110.288 75.6516C109.75 75.4972 109.415 75.3169 109.447 75.1256C109.546 74.5278 110.643 63.1696 110.643 62.0736C110.643 60.9777 111.042 55.6971 111.042 55.6971L108.176 50.0629L107.951 49.6195C107.951 49.6195 108.25 48.5236 109.148 48.3243C110.045 48.125 114.332 45.6342 114.332 45.6342C114.332 45.6342 115.229 44.2393 116.924 44.339C118.619 44.4386 119.017 43.7412 121.31 45.6342C121.31 45.6342 124.102 46.8298 125.099 47.4276C126.096 48.0254 127.192 48.0254 127.292 49.0217C127.312 49.222 127.203 49.6076 127.017 50.0948C126.334 51.8802 124.608 55.0396 124.338 55.5317C124.314 55.5746 124.301 55.5975 124.301 55.5975C124.301 55.5975 124.249 57.3889 124.304 59.4862V59.4912C124.358 61.5028 124.51 63.7953 124.899 65.0626C125.697 67.6531 128.09 75.0259 127.093 75.2252Z" fill="#575A89"/>
<path d="M122.351 37.7266C122.281 37.4092 122.147 37.1094 121.956 36.8459C121.88 36.1172 121.637 35.4159 121.246 34.7966C121.092 34.5064 120.874 34.2551 120.609 34.062C120.305 33.887 119.958 33.8005 119.607 33.8124C119.543 33.8113 119.429 33.8306 119.326 33.8353C119.26 33.8149 119.193 33.7967 119.127 33.7796C119.088 33.6931 119.011 33.4409 118.989 33.458L118.698 33.6889C118.576 33.6675 118.452 33.6509 118.328 33.6377C118.283 33.509 118.238 33.3803 118.193 33.2516C118.119 33.3667 118.055 33.4873 118 33.6124C117.877 33.6063 117.754 33.6042 117.63 33.606L117.383 33.3688C117.368 33.4349 117.335 33.4954 117.286 33.5428C117.238 33.5902 117.177 33.6225 117.11 33.6356C116.997 33.6473 116.883 33.6625 116.77 33.6807C116.761 33.6806 116.752 33.6807 116.743 33.6804C116.134 33.6653 115.48 33.638 114.971 33.9719C114.733 34.1353 114.539 34.3551 114.407 34.6117C114.344 34.6541 114.282 34.6961 114.221 34.7409C114.017 34.8801 113.84 35.0553 113.699 35.2581C113.597 35.4329 113.519 35.6212 113.468 35.8174C113.274 36.4079 113.184 37.0276 113.203 37.6489C113.223 38.2745 113.459 38.8737 113.871 39.3454C114.132 39.6257 114.464 39.8326 114.725 40.1125C115.263 40.6888 115.364 41.4926 115.824 42.1024C116.311 42.7474 117.2 43.1719 117.98 43.2935C118.449 43.3642 118.928 43.3415 119.388 43.2267C119.848 43.112 120.281 42.9075 120.662 42.6249C120.845 42.4977 121.001 42.3349 121.119 42.1464C121.39 41.6782 121.275 41.0898 121.376 40.5585C121.564 39.5625 122.515 38.7268 122.351 37.7266Z" fill="#3F3D56"/>
<path d="M109.048 75.823C109.048 75.823 110.543 81.2032 108.649 82.0002C106.755 82.7973 107.353 76.0223 107.353 76.0223L109.048 75.823Z" fill="#A0616A"/>
<path opacity="0.1" d="M110.841 63.614C110.841 63.614 110.187 73.3142 110.288 75.6516C109.749 75.4972 109.414 75.3169 109.446 75.1256C109.546 74.5278 110.643 63.1696 110.643 62.0736C110.643 60.9777 111.042 55.6971 111.042 55.6971L108.176 50.0629C108.222 49.7839 108.25 49.6195 108.25 49.6195L109.696 52.6583L111.739 53.2063L110.841 63.614Z" fill="black"/>
<path d="M108.648 49.0217L107.951 49.6195C107.951 49.6195 107.053 54.9001 107.153 56.1953C107.253 57.4905 105.059 77.1182 106.754 77.1182C108.449 77.1182 110.343 76.8193 110.044 76.1219C109.745 75.4245 110.542 63.614 110.542 63.614L111.44 53.2063L108.648 49.0217Z" fill="#575A89"/>
<path opacity="0.1" d="M127.017 50.0948C126.334 51.8803 124.608 55.0396 124.338 55.5318C124.346 54.2575 124.351 53.3558 124.351 53.3558L126.444 49.0716L126.893 48.7229C126.893 48.7229 126.941 49.25 127.017 50.0948Z" fill="black"/>
<path opacity="0.1" d="M127.092 75.2251C126.862 75.271 126.298 75.3646 125.562 75.4762C125.18 72.6546 124.159 64.5405 124.224 63.7763C124.256 63.3997 124.283 61.5386 124.304 59.4911C124.358 61.5027 124.509 63.7952 124.899 65.0626C125.697 67.653 128.089 75.0259 127.092 75.2251Z" fill="black"/>
<path d="M125.796 48.3243L127.292 48.7229C127.292 48.7229 128.289 59.7821 128.388 61.6752C128.488 63.5682 129.684 75.2253 129.485 75.7234C129.286 76.2216 126.195 76.919 126.095 76.4209C125.996 75.9227 124.546 64.6817 124.623 63.7762C124.7 62.8708 124.201 53.5053 124.201 53.5053L125.796 48.3243Z" fill="#575A89"/>
<path d="M31.2246 54.7085L49.3398 39.622L67.6138 29.2997L85.7289 19.2949L103.844 1.82629" stroke="#3F3D56" stroke-miterlimit="10"/>
<path d="M30.748 57.2495C31.7133 57.2495 32.4959 56.4674 32.4959 55.5026C32.4959 54.5378 31.7133 53.7557 30.748 53.7557C29.7826 53.7557 29 54.5378 29 55.5026C29 56.4674 29.7826 57.2495 30.748 57.2495Z" fill="#F2F2F2"/>
<path d="M48.8632 42.1629C49.8286 42.1629 50.6111 41.3808 50.6111 40.4161C50.6111 39.4513 49.8286 38.6692 48.8632 38.6692C47.8978 38.6692 47.1152 39.4513 47.1152 40.4161C47.1152 41.3808 47.8978 42.1629 48.8632 42.1629Z" fill="#F2F2F2"/>
<path d="M67.1371 31.8405C68.1025 31.8405 68.8851 31.0584 68.8851 30.0937C68.8851 29.1289 68.1025 28.3468 67.1371 28.3468C66.1717 28.3468 65.3892 29.1289 65.3892 30.0937C65.3892 31.0584 66.1717 31.8405 67.1371 31.8405Z" fill="#F2F2F2"/>
<path d="M85.2523 21.8358C86.2177 21.8358 87.0003 21.0537 87.0003 20.0889C87.0003 19.1241 86.2177 18.342 85.2523 18.342C84.287 18.342 83.5044 19.1241 83.5044 20.0889C83.5044 21.0537 84.287 21.8358 85.2523 21.8358Z" fill="#F2F2F2"/>
<path d="M103.368 4.36714C104.333 4.36714 105.116 3.58504 105.116 2.62027C105.116 1.65551 104.333 0.873413 103.368 0.873413C102.402 0.873413 101.62 1.65551 101.62 2.62027C101.62 3.58504 102.402 4.36714 103.368 4.36714Z" fill="#F2F2F2"/>
<path d="M31.225 56.4554C32.1904 56.4554 32.973 55.6733 32.973 54.7085C32.973 53.7438 32.1904 52.9617 31.225 52.9617C30.2596 52.9617 29.4771 53.7438 29.4771 54.7085C29.4771 55.6733 30.2596 56.4554 31.225 56.4554Z" stroke="#3F3D56" stroke-miterlimit="10"/>
<path d="M49.3402 41.369C50.3056 41.369 51.0882 40.5869 51.0882 39.6221C51.0882 38.6573 50.3056 37.8752 49.3402 37.8752C48.3749 37.8752 47.5923 38.6573 47.5923 39.6221C47.5923 40.5869 48.3749 41.369 49.3402 41.369Z" stroke="#3F3D56" stroke-miterlimit="10"/>
<path d="M67.6142 31.0465C68.5795 31.0465 69.3621 30.2644 69.3621 29.2996C69.3621 28.3348 68.5795 27.5527 67.6142 27.5527C66.6488 27.5527 65.8662 28.3348 65.8662 29.2996C65.8662 30.2644 66.6488 31.0465 67.6142 31.0465Z" stroke="#3F3D56" stroke-miterlimit="10"/>
<path d="M85.7294 21.0417C86.6948 21.0417 87.4773 20.2596 87.4773 19.2948C87.4773 18.3301 86.6948 17.548 85.7294 17.548C84.764 17.548 83.9814 18.3301 83.9814 19.2948C83.9814 20.2596 84.764 21.0417 85.7294 21.0417Z" stroke="#3F3D56" stroke-miterlimit="10"/>
<path d="M103.844 3.57307C104.81 3.57307 105.592 2.79097 105.592 1.82621C105.592 0.861442 104.81 0.0793457 103.844 0.0793457C102.879 0.0793457 102.096 0.861442 102.096 1.82621C102.096 2.79097 102.879 3.57307 103.844 3.57307Z" stroke="#3F3D56" stroke-miterlimit="10"/>
</g>
<defs>
<clipPath id="clip0">
<rect width="142" height="117" fill="white"/>
</clipPath>
</defs>
</svg>
