<svg width="100" height="115" viewBox="0 0 100 115" fill="none" xmlns="http://www.w3.org/2000/svg">
<g clip-path="url(#clip0)">
<path d="M9.27615 102.884L-0.00610352 0.0090332L99.9926 0.0482977L90.7884 102.805L49.9152 114.428L9.27615 102.884ZM83.2611 97.2688L91.0224 9.15781H50.0713L50.3833 106.339L83.2611 97.2688ZM46.2491 22.076H36.3039L36.1869 74.8091L16.8814 69.5083L16.9204 81.5627L46.2491 89.5335V22.076Z" fill="#D4B830"/>
<path d="M50.073 9.11523H91.0241L83.7344 97.5902L50.073 106.626V9.11523ZM81.1568 82.4624L83.8479 49.519L63.9574 51.7571V34.1664L85.1739 34.0878L86.0319 22.0727L54.0121 22.2298L54.4411 65.9711L73.7856 62.6335L73.5126 72.3713L54.0121 77.5936L54.2071 89.5301L81.1568 82.4624Z" fill="#FDD83C"/>
</g>
<defs>
<clipPath id="clip0">
<rect width="100" height="114.458" fill="white"/>
</clipPath>
</defs>
</svg>
