<svg width="195" height="195" viewBox="0 0 195 195" fill="none" xmlns="http://www.w3.org/2000/svg">
<circle cx="97.5" cy="97.5" r="95.4474" stroke="#F9ECF1" stroke-width="4.10526"/>
<path d="M51.3976 97.7274C53.0096 97.7274 54.5733 97.953 56.0886 98.4044C57.6361 98.8558 59.103 99.5006 60.4894 100.339L58.2648 103.579C57.2653 102.837 56.1692 102.257 54.9763 101.838C53.8156 101.387 52.6066 101.161 51.3493 101.161C49.6405 101.161 48.1897 101.596 46.9968 102.467C45.8039 103.305 45.2075 104.659 45.2075 106.529C45.2075 107.561 45.4815 108.447 46.0296 109.189C46.6099 109.898 47.3676 110.527 48.3025 111.075C49.2375 111.623 50.2531 112.155 51.3493 112.671C52.4777 113.187 53.6222 113.751 54.7828 114.363C55.9757 114.976 57.0558 115.701 58.023 116.54C59.0224 117.346 59.8123 118.345 60.3927 119.538C61.0052 120.699 61.3115 122.133 61.3115 123.842C61.3115 126.163 60.7473 128.082 59.6189 129.597C58.4905 131.08 57.0074 132.192 55.1697 132.934C53.332 133.643 51.3493 133.998 49.2214 133.998C47.4804 133.998 45.7878 133.772 44.1435 133.321C42.5315 132.837 40.9518 132.192 39.4042 131.386L41.1452 127.421C42.2091 128.323 43.4987 129.065 45.014 129.645C46.5293 130.226 47.9801 130.516 49.3665 130.516C50.4304 130.516 51.5105 130.322 52.6066 129.935C53.7028 129.516 54.6216 128.855 55.3632 127.953C56.1047 127.05 56.4755 125.889 56.4755 124.471C56.4755 123.052 56.1369 121.891 55.4599 120.989C54.7828 120.054 53.8962 119.28 52.8001 118.667C51.7039 118.023 50.5432 117.41 49.3181 116.83C48.2542 116.314 47.1903 115.782 46.1263 115.234C45.0624 114.686 44.0952 114.041 43.2247 113.299C42.3542 112.558 41.661 111.671 41.1452 110.64C40.6294 109.608 40.3714 108.367 40.3714 106.916C40.3714 104.885 40.9034 103.192 41.9673 101.838C43.0635 100.484 44.4498 99.4683 46.1263 98.7913C47.8351 98.082 49.5922 97.7274 51.3976 97.7274ZM66.8718 109.382L71.0308 123.358C71.1598 123.778 71.2726 124.213 71.3693 124.664C71.4983 125.115 71.6273 125.664 71.7562 126.308C71.8852 125.664 71.998 125.132 72.0947 124.712C72.2237 124.261 72.3527 123.842 72.4816 123.455L76.8824 109.382H79.7357L83.9431 123.358C84.072 123.778 84.1849 124.213 84.2816 124.664C84.4105 125.115 84.5395 125.664 84.6685 126.308C84.7974 125.664 84.9264 125.115 85.0553 124.664C85.1843 124.213 85.3133 123.778 85.4422 123.358L89.7463 109.382H93.325L85.7324 133.708H82.8308C82.2827 131.838 81.7346 130.048 81.1865 128.34C80.6384 126.599 80.1065 124.809 79.5906 122.972C79.0748 121.134 78.5267 119.087 77.9464 116.83C77.366 119.087 76.7857 121.134 76.2054 122.972C75.6573 124.809 75.0931 126.599 74.5128 128.34C73.9647 130.048 73.3844 131.838 72.7718 133.708H69.8218L62.7128 109.382H66.8718ZM106.264 108.802C109.166 108.802 111.358 109.672 112.841 111.413C114.356 113.122 115.114 115.379 115.114 118.184C115.114 118.635 115.082 119.103 115.017 119.586C114.985 120.038 114.937 120.521 114.872 121.037H99.5903C99.5903 124.1 100.267 126.47 101.621 128.146C102.976 129.823 104.781 130.661 107.038 130.661C108.876 130.661 110.907 130.08 113.131 128.92L114.63 131.338C113.502 132.241 112.228 132.918 110.81 133.369C109.391 133.82 107.957 134.046 106.506 134.046C103.991 134.046 101.895 133.45 100.219 132.257C98.5747 131.064 97.3496 129.516 96.5436 127.614C95.7376 125.712 95.3346 123.729 95.3346 121.666C95.3346 120.054 95.5603 118.49 96.0116 116.975C96.463 115.46 97.14 114.089 98.0428 112.864C98.9777 111.607 100.122 110.623 101.476 109.914C102.83 109.173 104.426 108.802 106.264 108.802ZM105.877 111.849C104.781 111.849 103.814 112.155 102.976 112.767C102.137 113.38 101.46 114.17 100.944 115.137C100.429 116.072 100.074 117.039 99.8805 118.039H110.907C110.971 116.04 110.552 114.508 109.649 113.444C108.747 112.381 107.489 111.849 105.877 111.849ZM130.161 108.802C133.063 108.802 135.255 109.672 136.738 111.413C138.253 113.122 139.011 115.379 139.011 118.184C139.011 118.635 138.979 119.103 138.914 119.586C138.882 120.038 138.834 120.521 138.769 121.037H123.487C123.487 124.1 124.164 126.47 125.518 128.146C126.872 129.823 128.678 130.661 130.935 130.661C132.772 130.661 134.804 130.08 137.028 128.92L138.527 131.338C137.399 132.241 136.125 132.918 134.707 133.369C133.288 133.82 131.854 134.046 130.403 134.046C127.888 134.046 125.792 133.45 124.116 132.257C122.472 131.064 121.246 129.516 120.44 127.614C119.634 125.712 119.231 123.729 119.231 121.666C119.231 120.054 119.457 118.49 119.908 116.975C120.36 115.46 121.037 114.089 121.94 112.864C122.875 111.607 124.019 110.623 125.373 109.914C126.727 109.173 128.323 108.802 130.161 108.802ZM129.774 111.849C128.678 111.849 127.711 112.155 126.872 112.767C126.034 113.38 125.357 114.17 124.841 115.137C124.325 116.072 123.971 117.039 123.777 118.039H134.804C134.868 116.04 134.449 114.508 133.546 113.444C132.643 112.381 131.386 111.849 129.774 111.849ZM150.527 102.515C150.302 103.611 150.092 104.756 149.899 105.949C149.738 107.109 149.625 108.254 149.56 109.382H155.847L155.025 112.429H149.56V127.808C149.56 128.743 149.721 129.484 150.044 130.032C150.398 130.58 151.092 130.854 152.123 130.854C152.639 130.854 153.155 130.806 153.671 130.709C154.187 130.612 154.686 130.5 155.17 130.371L155.847 133.079C155.041 133.305 154.267 133.498 153.526 133.659C152.817 133.853 151.994 133.949 151.059 133.949C148.996 133.949 147.561 133.401 146.755 132.305C145.949 131.209 145.546 129.677 145.546 127.711V112.429H141.968V110.011C143.257 109.979 144.273 109.56 145.014 108.754C145.756 107.915 146.32 106.916 146.707 105.755C147.094 104.595 147.384 103.514 147.577 102.515H150.527Z" fill="#F9ECF1"/>
<path d="M141.451 55.4585C141.451 54.8288 141.628 54.3369 141.982 53.9827C142.337 53.6285 142.829 53.4514 143.458 53.4514C144.088 53.4514 144.573 53.6285 144.914 53.9827C145.269 54.3369 145.446 54.8288 145.446 55.4585C145.446 56.1276 145.328 57.1967 145.092 58.666C144.855 60.1222 144.567 61.4209 144.226 62.5623C143.885 63.6905 143.544 64.2546 143.202 64.2546C143.006 63.7954 142.77 62.9427 142.494 61.6964C142.219 60.4502 141.976 59.2039 141.766 57.9576C141.556 56.6982 141.451 55.8652 141.451 55.4585Z" fill="#F9ECF1"/>
<path d="M100.385 57.5255H106.465V94.9722H123.853V98.8931H101.181V61.2759L100.385 57.5255ZM135.995 61.1623C135.995 62.1093 135.654 62.9238 134.972 63.6057C134.328 64.2875 133.513 64.6285 132.528 64.6285C131.581 64.6285 130.767 64.2875 130.085 63.6057C129.441 62.9238 129.119 62.1093 129.119 61.1623C129.119 60.2152 129.441 59.4007 130.085 58.7188C130.767 58.037 131.581 57.696 132.528 57.696C133.476 57.696 134.29 58.037 134.972 58.7188C135.654 59.4007 135.995 60.2152 135.995 61.1623ZM134.972 70.6518V98.8931H130.256V74.0044L129.574 70.6518H134.972Z" fill="#F9ECF1"/>
<path d="M58.5396 69.6691L64.1603 94.8785L64.531 96.4925C64.531 96.4786 87.0255 96.4688 87.0513 96.4925L87.4019 94.9357L92.7779 69.6687L91.5113 69.7002L59.695 69.6695L58.5396 69.6691Z" stroke="#F9ECF1" stroke-width="3.22403" stroke-linejoin="round"/>
<path d="M59.2228 68.4928C58.8762 68.3701 58.9613 70.1187 58.7046 69.7964C56.8173 67.5116 64.1177 57.9874 75.2418 57.8042C75.2756 57.8042 75.4103 57.8042 75.5453 57.8042C87.8139 57.8042 93.1924 67.8748 92.8801 69.0601C92.8567 69.1489 92.5818 68.6675 92.1345 68.7738C88.2552 69.7101 63.0804 69.8463 59.2228 68.4928Z" stroke="#F9ECF1" stroke-width="3.22403" stroke-linejoin="round"/>
<path d="M69.3138 63.1146L66.8958 65.5688" stroke="#F9ECF1" stroke-width="1.20901"/>
<path d="M84.6273 63.1146L82.2092 65.5688" stroke="#F9ECF1" stroke-width="1.20901"/>
<path d="M75.76 61.4785L70.521 66.7958" stroke="#F9ECF1" stroke-width="1.20901"/>
<path d="M81.0005 61.4785L75.7615 66.7958" stroke="#F9ECF1" stroke-width="1.20901"/>
</svg>
