<svg width="50" height="33" viewBox="0 0 50 33" fill="none" xmlns="http://www.w3.org/2000/svg">
<path d="M2.89662 1.70555V0.348807C2.89662 0.140878 3.00059 0.0369131 3.20852 0.0369131H4.56526C4.77319 0.0369131 4.87715 0.13568 4.87715 0.333213V1.70555C4.87715 1.91348 4.77319 2.01744 4.56526 2.01744H3.20852C3.00059 2.01744 2.89662 1.91348 2.89662 1.70555ZM2.28843 13.5887H1.24358C1.02525 13.5887 0.916091 13.4796 0.916091 13.2612V12.2008C0.916091 11.9825 1.02525 11.8733 1.24358 11.8733H1.68023C2.14807 11.8733 2.46517 11.7901 2.63151 11.6238C2.80825 11.4574 2.89662 11.1404 2.89662 10.6725V3.37418C2.89662 3.15586 3.00578 3.04669 3.22411 3.04669H4.54966C4.76799 3.04669 4.87715 3.15586 4.87715 3.37418V11.0312C4.87715 11.8421 4.64843 12.4711 4.19098 12.9182C3.73354 13.3652 3.09935 13.5887 2.28843 13.5887ZM10.4768 11H9.08882C8.2675 11 7.63331 10.7817 7.18626 10.345C6.73922 9.90837 6.51569 9.27938 6.51569 8.45806V5.58863C6.51569 4.76731 6.73922 4.13832 7.18626 3.70167C7.63331 3.26502 8.2675 3.04669 9.08882 3.04669H10.4768C11.2877 3.04669 11.9167 3.27022 12.3637 3.71727C12.8212 4.15392 13.0499 4.77771 13.0499 5.58863V8.45806C13.0499 9.26899 12.8212 9.89797 12.3637 10.345C11.9167 10.7817 11.2877 11 10.4768 11ZM9.38512 9.30018H10.1805C10.5131 9.30018 10.7471 9.2326 10.8822 9.09744C11.0278 8.96229 11.1005 8.72837 11.1005 8.39568V5.65101C11.1005 5.31832 11.0278 5.0844 10.8822 4.94925C10.7471 4.81409 10.5131 4.74652 10.1805 4.74652H9.38512C9.05243 4.74652 8.81851 4.81409 8.68336 4.94925C8.5482 5.0844 8.48063 5.31832 8.48063 5.65101V8.39568C8.48063 8.72837 8.5482 8.96229 8.68336 9.09744C8.81851 9.2326 9.05243 9.30018 9.38512 9.30018ZM17.3975 11H17.0232C16.2019 11 15.5677 10.7817 15.1207 10.345C14.6736 9.90837 14.4501 9.27938 14.4501 8.45806V5.58863C14.4501 4.76731 14.6736 4.13832 15.1207 3.70167C15.5677 3.26502 16.2019 3.04669 17.0232 3.04669H20.6256C20.8543 3.04669 20.9687 3.15586 20.9687 3.37418V10.6725C20.9687 10.8908 20.8543 11 20.6256 11H19.3157C19.0973 11 18.9882 10.8908 18.9882 10.6725V10.1579H18.9258C18.8114 10.4386 18.6087 10.6517 18.3176 10.7973C18.0265 10.9324 17.7198 11 17.3975 11ZM18.9882 8.09938V4.93365C18.9882 4.81929 18.9258 4.76211 18.801 4.76211H17.3351C17.0024 4.76211 16.7685 4.83489 16.6334 4.98044C16.4982 5.11559 16.4306 5.34951 16.4306 5.6822V8.36449C16.4306 8.69718 16.4982 8.9363 16.6334 9.08185C16.7685 9.217 17.0024 9.28458 17.3351 9.28458H17.9121C18.6295 9.28458 18.9882 8.88951 18.9882 8.09938ZM24.8296 9.28458H26.4203C26.753 9.28458 26.9869 9.217 27.122 9.08185C27.2676 8.9363 27.3404 8.69718 27.3404 8.36449V5.65101C27.3404 5.31832 27.2676 5.0844 27.122 4.94925C26.9869 4.8037 26.753 4.73092 26.4203 4.73092H25.7341C25.0168 4.73092 24.6581 5.12599 24.6581 5.91612V9.11304C24.6581 9.2274 24.7153 9.28458 24.8296 9.28458ZM22.6775 10.6725V0.364402C22.6775 0.146076 22.7867 0.0369131 23.005 0.0369131H24.3306C24.5489 0.0369131 24.6581 0.146076 24.6581 0.364402V3.87321H24.7205C24.8348 3.59251 25.0375 3.37938 25.3286 3.23383C25.6197 3.08828 25.9264 3.0155 26.2487 3.0155H26.7478C27.5691 3.0155 28.2033 3.23383 28.6503 3.67048C29.0974 4.10713 29.3209 4.73612 29.3209 5.55744V8.45806C29.3209 9.27938 29.0974 9.90837 28.6503 10.345C28.2033 10.7817 27.5691 11 26.7478 11H23.005C22.7867 11 22.6775 10.8908 22.6775 10.6725ZM32.1805 13.6355H31.1824C30.9745 13.6355 30.8705 13.5211 30.8705 13.2924V12.2476C30.8705 12.0189 30.9745 11.9045 31.1824 11.9045H31.5099C32.1649 11.9045 32.6067 11.8109 32.8354 11.6238C33.0746 11.447 33.2565 11.0988 33.3812 10.5789H32.5547C32.3572 10.5789 32.2272 10.4698 32.1649 10.2515L30.3403 3.37418C30.2779 3.15586 30.3559 3.04669 30.5742 3.04669H31.9621C32.1701 3.04669 32.3 3.15586 32.352 3.37418L33.6931 9.12863H33.7555L35.0811 3.37418C35.1227 3.15586 35.2526 3.04669 35.4709 3.04669H36.7809C37.0408 3.04669 37.1448 3.16105 37.0928 3.38978L35.1902 11C34.9615 11.8629 34.608 12.5179 34.1298 12.9649C33.6516 13.412 33.0018 13.6355 32.1805 13.6355ZM6.62376 31H5.23583C4.41451 31 3.78032 30.7817 3.33327 30.345C2.88622 29.9084 2.6627 29.2794 2.6627 28.4581V25.5886C2.6627 24.7673 2.88622 24.1383 3.33327 23.7017C3.78032 23.265 4.41451 23.0467 5.23583 23.0467H6.62376C7.43468 23.0467 8.06367 23.2702 8.51072 23.7173C8.96816 24.1539 9.19689 24.7777 9.19689 25.5886V28.4581C9.19689 29.269 8.96816 29.898 8.51072 30.345C8.06367 30.7817 7.43468 31 6.62376 31ZM5.53213 29.3002H6.32746C6.66015 29.3002 6.89407 29.2326 7.02922 29.0974C7.17477 28.9623 7.24755 28.7284 7.24755 28.3957V25.651C7.24755 25.3183 7.17477 25.0844 7.02922 24.9492C6.89407 24.8141 6.66015 24.7465 6.32746 24.7465H5.53213C5.19944 24.7465 4.96552 24.8141 4.83037 24.9492C4.69521 25.0844 4.62763 25.3183 4.62763 25.651V28.3957C4.62763 28.7284 4.69521 28.9623 4.83037 29.0974C4.96552 29.2326 5.19944 29.3002 5.53213 29.3002ZM12.4841 31H11.1585C10.9402 31 10.831 30.8908 10.831 30.6725V20.3644C10.831 20.1461 10.9402 20.0369 11.1585 20.0369H12.4841C12.7024 20.0369 12.8116 20.1461 12.8116 20.3644V30.6725C12.8116 30.8908 12.7024 31 12.4841 31ZM14.684 21.7055V20.3488C14.684 20.1409 14.788 20.0369 14.9959 20.0369H16.3527C16.5606 20.0369 16.6646 20.1357 16.6646 20.3332V21.7055C16.6646 21.9135 16.5606 22.0174 16.3527 22.0174H14.9959C14.788 22.0174 14.684 21.9135 14.684 21.7055ZM14.684 30.6725V23.3742C14.684 23.1559 14.788 23.0467 14.9959 23.0467H16.3371C16.5554 23.0467 16.6646 23.1559 16.6646 23.3742V30.6725C16.6646 30.8077 16.6386 30.896 16.5866 30.9376C16.545 30.9792 16.467 31 16.3527 31H15.0115C14.7932 31 14.684 30.8908 14.684 30.6725ZM18.116 23.0467H19.4883C19.6962 23.0467 19.821 23.1559 19.8626 23.3742L21.2037 29.2378H21.3129L22.6228 23.3742C22.6644 23.1559 22.7944 23.0467 23.0127 23.0467H24.385C24.6034 23.0467 24.6813 23.1559 24.619 23.3742L22.654 30.6569C22.6124 30.8856 22.4721 31 22.233 31H20.2524C20.0341 31 19.8938 30.8856 19.8314 30.6569L17.882 23.3742C17.8197 23.1559 17.8976 23.0467 18.116 23.0467ZM31.6175 31H28.171C27.3497 31 26.7155 30.7817 26.2685 30.345C25.8214 29.9084 25.5979 29.2794 25.5979 28.4581V25.5886C25.5979 24.7673 25.8214 24.1383 26.2685 23.7017C26.7155 23.265 27.3497 23.0467 28.171 23.0467H29.403C30.2243 23.0467 30.8585 23.265 31.3056 23.7017C31.7526 24.1383 31.9761 24.7673 31.9761 25.5886V27.5692C31.9761 27.7875 31.867 27.8967 31.6487 27.8967H27.7344C27.6096 27.8967 27.5472 27.9538 27.5472 28.0682V28.4113C27.5472 28.7336 27.6148 28.9675 27.75 29.113C27.8955 29.2482 28.1346 29.3158 28.4673 29.3158H31.6175C31.8358 29.3158 31.945 29.4301 31.945 29.6589V30.6881C31.945 30.8025 31.919 30.8856 31.867 30.9376C31.8254 30.9792 31.7422 31 31.6175 31ZM27.7344 26.5711H29.8553C29.9696 26.5711 30.0268 26.5139 30.0268 26.3996V25.651C30.0268 25.3183 29.9592 25.0844 29.8241 24.9492C29.6889 24.8141 29.455 24.7465 29.1223 24.7465H28.4673C28.1346 24.7465 27.9007 24.8141 27.7656 24.9492C27.6304 25.0844 27.5628 25.3183 27.5628 25.651V26.3996C27.5628 26.5139 27.62 26.5711 27.7344 26.5711ZM33.5378 21.7055V20.3488C33.5378 20.1409 33.6418 20.0369 33.8497 20.0369H35.2064C35.4144 20.0369 35.5183 20.1357 35.5183 20.3332V21.7055C35.5183 21.9135 35.4144 22.0174 35.2064 22.0174H33.8497C33.6418 22.0174 33.5378 21.9135 33.5378 21.7055ZM33.5378 30.6725V23.3742C33.5378 23.1559 33.6418 23.0467 33.8497 23.0467H35.1908C35.4092 23.0467 35.5183 23.1559 35.5183 23.3742V30.6725C35.5183 30.8077 35.4923 30.896 35.4404 30.9376C35.3988 30.9792 35.3208 31 35.2064 31H33.8653C33.647 31 33.5378 30.8908 33.5378 30.6725ZM38.9659 31H37.6403C37.422 31 37.3128 30.8908 37.3128 30.6725V23.3742C37.3128 23.1559 37.422 23.0467 37.6403 23.0467H38.9659C39.1842 23.0467 39.2934 23.1559 39.2934 23.3742V23.9044H39.3557C39.4701 23.6237 39.6728 23.4106 39.9639 23.265C40.255 23.1195 40.5617 23.0467 40.884 23.0467H41.4454C41.6534 23.0467 41.7573 23.1559 41.7573 23.3742V24.4502C41.7573 24.575 41.7313 24.6633 41.6793 24.7153C41.6378 24.7569 41.5598 24.7725 41.4454 24.7621H40.3694C39.652 24.7621 39.2934 25.1676 39.2934 25.9785V30.6725C39.2934 30.8908 39.1842 31 38.9659 31ZM45.5411 31H45.1668C44.3455 31 43.7113 30.7817 43.2643 30.345C42.8172 29.9084 42.5937 29.2794 42.5937 28.4581V25.5886C42.5937 24.7673 42.8172 24.1383 43.2643 23.7017C43.7113 23.265 44.3455 23.0467 45.1668 23.0467H48.7692C48.9979 23.0467 49.1123 23.1559 49.1123 23.3742V30.6725C49.1123 30.8908 48.9979 31 48.7692 31H47.4593C47.2409 31 47.1318 30.8908 47.1318 30.6725V30.1579H47.0694C46.955 30.4386 46.7523 30.6517 46.4612 30.7973C46.1701 30.9324 45.8634 31 45.5411 31ZM47.1318 28.0994V24.9337C47.1318 24.8193 47.0694 24.7621 46.9446 24.7621H45.4787C45.146 24.7621 44.9121 24.8349 44.777 24.9804C44.6418 25.1156 44.5742 25.3495 44.5742 25.6822V28.3645C44.5742 28.6972 44.6418 28.9363 44.777 29.0818C44.9121 29.217 45.146 29.2846 45.4787 29.2846H46.0557C46.7731 29.2846 47.1318 28.8895 47.1318 28.0994Z" fill="white"/>
<rect y="14.5807" width="5.88235" height="0.967742" fill="#288CA2"/>
<rect x="42" y="32" width="7.84314" height="0.967742" fill="#288CA2"/>
</svg>
