<svg width="3812" height="2368" viewBox="0 0 3812 2368" fill="none" xmlns="http://www.w3.org/2000/svg">
<rect y="0.585417" width="3811" height="2366" fill="url(#paint0_linear)"/>
<g style="mix-blend-mode:overlay">
<g clip-path="url(#clip0)" filter="url(#filter0_f)">
<path d="M774.903 241.684C794.222 274.501 802.956 303.878 827.304 329.813C851.652 355.749 891.35 377.98 882.881 395.447C874.412 412.65 817.776 425.353 791.311 447.319C764.846 469.285 768.551 500.779 757.7 524.863C746.849 548.946 721.443 565.884 688.626 578.587C655.544 591.555 615.317 600.818 601.026 578.587C586.999 556.356 598.909 502.896 583.029 467.962C567.415 433.028 524.012 416.62 508.133 390.948C491.989 365.277 503.104 330.343 531.422 317.11C559.74 303.878 604.996 312.346 635.166 285.881C665.601 259.416 680.686 197.752 703.446 185.313C725.942 172.61 755.583 208.867 774.903 241.684Z" fill="white" fill-opacity="0.05"/>
</g>
<g clip-path="url(#clip1)" filter="url(#filter1_f)">
<path d="M3275.87 1681.4C3295.19 1714.21 3303.92 1743.59 3328.27 1769.52C3352.62 1795.46 3392.32 1817.69 3383.85 1835.16C3375.38 1852.36 3318.75 1865.06 3292.28 1887.03C3265.81 1909 3269.52 1940.49 3258.67 1964.57C3247.82 1988.66 3222.41 2005.59 3189.59 2018.3C3156.51 2031.27 3116.29 2040.53 3101.99 2018.3C3087.97 1996.07 3099.88 1942.61 3084 1907.67C3068.38 1872.74 3024.98 1856.33 3009.1 1830.66C2992.96 1804.99 3004.07 1770.05 3032.39 1756.82C3060.71 1743.59 3105.96 1752.06 3136.13 1725.59C3166.57 1699.13 3181.65 1637.46 3204.42 1625.02C3226.91 1612.32 3256.55 1648.58 3275.87 1681.4Z" fill="white" fill-opacity="0.05"/>
</g>
<g clip-path="url(#clip2)" filter="url(#filter2_f)">
<path d="M3527.03 656.13C3538.94 676.773 3548.46 688.153 3570.16 701.121C3592.13 713.825 3626.27 727.587 3641.36 750.347C3656.18 772.842 3651.94 804.071 3642.41 837.947C3632.89 871.822 3617.8 908.345 3590.81 918.401C3563.81 928.458 3524.64 912.05 3494.74 896.17C3464.57 880.291 3443.93 864.941 3420.9 852.503C3397.88 840.064 3372.73 830.801 3368.23 812.805C3364 794.544 3380.14 768.079 3386.5 745.054C3392.58 722.029 3388.35 702.709 3383.06 667.51C3377.5 632.312 3370.62 581.763 3387.55 563.767C3404.23 546.035 3444.98 561.385 3472.51 583.88C3500.3 606.111 3514.85 635.752 3527.03 656.13Z" fill="white" fill-opacity="0.05"/>
</g>
<g clip-path="url(#clip3)" filter="url(#filter3_f)">
<path d="M3805.18 2192.7C3830.05 2216.79 3864.72 2214.14 3871.34 2227.37C3877.96 2240.34 3856.52 2268.92 3856.78 2297.77C3856.78 2326.62 3878.22 2355.47 3870.81 2366.85C3863.4 2378.49 3826.61 2372.67 3801.74 2382.46C3776.59 2392.52 3763.36 2418.19 3735.31 2443.86C3707.25 2469.53 3664.38 2495.2 3628.12 2491.76C3591.87 2488.32 3562.22 2455.77 3541.32 2418.72C3520.41 2381.4 3507.97 2339.59 3520.14 2304.65C3532.32 2269.72 3568.58 2241.93 3589.22 2204.08C3609.86 2166.5 3614.63 2118.87 3638.71 2094.52C3663.06 2069.91 3706.46 2068.58 3735.84 2093.2C3765.21 2117.81 3780.3 2168.62 3805.18 2192.7Z" fill="white" fill-opacity="0.05"/>
</g>
<g clip-path="url(#clip4)" filter="url(#filter4_f)">
<path d="M3836.67 -13.4412C3865.25 8.525 3881.93 46.1057 3873.19 81.5692C3864.2 117.033 3830.32 150.114 3816.03 174.992C3802 200.134 3808.09 216.807 3804.12 230.569C3800.41 244.066 3786.65 254.123 3772.1 284.029C3757.54 313.934 3741.93 363.16 3723.4 368.188C3705.14 372.952 3683.7 333.519 3672.32 301.76C3660.94 270.002 3659.62 246.183 3648.24 227.922C3636.86 209.396 3615.42 196.428 3593.72 170.757C3572.28 145.351 3550.58 107.241 3565.4 94.8018C3580.22 82.3631 3631.83 95.3311 3664.65 75.7468C3697.46 56.1625 3712.02 4.02591 3739.54 -18.7342C3767.07 -41.759 3808.09 -35.4074 3836.67 -13.4412Z" fill="white" fill-opacity="0.05"/>
</g>
<g filter="url(#filter5_f)">
<path d="M332.933 785.546C367.073 781.311 416.828 773.636 436.941 789.78C457.055 805.659 447.263 845.092 434.824 877.38C422.65 909.668 407.565 934.81 394.068 962.069C380.57 989.064 368.132 1018.18 346.43 1019.76C324.729 1021.09 293.235 994.886 270.739 979.801C248.244 964.451 234.482 960.216 210.399 960.216C186.315 959.952 151.646 964.186 138.413 952.277C125.445 940.367 133.649 912.314 130.473 882.673C127.298 853.032 112.742 821.274 123.063 804.601C133.385 787.927 168.583 785.81 195.843 786.339C223.367 786.604 242.686 789.251 261.477 790.045C280.531 790.839 298.793 789.78 332.933 785.546Z" fill="white" fill-opacity="0.05"/>
</g>
<g clip-path="url(#clip5)" filter="url(#filter6_f)">
<path d="M733.354 1546.42C766.7 1552.77 803.752 1565.74 804.546 1591.68C805.604 1617.35 770.406 1655.72 755.056 1685.37C739.706 1715.27 744.205 1735.91 745.263 1765.29C746.587 1794.93 744.47 1833.04 726.473 1855.01C708.477 1876.97 674.601 1882.53 639.667 1883.85C604.998 1885.18 569.269 1882 533.012 1870.89C496.49 1859.51 459.438 1839.92 442.765 1809.22C426.357 1778.52 430.591 1736.44 452.822 1707.33C475.318 1678.22 515.81 1662.08 529.042 1625.55C542.539 1589.3 528.513 1532.93 542.539 1515.19C556.566 1497.46 598.646 1518.63 634.374 1529.22C670.102 1539.81 700.008 1539.81 733.354 1546.42Z" fill="white" fill-opacity="0.05"/>
</g>
<g clip-path="url(#clip6)" filter="url(#filter7_f)">
<path d="M351.459 2220.76C369.455 2233.73 391.686 2236.11 402.801 2247.75C413.917 2259.13 413.652 2279.78 421.062 2304.65C428.473 2329.53 443.558 2358.91 440.647 2384.58C437.736 2410.25 416.828 2432.22 391.686 2431.95C366.279 2431.69 336.638 2409.19 311.496 2401.52C286.089 2393.84 265.447 2400.99 247.186 2397.28C228.924 2393.58 213.045 2378.76 193.99 2360.76C174.935 2342.76 152.704 2321.59 149.529 2298.57C146.617 2275.81 162.761 2251.19 181.816 2233.2C200.871 2215.2 222.837 2203.82 244.01 2192.97C265.447 2182.12 286.354 2171.8 303.292 2178.15C320.23 2184.5 333.727 2208.05 351.459 2220.76Z" fill="white" fill-opacity="0.05"/>
</g>
<g clip-path="url(#clip7)" filter="url(#filter8_f)">
<path d="M1990.72 1720.3C2003.42 1740.94 2004.48 1768.47 2016.13 1789.37C2027.77 1810.55 2049.74 1825.1 2056.09 1843.63C2062.7 1862.15 2053.71 1884.38 2050.53 1920.11C2047.62 1955.84 2050.27 2004.8 2030.95 2016.18C2011.63 2027.3 1970.61 2000.57 1942.29 1978.07C1913.97 1955.84 1898.35 1938.11 1876.12 1928.58C1854.16 1919.05 1825.31 1917.73 1790.38 1904.5C1755.18 1891 1713.63 1865.33 1714.69 1840.45C1715.74 1815.57 1759.68 1791.49 1786.14 1763.17C1812.87 1735.12 1822.4 1703.1 1843.31 1687.22C1864.21 1671.34 1896.77 1671.6 1925.35 1678.75C1953.67 1685.63 1978.02 1699.66 1990.72 1720.3Z" fill="white" fill-opacity="0.05"/>
</g>
</g>
<defs>
<filter id="filter0_f" x="410.729" y="196.027" width="504.108" height="474.67" filterUnits="userSpaceOnUse" color-interpolation-filters="sRGB">
<feFlood flood-opacity="0" result="BackgroundImageFix"/>
<feBlend mode="normal" in="SourceGraphic" in2="BackgroundImageFix" result="shape"/>
<feGaussianBlur stdDeviation="0.5" result="effect1_foregroundBlur"/>
</filter>
<filter id="filter1_f" x="2783.19" y="1481.69" width="504.108" height="474.67" filterUnits="userSpaceOnUse" color-interpolation-filters="sRGB">
<feFlood flood-opacity="0" result="BackgroundImageFix"/>
<feBlend mode="normal" in="SourceGraphic" in2="BackgroundImageFix" result="shape"/>
<feGaussianBlur stdDeviation="0.5" result="effect1_foregroundBlur"/>
</filter>
<filter id="filter2_f" x="3056.84" y="500.899" width="504.108" height="474.67" filterUnits="userSpaceOnUse" color-interpolation-filters="sRGB">
<feFlood flood-opacity="0" result="BackgroundImageFix"/>
<feBlend mode="normal" in="SourceGraphic" in2="BackgroundImageFix" result="shape"/>
<feGaussianBlur stdDeviation="0.5" result="effect1_foregroundBlur"/>
</filter>
<filter id="filter3_f" x="3307.89" y="1890.55" width="504.108" height="474.67" filterUnits="userSpaceOnUse" color-interpolation-filters="sRGB">
<feFlood flood-opacity="0" result="BackgroundImageFix"/>
<feBlend mode="normal" in="SourceGraphic" in2="BackgroundImageFix" result="shape"/>
<feGaussianBlur stdDeviation="0.5" result="effect1_foregroundBlur"/>
</filter>
<filter id="filter4_f" x="3285.3" y="2.23195" width="504.108" height="474.67" filterUnits="userSpaceOnUse" color-interpolation-filters="sRGB">
<feFlood flood-opacity="0" result="BackgroundImageFix"/>
<feBlend mode="normal" in="SourceGraphic" in2="BackgroundImageFix" result="shape"/>
<feGaussianBlur stdDeviation="0.5" result="effect1_foregroundBlur"/>
</filter>
<filter id="filter5_f" x="-1" y="628.52" width="504.108" height="474.67" filterUnits="userSpaceOnUse" color-interpolation-filters="sRGB">
<feFlood flood-opacity="0" result="BackgroundImageFix"/>
<feBlend mode="normal" in="SourceGraphic" in2="BackgroundImageFix" result="shape"/>
<feGaussianBlur stdDeviation="0.5" result="effect1_foregroundBlur"/>
</filter>
<filter id="filter6_f" x="358.008" y="1351.7" width="504.108" height="474.67" filterUnits="userSpaceOnUse" color-interpolation-filters="sRGB">
<feFlood flood-opacity="0" result="BackgroundImageFix"/>
<feBlend mode="normal" in="SourceGraphic" in2="BackgroundImageFix" result="shape"/>
<feGaussianBlur stdDeviation="0.5" result="effect1_foregroundBlur"/>
</filter>
<filter id="filter7_f" x="41.6777" y="1892.91" width="504.108" height="474.67" filterUnits="userSpaceOnUse" color-interpolation-filters="sRGB">
<feFlood flood-opacity="0" result="BackgroundImageFix"/>
<feBlend mode="normal" in="SourceGraphic" in2="BackgroundImageFix" result="shape"/>
<feGaussianBlur stdDeviation="0.5" result="effect1_foregroundBlur"/>
</filter>
<filter id="filter8_f" x="1580.64" y="1481.69" width="504.108" height="474.67" filterUnits="userSpaceOnUse" color-interpolation-filters="sRGB">
<feFlood flood-opacity="0" result="BackgroundImageFix"/>
<feBlend mode="normal" in="SourceGraphic" in2="BackgroundImageFix" result="shape"/>
<feGaussianBlur stdDeviation="0.5" result="effect1_foregroundBlur"/>
</filter>
<linearGradient id="paint0_linear" x1="1905.5" y1="0.585417" x2="1905.5" y2="2366.58" gradientUnits="userSpaceOnUse">
<stop stop-color="#E48381"/>
<stop offset="1" stop-color="#2F4B51"/>
</linearGradient>
<clipPath id="clip0">
<rect width="502.108" height="472.67" fill="white" transform="translate(411.729 197.027)"/>
</clipPath>
<clipPath id="clip1">
<rect width="502.108" height="472.67" fill="white" transform="translate(2784.19 1482.69)"/>
</clipPath>
<clipPath id="clip2">
<rect width="502.108" height="472.67" fill="white" transform="translate(3057.84 501.899)"/>
</clipPath>
<clipPath id="clip3">
<rect width="502.108" height="472.67" fill="white" transform="translate(3308.89 1891.55)"/>
</clipPath>
<clipPath id="clip4">
<rect width="502.108" height="472.67" fill="white" transform="translate(3286.3 3.23195)"/>
</clipPath>
<clipPath id="clip5">
<rect width="502.108" height="472.67" fill="white" transform="translate(359.008 1352.7)"/>
</clipPath>
<clipPath id="clip6">
<rect width="502.108" height="472.67" fill="white" transform="translate(42.6777 1893.91)"/>
</clipPath>
<clipPath id="clip7">
<rect width="502.108" height="472.67" fill="white" transform="translate(1581.64 1482.69)"/>
</clipPath>
</defs>
</svg>
