<svg width="202" height="108" viewBox="0 0 202 108" fill="none" xmlns="http://www.w3.org/2000/svg">
<path d="M131.571 43.2223L131.546 32.9071L126.487 41.4048H124.694L119.659 33.1281V43.2223H115.926V26.0303H119.217L125.652 36.7139L131.989 26.0303H135.255L135.304 43.2223H131.571ZM139.113 30.009H142.944V43.2223H139.113V30.009ZM141.029 28.167C140.324 28.167 139.751 27.9623 139.309 27.553C138.867 27.1437 138.646 26.6361 138.646 26.0303C138.646 25.4245 138.867 24.9169 139.309 24.5076C139.751 24.0982 140.324 23.8936 141.029 23.8936C141.733 23.8936 142.306 24.09 142.748 24.483C143.19 24.876 143.411 25.3672 143.411 25.9566C143.411 26.5952 143.19 27.1273 142.748 27.553C142.306 27.9623 141.733 28.167 141.029 28.167ZM154.531 29.8125C156.169 29.8125 157.487 30.3037 158.485 31.2861C159.5 32.2685 160.008 33.7258 160.008 35.6578V43.2223H156.177V36.2472C156.177 35.1994 155.947 34.4216 155.489 33.914C155.031 33.3901 154.367 33.1281 153.5 33.1281C152.534 33.1281 151.764 33.431 151.191 34.0368C150.618 34.6263 150.331 35.5104 150.331 36.6893V43.2223H146.5V30.009H150.159V31.5563C150.667 30.9996 151.297 30.5739 152.051 30.2792C152.804 29.9681 153.631 29.8125 154.531 29.8125ZM177.256 30.009V41.0119C177.256 43.4351 176.625 45.2362 175.365 46.4151C174.104 47.594 172.262 48.1834 169.839 48.1834C168.561 48.1834 167.35 48.0279 166.204 47.7168C165.058 47.4057 164.108 46.9554 163.355 46.366L164.877 43.6153C165.434 44.0737 166.138 44.4339 166.99 44.6959C167.841 44.9742 168.692 45.1134 169.544 45.1134C170.87 45.1134 171.844 44.8105 172.467 44.2047C173.105 43.6153 173.424 42.7147 173.424 41.5031V40.9382C172.426 42.0352 171.034 42.5837 169.249 42.5837C168.038 42.5837 166.924 42.3218 165.909 41.7978C164.91 41.2575 164.116 40.5043 163.527 39.5383C162.937 38.5723 162.642 37.4589 162.642 36.1981C162.642 34.9374 162.937 33.824 163.527 32.858C164.116 31.8919 164.91 31.147 165.909 30.623C166.924 30.0827 168.038 29.8125 169.249 29.8125C171.165 29.8125 172.622 30.4429 173.621 31.7036V30.009H177.256ZM170.01 39.44C171.026 39.44 171.853 39.1453 172.491 38.5559C173.146 37.9501 173.473 37.1642 173.473 36.1981C173.473 35.2321 173.146 34.4544 172.491 33.8649C171.853 33.2591 171.026 32.9562 170.01 32.9562C168.995 32.9562 168.16 33.2591 167.505 33.8649C166.85 34.4544 166.523 35.2321 166.523 36.1981C166.523 37.1642 166.85 37.9501 167.505 38.5559C168.16 39.1453 168.995 39.44 170.01 39.44ZM180.822 24.9988H184.653V43.2223H180.822V24.9988ZM201.152 36.6648C201.152 36.7139 201.127 37.0577 201.078 37.6963H191.082C191.263 38.515 191.688 39.1617 192.36 39.6365C193.031 40.1114 193.866 40.3488 194.865 40.3488C195.552 40.3488 196.158 40.2505 196.682 40.054C197.222 39.8412 197.722 39.5137 198.18 39.0716L200.219 41.282C198.974 42.7065 197.157 43.4188 194.766 43.4188C193.276 43.4188 191.958 43.1322 190.812 42.5592C189.666 41.9697 188.782 41.1592 188.16 40.1277C187.538 39.0962 187.226 37.9255 187.226 36.6156C187.226 35.3222 187.529 34.1596 188.135 33.1281C188.757 32.0802 189.601 31.2698 190.665 30.6967C191.746 30.1072 192.949 29.8125 194.275 29.8125C195.569 29.8125 196.739 30.0909 197.787 30.6476C198.835 31.2043 199.654 32.0066 200.243 33.0544C200.849 34.086 201.152 35.2894 201.152 36.6648ZM194.3 32.7106C193.432 32.7106 192.703 32.9562 192.114 33.4474C191.524 33.9386 191.164 34.6099 191.033 35.4613H197.542C197.411 34.6263 197.05 33.9632 196.461 33.472C195.872 32.9644 195.151 32.7106 194.3 32.7106ZM138.349 56.0303V73.2223H135.083L126.512 62.7843V73.2223H122.582V56.0303H125.873L134.42 66.4683V56.0303H138.349ZM148.434 73.4188C147.043 73.4188 145.79 73.1322 144.677 72.5592C143.58 71.9697 142.72 71.1592 142.098 70.1277C141.476 69.0962 141.164 67.9255 141.164 66.6156C141.164 65.3058 141.476 64.1351 142.098 63.1036C142.72 62.072 143.58 61.2698 144.677 60.6967C145.79 60.1072 147.043 59.8125 148.434 59.8125C149.826 59.8125 151.07 60.1072 152.167 60.6967C153.264 61.2698 154.124 62.072 154.746 63.1036C155.368 64.1351 155.679 65.3058 155.679 66.6156C155.679 67.9255 155.368 69.0962 154.746 70.1277C154.124 71.1592 153.264 71.9697 152.167 72.5592C151.07 73.1322 149.826 73.4188 148.434 73.4188ZM148.434 70.2751C149.417 70.2751 150.219 69.9476 150.841 69.2927C151.48 68.6214 151.799 67.729 151.799 66.6156C151.799 65.5023 151.48 64.6181 150.841 63.9632C150.219 63.2919 149.417 62.9562 148.434 62.9562C147.452 62.9562 146.641 63.2919 146.003 63.9632C145.364 64.6181 145.045 65.5023 145.045 66.6156C145.045 67.729 145.364 68.6214 146.003 69.2927C146.641 69.9476 147.452 70.2751 148.434 70.2751ZM166.763 72.5837C166.386 72.8621 165.919 73.0749 165.363 73.2223C164.822 73.3533 164.249 73.4188 163.644 73.4188C162.072 73.4188 160.852 73.0176 159.984 72.2153C159.133 71.413 158.707 70.2342 158.707 68.6787V63.2509H156.669V60.3037H158.707V57.0864H162.538V60.3037H165.829V63.2509H162.538V68.6296C162.538 69.1863 162.678 69.6202 162.956 69.9312C163.251 70.226 163.66 70.3733 164.184 70.3733C164.79 70.3733 165.305 70.2096 165.731 69.8821L166.763 72.5837ZM181.449 66.6648C181.449 66.7139 181.424 67.0577 181.375 67.6963H171.379C171.559 68.515 171.985 69.1617 172.656 69.6365C173.328 70.1114 174.163 70.3488 175.161 70.3488C175.849 70.3488 176.455 70.2505 176.979 70.054C177.519 69.8412 178.019 69.5137 178.477 69.0716L180.516 71.282C179.271 72.7065 177.454 73.4188 175.063 73.4188C173.573 73.4188 172.255 73.1322 171.109 72.5592C169.963 71.9697 169.079 71.1592 168.457 70.1277C167.834 69.0962 167.523 67.9255 167.523 66.6156C167.523 65.3222 167.826 64.1596 168.432 63.1281C169.054 62.0802 169.897 61.2698 170.962 60.6967C172.042 60.1072 173.246 59.8125 174.572 59.8125C175.866 59.8125 177.036 60.0909 178.084 60.6476C179.132 61.2043 179.951 62.0066 180.54 63.0544C181.146 64.086 181.449 65.2894 181.449 66.6648ZM174.597 62.7106C173.729 62.7106 173 62.9562 172.411 63.4474C171.821 63.9386 171.461 64.6099 171.33 65.4613H177.839C177.708 64.6263 177.347 63.9632 176.758 63.472C176.168 62.9644 175.448 62.7106 174.597 62.7106ZM188.445 73.4188C187.348 73.4188 186.276 73.2878 185.228 73.0258C184.18 72.7475 183.345 72.4036 182.723 71.9943L184 69.2436C184.589 69.6202 185.301 69.9312 186.136 70.1768C186.971 70.4061 187.79 70.5207 188.592 70.5207C190.213 70.5207 191.024 70.1195 191.024 69.3172C191.024 68.9407 190.803 68.6705 190.361 68.5068C189.919 68.343 189.239 68.2039 188.322 68.0892C187.242 67.9255 186.349 67.7372 185.645 67.5244C184.941 67.3115 184.327 66.9349 183.803 66.3946C183.296 65.8543 183.042 65.0847 183.042 64.086C183.042 63.2509 183.279 62.5141 183.754 61.8756C184.245 61.2206 184.949 60.7131 185.866 60.3528C186.799 59.9926 187.896 59.8125 189.157 59.8125C190.091 59.8125 191.016 59.919 191.933 60.1318C192.866 60.3283 193.635 60.6066 194.241 60.9668L192.964 63.693C191.802 63.0381 190.533 62.7106 189.157 62.7106C188.339 62.7106 187.725 62.8252 187.315 63.0544C186.906 63.2837 186.701 63.5784 186.701 63.9386C186.701 64.3479 186.922 64.6345 187.364 64.7982C187.806 64.9619 188.51 65.1175 189.477 65.2648C190.557 65.445 191.441 65.6414 192.129 65.8543C192.817 66.0508 193.414 66.4192 193.922 66.9595C194.429 67.4998 194.683 68.253 194.683 69.219C194.683 70.0377 194.438 70.7663 193.946 71.4048C193.455 72.0434 192.735 72.5428 191.785 72.903C190.852 73.2469 189.738 73.4188 188.445 73.4188Z" fill="white"/>
<g filter="url(#filter0_d)">
<path d="M85.9559 3H20.9334C13.2382 3 7 9.23819 7 16.9334V81.9559C7 89.6511 13.2382 95.8893 20.9334 95.8893H85.9559C93.6511 95.8893 99.8893 89.6512 99.8893 81.9559V16.9334C99.8893 9.2382 93.6512 3 85.9559 3Z" stroke="#F7EDEF" stroke-width="4.64447"/>
<path d="M36.7246 73.5959H27.2034C27.0752 73.5959 26.9712 73.4919 26.9712 73.3636V26.919C26.9712 26.7907 27.0752 26.6867 27.2034 26.6867H35.4323C35.5137 26.6867 35.5892 26.7293 35.6312 26.799L53.0123 55.615C53.1029 55.7652 53.3209 55.7646 53.4107 55.6139L70.5617 26.8002C70.6035 26.7298 70.6793 26.6867 70.7612 26.6867H79.4537C79.5819 26.6867 79.6859 26.7907 79.6859 26.919V73.3636C79.6859 73.4919 79.5819 73.5959 79.4537 73.5959H69.6984C69.5709 73.5959 69.4672 73.493 69.4662 73.3655L69.2428 46.1088C69.2408 45.8728 68.929 45.7898 68.81 45.9935L55.6019 68.6041C55.5603 68.6754 55.4839 68.7192 55.4014 68.7192H50.7885C50.7075 68.7192 50.6323 68.6769 50.5901 68.6076L37.3874 46.9015C37.2654 46.7009 36.9568 46.7874 36.9568 47.0222V73.3636C36.9568 73.4919 36.8528 73.5959 36.7246 73.5959Z" stroke="#F7EDEF" stroke-width="4.64447"/>
</g>
<defs>
<filter id="filter0_d" x="0.033267" y="0.677765" width="106.823" height="106.823" filterUnits="userSpaceOnUse" color-interpolation-filters="sRGB">
<feFlood flood-opacity="0" result="BackgroundImageFix"/>
<feColorMatrix in="SourceAlpha" type="matrix" values="0 0 0 0 0 0 0 0 0 0 0 0 0 0 0 0 0 0 127 0"/>
<feOffset dy="4.64447"/>
<feGaussianBlur stdDeviation="2.32223"/>
<feColorMatrix type="matrix" values="0 0 0 0 0 0 0 0 0 0 0 0 0 0 0 0 0 0 0.25 0"/>
<feBlend mode="normal" in2="BackgroundImageFix" result="effect1_dropShadow"/>
<feBlend mode="normal" in="SourceGraphic" in2="effect1_dropShadow" result="shape"/>
</filter>
</defs>
</svg>
