<svg width="178" height="50" viewBox="0 0 178 50" fill="none" xmlns="http://www.w3.org/2000/svg">
<g clip-path="url(#clip0)">
<path fill-rule="evenodd" clip-rule="evenodd" d="M164.812 20.7071C164.653 20.7386 164.493 21.0861 164.493 21.2755C164.461 22.5397 164.429 25.8892 164.429 28.1642C164.429 28.2275 164.525 28.3539 164.621 28.3539C165.099 28.3854 166.248 28.4169 167.237 28.4169C168.609 28.4169 169.406 28.2275 169.853 28.0382C171.001 27.4691 171.544 26.2367 171.544 24.8777C171.544 21.8131 169.374 20.6437 166.152 20.6437C165.929 20.6122 165.291 20.6122 164.812 20.7071ZM173.044 34.8316C173.044 31.7033 170.714 29.9653 166.503 29.9653C166.312 29.9653 164.972 29.9338 164.652 29.9968C164.557 30.0286 164.429 30.0919 164.429 30.1868C164.429 32.4299 164.397 36.001 164.493 37.3912C164.557 37.9914 165.004 38.8447 165.546 39.0974C166.12 39.4135 167.428 39.4765 168.322 39.4765C170.842 39.4765 173.044 38.0863 173.044 34.8316ZM158.304 18.9693C158.623 18.9693 159.58 19.0638 162.036 19.0638C164.366 19.0638 166.216 19.0008 168.481 19.0008C171.257 19.0008 175.085 19.9801 175.085 24.0881C175.085 26.1104 173.649 27.7221 171.767 28.5121C171.672 28.5436 171.672 28.6066 171.767 28.6381C174.447 29.302 176.808 30.9449 176.808 34.0413C176.808 37.0751 174.894 39.0026 172.118 40.2034C170.427 40.93 168.322 41.1827 166.184 41.1827C164.557 41.1827 160.186 40.9934 157.761 41.0567C157.506 40.9615 157.985 39.824 158.208 39.6347C158.782 39.6028 159.229 39.5713 159.835 39.3816C160.697 39.1608 160.792 38.9077 160.92 37.6124C160.984 36.5064 160.984 32.5878 160.984 29.8074C160.984 25.984 161.016 23.393 160.984 22.1291C160.952 21.1498 160.601 20.8334 159.899 20.6437C159.356 20.5492 158.463 20.4225 157.729 20.328C157.57 20.1698 158.112 19.0953 158.304 18.9693ZM139.895 38.6235C140.661 39.2234 142.16 39.4761 143.5 39.4761C145.223 39.4761 146.946 39.1608 148.605 37.675C150.296 36.1588 151.476 33.8205 151.476 30.0919C151.476 26.5209 150.104 23.6138 147.297 21.9079C145.702 20.9279 143.66 20.5177 141.299 20.5177C140.597 20.5177 139.927 20.5492 139.512 20.7386C139.416 20.8019 139.193 21.0861 139.193 21.244C139.129 21.8761 139.129 26.7421 139.129 29.5862C139.129 32.5248 139.129 36.6327 139.193 37.1066C139.193 37.5809 139.416 38.3075 139.895 38.6235H139.895ZM132.652 18.969C133.259 18.969 135.588 19.0638 136.704 19.0638C138.715 19.0638 140.15 18.9693 143.947 18.9693C147.137 18.9693 149.817 19.8223 151.731 21.4337C154.06 23.4245 155.273 26.1737 155.273 29.5229C155.273 34.2944 153.071 37.0436 150.87 38.6235C148.669 40.2349 145.797 41.1827 141.714 41.1827C139.544 41.1827 135.811 41.1197 132.716 41.0879H132.685C132.525 40.8037 132.94 39.6977 133.195 39.6662C134.025 39.5713 134.248 39.5395 134.663 39.382C135.333 39.1289 135.46 38.7814 135.556 37.6124C135.652 35.4319 135.62 32.8093 135.62 29.8389C135.62 27.7221 135.652 23.5823 135.588 22.2551C135.492 21.1495 135.014 20.8649 134.056 20.6752C133.578 20.5807 132.94 20.454 132.047 20.3595C131.919 20.138 132.493 19.1587 132.652 18.9693V18.969Z" fill="#8E714E"/>
<path fill-rule="evenodd" clip-rule="evenodd" d="M94.0488 39.8555C93.2512 39.7607 92.677 39.6346 91.9752 39.3186C91.8794 39.2553 91.7197 38.9395 91.7197 38.8129C91.6561 37.7069 91.6561 34.5471 91.6561 32.4303C91.6561 30.7237 91.3691 29.2386 90.6351 28.196C89.7736 26.9948 88.5297 26.3 86.9341 26.3C85.5305 26.3 83.648 27.2479 82.0846 28.575C82.0528 28.6065 81.7977 28.8281 81.8295 28.4802C81.8295 28.1326 81.8935 27.4375 81.9253 26.9633C81.9574 26.5209 81.7019 26.3 81.7019 26.3C80.681 26.8055 77.8098 27.469 76.7567 27.5636C75.9912 27.7221 75.7997 28.4487 76.5976 28.7014H76.6294C77.4903 28.9541 78.0649 29.2386 78.5112 29.5232C78.8303 29.7759 78.7985 30.1234 78.7985 30.408C78.8303 32.7775 78.8303 36.4115 78.7349 38.4023C78.7031 39.1922 78.4798 39.4765 77.9052 39.6028L77.9691 39.5713C77.5225 39.6662 77.1715 39.7607 76.6291 39.824C76.4376 40.0137 76.4376 41.0248 76.6291 41.246C76.98 41.246 78.8303 41.1512 80.3622 41.1512C82.4677 41.1512 83.5526 41.246 84.0947 41.246C84.318 40.9933 84.382 40.0452 84.2544 39.824C83.648 39.7925 83.2013 39.7295 82.7868 39.6028C82.2126 39.4761 82.0528 39.1923 82.0207 38.5287C81.9574 36.8536 81.9574 33.3147 81.9574 30.9134C81.9574 30.2498 82.1486 29.9337 82.3398 29.744C83.0738 29.1123 84.2544 28.6699 85.3072 28.6699C86.3281 28.6699 86.9978 28.9859 87.5084 29.3968C88.2102 29.9652 88.4335 30.787 88.5293 31.3873C88.6887 32.746 88.6251 35.4319 88.6251 37.7702C88.6251 39.0341 88.5293 39.3501 88.0512 39.508C87.8275 39.6028 87.2532 39.7295 86.5832 39.7922C86.3599 40.0137 86.4238 40.9933 86.5832 41.2145C87.5084 41.2145 88.5933 41.1197 90.1884 41.1197C92.1663 41.1197 93.4428 41.2145 93.9534 41.2145C94.1124 41.0248 94.1764 40.1085 94.0488 39.8555ZM102.886 27.7854C101.196 27.7854 100.143 29.0808 100.143 31.1027C100.143 33.1569 101.068 35.5267 103.684 35.5267C104.131 35.5267 104.96 35.337 105.343 34.8946C105.949 34.3262 106.364 33.1884 106.364 31.9875C106.364 29.365 105.056 27.7851 102.886 27.7851V27.7854ZM102.663 41.7514C102.025 41.7514 101.578 41.9411 101.291 42.0993C99.951 42.9519 99.345 43.7737 99.345 44.7537C99.345 45.6697 99.6959 46.3963 100.462 47.0284C101.387 47.8183 102.663 48.1977 104.29 48.1977C107.544 48.1977 108.98 46.4596 108.98 44.7537C108.98 43.5525 108.374 42.7626 107.13 42.3205C106.236 41.9411 104.609 41.7514 102.663 41.7514ZM102.886 49.9673C100.94 49.9673 99.5362 49.5564 98.3241 48.6401C97.1434 47.7553 96.6331 46.4281 96.6331 45.5118C96.6331 45.2591 96.6971 44.5637 97.2713 43.9319C97.6219 43.5525 98.388 42.8259 100.207 41.5936C100.27 41.5621 100.302 41.5306 100.302 41.4669C100.302 41.4039 100.238 41.3405 100.174 41.3094C98.675 40.7406 98.2283 39.824 98.1004 39.3186V39.2553C98.0689 39.0656 98.005 38.8762 98.2923 38.6865C98.5156 38.5287 98.8347 38.339 99.1853 38.1181C99.7277 37.8017 100.302 37.4542 100.653 37.1696C100.717 37.1066 100.717 37.0436 100.717 36.9803C100.717 36.9169 100.653 36.8536 100.589 36.8224C98.3562 36.0955 97.2395 34.4522 97.2395 31.9875C97.2395 30.3761 97.9731 28.9226 99.281 28.0063C100.174 27.3112 102.408 26.4579 103.875 26.4579H103.971C105.471 26.4894 106.3 26.8055 107.48 27.2163C108.118 27.4375 108.725 27.5321 109.555 27.5321C110.799 27.5321 111.341 27.153 111.787 26.7109C111.819 26.774 111.883 26.9321 111.915 27.3427C111.947 27.7536 111.819 28.3538 111.5 28.7962C111.245 29.1438 110.671 29.3968 110.097 29.3968H109.937C109.363 29.3335 109.107 29.2701 109.107 29.2701L108.98 29.3335C108.948 29.3968 108.98 29.4598 109.012 29.5547L109.044 29.618C109.108 29.9022 109.235 30.7552 109.235 30.9767C109.235 33.5678 108.182 34.7049 107.066 35.5582C105.981 36.3482 104.737 36.8536 103.333 36.9803C103.301 36.9803 103.174 36.9803 102.886 37.0118C102.727 37.0118 102.504 37.0436 102.471 37.0436H102.44C102.184 37.1066 101.547 37.4227 101.547 37.9596C101.547 38.4335 101.834 39.0026 103.205 39.0974C103.492 39.1289 103.779 39.1289 104.099 39.1607C105.917 39.2868 108.182 39.4449 109.235 39.7925C110.703 40.3294 111.628 41.6251 111.628 43.1735C111.628 45.5122 109.937 47.6923 107.13 49.0507C105.758 49.6513 104.386 49.9673 102.886 49.9673ZM121.071 27.9433C120.402 27.9433 119.795 28.1008 119.349 28.4168C118.105 29.1753 117.467 30.6922 117.467 32.9038C117.467 37.0436 119.572 39.9507 122.571 39.9507C123.465 39.9507 124.166 39.6977 124.772 39.1922C125.698 38.4335 126.176 36.9169 126.176 34.7998C126.176 30.6922 124.102 27.9429 121.072 27.9429L121.071 27.9433ZM121.646 41.4672C116.222 41.4672 114.276 37.5175 114.276 33.8205C114.276 31.2294 115.329 29.2386 117.434 27.8166C118.934 26.9003 120.721 26.3949 122.316 26.3949C126.463 26.3949 129.367 29.3335 129.367 33.5678C129.367 36.443 128.218 38.718 126.017 40.1085C124.964 40.8036 123.145 41.4672 121.646 41.4672H121.646ZM64.7928 27.9429C64.1228 27.9429 63.5168 28.1008 63.0698 28.4168C61.8258 29.1753 61.1876 30.6922 61.1876 32.9038C61.1876 37.0436 63.2931 39.9507 66.2923 39.9507C67.1856 39.9507 67.8874 39.6977 68.4938 39.1922C69.4186 38.4335 69.8975 36.9169 69.8975 34.7998C69.8975 30.6922 67.8556 27.9429 64.7928 27.9429ZM65.3671 41.4672C59.9434 41.4672 57.9973 37.5175 57.9973 33.8205C57.9973 31.2294 59.05 29.2386 61.1555 27.8166C62.6552 26.9003 64.4419 26.3949 66.0371 26.3949C70.1848 26.3949 73.0878 29.3335 73.0878 33.5678C73.0878 36.443 71.9393 38.718 69.7378 40.1085C68.7168 40.8036 66.8983 41.4672 65.3671 41.4672ZM28.9007 41.1512C28.8367 41.0567 28.7728 40.7721 28.8049 40.4246C28.8049 40.1716 28.8689 40.0137 28.9007 39.9507C29.5707 39.8555 29.9216 39.7607 30.3043 39.6662C30.9425 39.508 31.1977 39.1607 31.2295 38.3708C31.3256 36.4749 31.3256 32.8723 31.2934 30.3761V30.3128C31.2934 30.0286 31.2934 29.6807 30.9425 29.428C30.4319 29.1123 29.8258 28.8281 29.0282 28.6062C28.7413 28.512 28.5498 28.3538 28.5816 28.1645C28.5816 27.9748 28.7731 27.7536 29.188 27.6902C30.2407 27.5954 32.984 26.9321 34.0689 26.4579C34.1329 26.5209 34.2286 26.7109 34.2286 26.9636L34.1968 27.3109C34.1647 27.6587 34.1329 28.0696 34.1329 28.4802C34.1329 28.6065 34.2608 28.7014 34.388 28.7014C34.452 28.7014 34.5159 28.6699 34.5796 28.638C36.6214 27.0582 38.4717 26.4894 39.4287 26.4894C40.9924 26.4894 42.2049 27.2163 43.13 28.7329C43.1937 28.8281 43.2576 28.8596 43.3534 28.8596C43.417 28.8596 43.5124 28.8281 43.5446 28.7647C45.427 27.3427 47.3095 26.4894 48.5534 26.4894C51.5204 26.4894 53.2754 28.6699 53.2754 32.3669C53.2754 33.4096 53.2754 34.7683 53.2435 36.001C53.2435 37.1066 53.2117 38.1178 53.2117 38.8447C53.2117 39.0022 53.4347 39.508 53.7856 39.6028C54.2323 39.824 54.8387 39.9189 55.6363 40.0452H55.6681C55.7321 40.2664 55.6045 41.0878 55.4769 41.246C55.2854 41.246 54.9981 41.246 54.6793 41.2145C53.8717 41.1728 53.0631 41.1517 52.2544 41.1512C50.2765 41.1512 49.2556 41.1827 48.2661 41.246C48.2029 40.9933 48.1707 40.2349 48.2661 40.0452C48.8407 39.9507 49.1277 39.8555 49.4789 39.761C50.1171 39.5713 50.2765 39.2868 50.3087 38.4653C50.3087 37.8651 50.4359 32.746 50.2444 31.5136C50.0532 30.2498 49.0959 28.7647 46.9901 28.7647C46.1925 28.7647 44.9486 29.0808 43.7361 29.9967C43.6725 30.0601 43.6082 30.2179 43.6082 30.3128V30.3446C43.7361 31.0079 43.7361 31.7667 43.7361 32.9357V34.9895C43.7361 36.4115 43.7039 37.7387 43.7361 38.7495C43.7361 39.445 44.151 39.6028 44.5019 39.7295C44.6934 39.7607 44.8206 39.7925 44.9804 39.824C45.2673 39.8873 45.5546 39.9507 46.0013 40.0452C46.0653 40.1719 46.0652 40.5824 45.9695 40.93C45.9373 41.1197 45.8734 41.2142 45.8416 41.246C44.757 41.2145 43.6403 41.1827 42.0133 41.1827C41.5349 41.1827 40.7051 41.2145 40.0033 41.2145C39.4287 41.2145 38.8866 41.246 38.5678 41.246C38.5357 41.1827 38.4717 40.9618 38.4717 40.6139C38.4717 40.3297 38.5357 40.1085 38.5997 40.0452C38.759 40.0137 38.8866 39.9822 39.0463 39.9822C39.4287 39.9188 39.7482 39.8555 40.0669 39.7925C40.6097 39.6346 40.8009 39.3501 40.8327 38.655C40.9285 37.0751 41.0242 32.5566 40.8009 31.4188C40.4182 29.5862 39.3654 28.6699 37.6741 28.6699C36.6854 28.6699 35.4408 29.1438 34.4202 29.9026C34.2605 30.0286 34.1329 30.3443 34.1329 30.6288V32.4933C34.1329 34.7683 34.1329 37.6124 34.1647 38.8447C34.1968 39.2234 34.3241 39.6661 35.058 39.824C35.2178 39.8555 35.4729 39.9189 35.792 39.9507L36.3659 40.0452C36.4302 40.2349 36.3981 40.9933 36.2705 41.246C35.9514 41.246 35.5687 41.2145 35.1217 41.2145C34.452 41.1827 33.5904 41.1512 32.6335 41.1512C31.5168 41.1512 30.7192 41.1827 30.081 41.2145C29.6343 41.1512 29.2834 41.1512 28.9007 41.1512Z" fill="#442D22"/>
<path fill-rule="evenodd" clip-rule="evenodd" d="M12.1188 48.7349L10.8109 48.2922C10.8109 48.2922 10.9707 41.6884 8.57754 41.2145C6.98271 39.3816 8.83338 -36.5178 14.5759 40.9615C14.5759 40.9615 12.5976 41.9408 12.2467 43.6159C11.8637 45.2591 12.1188 48.7349 12.1188 48.7349Z" fill="white"/>
<path fill-rule="evenodd" clip-rule="evenodd" d="M12.1188 48.7349L10.8109 48.2922C10.8109 48.2922 10.9707 41.6884 8.57754 41.2145C6.98271 39.3816 8.83338 -36.5178 14.5759 40.9615C14.5759 40.9615 12.5976 41.9408 12.2467 43.6159C11.8637 45.2591 12.1188 48.7349 12.1188 48.7349Z" fill="#A6A385"/>
<path fill-rule="evenodd" clip-rule="evenodd" d="M12.8208 42.352C12.8208 42.352 24.2747 34.8946 21.5943 19.3795C19.0104 8.09942 12.9166 4.40239 12.2466 2.98035C11.513 1.9692 10.8108 0.199951 10.8108 0.199951L11.2896 31.5766C11.2896 31.6085 10.3005 41.1827 12.8212 42.3524" fill="white"/>
<path fill-rule="evenodd" clip-rule="evenodd" d="M12.8208 42.352C12.8208 42.352 24.2747 34.8946 21.5943 19.3795C19.0104 8.09942 12.9166 4.40239 12.2466 2.98035C11.513 1.9692 10.8108 0.199951 10.8108 0.199951L11.2896 31.5766C11.2896 31.6085 10.3005 41.1827 12.8212 42.3524" fill="#499D4A"/>
<path fill-rule="evenodd" clip-rule="evenodd" d="M10.1412 42.7626C10.1412 42.7626 -0.610881 35.4949 0.0273276 22.6979C0.633384 9.9005 8.22655 3.61243 9.69416 2.47493C10.6515 1.46378 10.6833 1.08439 10.7472 0.0732422C11.4173 1.49528 11.2897 21.3392 11.3851 23.6772C11.6721 32.6826 10.8748 41.0567 10.1412 42.7626Z" fill="white"/>
<path fill-rule="evenodd" clip-rule="evenodd" d="M10.1412 42.7626C10.1412 42.7626 -0.610881 35.4949 0.0273276 22.6979C0.633384 9.9005 8.22655 3.61243 9.69416 2.47493C10.6515 1.46378 10.6833 1.08439 10.7472 0.0732422C11.4173 1.49528 11.2897 21.3392 11.3851 23.6772C11.6721 32.6826 10.8748 41.0567 10.1412 42.7626Z" fill="#58AA50"/>
</g>
<defs>
<clipPath id="clip0">
<rect width="177.011" height="50" fill="white"/>
</clipPath>
</defs>
</svg>
