<svg width="100" height="62" viewBox="0 0 100 62" fill="none" xmlns="http://www.w3.org/2000/svg">
<path d="M49.4262 61.1655C49.0961 61.1655 48.7679 61.0795 48.479 60.9125L45.4637 59.1307C45.0136 58.879 45.2335 58.7901 45.3818 58.7383C45.9825 58.5302 46.1041 58.4821 46.7452 58.1191C46.8118 58.0816 46.9005 58.0958 46.9694 58.1362L49.2858 59.5098C49.3699 59.5563 49.4883 59.5563 49.5654 59.5098L58.5963 54.3041C58.6804 54.2562 58.7342 54.1596 58.7342 54.0601V43.6516C58.7342 43.5498 58.6801 43.4548 58.594 43.4031L49.567 38.2019C49.4838 38.1532 49.3728 38.1532 49.2887 38.2019L40.264 43.4047C40.1763 43.4548 40.1207 43.553 40.1207 43.6516V54.0601C40.1207 54.1596 40.176 54.254 40.2631 54.3012L42.737 55.7287C44.0793 56.399 44.901 55.6095 44.901 54.8164V44.5396C44.901 44.3944 45.0181 44.2797 45.1635 44.2797H46.3087C46.452 44.2797 46.5704 44.3944 46.5704 44.5396V54.8164C46.5704 56.6056 45.5948 57.6317 43.8964 57.6317C43.3745 57.6317 42.9635 57.6316 41.8163 57.067L39.4481 55.7054C38.8633 55.3677 38.501 54.7362 38.501 54.0601V43.6516C38.501 42.9755 38.8631 42.344 39.4481 42.0079L48.479 36.7961C49.0505 36.4732 49.81 36.4732 50.3769 36.7961L59.4071 42.0079C59.9919 42.3456 60.3556 42.9755 60.3556 43.6516V54.0601C60.3556 54.7362 59.9919 55.3654 59.4071 55.7054L50.3769 60.9127C50.0883 61.0795 49.7607 61.1655 49.4262 61.1655Z" fill="#699F63"/>
<path d="M52.2157 53.9946C48.2638 53.9946 47.436 52.183 47.436 50.6634C47.436 50.5189 47.5522 50.4035 47.6971 50.4035H48.8647C48.9951 50.4035 49.1039 50.4972 49.1242 50.6246C49.3005 51.8116 49.8261 52.4108 52.2159 52.4108C54.1184 52.4108 54.9284 51.981 54.9284 50.9729C54.9284 50.3918 54.6989 49.9604 51.7421 49.6712C49.2714 49.4271 47.743 48.8819 47.743 46.9076C47.743 45.0877 49.2788 44.0024 51.854 44.0024C54.7471 44.0024 56.1787 45.0053 56.36 47.1568C56.3667 47.2309 56.3405 47.3022 56.291 47.3575C56.2415 47.4092 56.1726 47.4406 56.0998 47.4406H54.9277C54.8063 47.4406 54.6989 47.3546 54.6743 47.237C54.3931 45.9878 53.7092 45.5887 51.854 45.5887C49.7768 45.5887 49.5354 46.3113 49.5354 46.8527C49.5354 47.5088 49.8204 47.6998 52.6249 48.0705C55.4001 48.4367 56.7185 48.9557 56.7185 50.9036C56.718 52.8689 55.0773 53.9946 52.2157 53.9946Z" fill="#699F63"/>
<path d="M65.2376 43.0789C65.2376 44.0353 64.4548 44.8171 63.4972 44.8171C62.5485 44.8171 61.7568 44.0445 61.7568 43.0789C61.7568 42.0948 62.5675 41.3403 63.4972 41.3403C64.4367 41.3403 65.2376 42.0948 65.2376 43.0789ZM62.0378 43.074C62.0378 43.8836 62.6916 44.5367 63.4925 44.5367C64.3031 44.5367 64.9571 43.8698 64.9571 43.074C64.9571 42.2648 64.2943 41.621 63.4925 41.621C62.7006 41.6212 62.0378 42.2554 62.0378 43.074ZM62.8433 42.1039H63.516C63.7461 42.1039 64.1975 42.1039 64.1975 42.6191C64.1975 42.9778 63.9674 43.0512 63.8286 43.0972C64.0963 43.1157 64.1144 43.2905 64.151 43.5388C64.1697 43.6951 64.1975 43.9619 64.2522 44.0538H63.8383C63.8286 43.9621 63.7642 43.4652 63.7642 43.4379C63.7373 43.3273 63.6998 43.2724 63.5619 43.2724H63.2214V44.0538H62.8435V42.1039H62.8433ZM63.2122 42.9591H63.5158C63.764 42.9591 63.8105 42.7845 63.8105 42.6834C63.8105 42.4163 63.6261 42.4163 63.5248 42.4163H63.2122V42.9591Z" fill="#699F63"/>
<path d="M21.4611 20.4429C21.4611 20.0272 21.2421 19.6452 20.8829 19.4394L11.3083 13.9363C11.1465 13.8413 10.965 13.7919 10.7812 13.7842C10.7647 13.7842 10.6957 13.7842 10.6822 13.7842C10.4993 13.7916 10.3178 13.8411 10.1534 13.9363L0.578924 19.4394C0.221985 19.6452 0 20.0272 0 20.4429L0.021023 35.2609C0.021023 35.4668 0.128173 35.6587 0.309694 35.7596C0.487372 35.866 0.707096 35.866 0.884097 35.7596L6.57432 32.5055C6.9342 32.2921 7.15325 31.9153 7.15325 31.5035V24.5805C7.15325 24.1678 7.37207 23.7858 7.73059 23.5808L10.1534 22.1871C10.3341 22.0831 10.5314 22.032 10.733 22.032C10.9302 22.032 11.1327 22.0831 11.3081 22.1871L13.7303 23.5808C14.0888 23.786 14.3085 24.168 14.3085 24.5805V31.5035C14.3085 31.9153 14.5305 32.2944 14.8881 32.5055L20.5768 35.7596C20.7551 35.866 20.978 35.866 21.155 35.7596C21.3313 35.6585 21.4423 35.4668 21.4423 35.2609L21.4611 20.4429Z" fill="#333333"/>
<path d="M67.5303 0.0730688C67.351 -0.0264933 67.1324 -0.0242357 66.9554 0.0793901C66.7788 0.183242 66.6701 0.372658 66.6701 0.577426V15.2521C66.6701 15.3964 66.5928 15.53 66.468 15.6023C66.3428 15.6745 66.1884 15.6745 66.0629 15.6023L63.665 14.2224C63.3071 14.0165 62.867 14.017 62.5094 14.2229L52.931 19.7435C52.5729 19.9498 52.3525 20.3311 52.3525 20.7436V31.7871C52.3525 32.1998 52.5729 32.5809 52.9308 32.7877L62.5087 38.3124C62.8668 38.5187 63.3076 38.5187 63.6656 38.3124L73.2449 32.7877C73.6027 32.5811 73.8231 32.1998 73.8231 31.7871V4.25829C73.8231 3.83972 73.5964 3.45344 73.23 3.24935L67.5303 0.0730688ZM66.6416 28.1586C66.6416 28.2616 66.5865 28.3571 66.497 28.4083L63.2083 30.3016C63.119 30.3528 63.0089 30.3528 62.9197 30.3016L59.631 28.4083C59.5415 28.3571 59.4863 28.2616 59.4863 28.1586V24.366C59.4863 24.263 59.5415 24.1675 59.6308 24.1158L62.9194 22.2187C63.0089 22.167 63.1193 22.167 63.2088 22.2187L66.4974 24.1158C66.5867 24.1675 66.6419 24.263 66.6419 24.366L66.6416 28.1586Z" fill="#333333"/>
<path d="M99.4243 24.2668C99.7805 24.0602 99.9998 23.6796 99.9998 23.268V20.5918C99.9998 20.1802 99.7805 19.7994 99.4238 19.5928L89.9072 14.0744C89.5491 13.8665 89.1069 13.8663 88.7482 14.0729L79.1735 19.5935C78.8156 19.7998 78.5952 20.1809 78.5952 20.5936V31.6342C78.5952 32.0494 78.8183 32.4325 79.1793 32.6377L88.6946 38.0527C89.0454 38.2527 89.4756 38.2549 89.8287 38.059L95.5841 34.8642C95.7667 34.7628 95.8804 34.5714 95.8813 34.3632C95.8829 34.1551 95.7719 33.9623 95.5911 33.8584L85.9555 28.3351C85.7756 28.2321 85.665 28.0407 85.665 27.8339V24.3738C85.665 24.1675 85.7751 23.9765 85.9544 23.8735L88.9532 22.1469C89.1316 22.0439 89.3522 22.0439 89.5306 22.1469L92.531 23.8735C92.7102 23.9765 92.8203 24.1675 92.8203 24.3738V27.0961C92.8203 27.3029 92.9311 27.4939 93.1101 27.5968C93.2894 27.7002 93.5102 27.6993 93.689 27.5957L99.4243 24.2668Z" fill="#333333"/>
<path d="M89.1867 23.7498C89.2554 23.71 89.34 23.71 89.4087 23.7498L91.2465 24.8086C91.3152 24.8483 91.3575 24.9213 91.3575 25.0007V27.1202C91.3575 27.1997 91.3152 27.2726 91.2465 27.3123L89.4087 28.3712C89.34 28.4109 89.2554 28.4109 89.1867 28.3712L87.3502 27.3123C87.2815 27.2726 87.2393 27.1997 87.2393 27.1202V25.0007C87.2393 24.9213 87.2815 24.8483 87.3502 24.8086L89.1867 23.7498Z" fill="#699F63"/>
<path d="M37.4834 14.1302C37.1276 13.925 36.6891 13.925 36.3335 14.1302L26.8089 19.6195C26.4527 19.8247 26.2334 20.2037 26.2334 20.6146V31.6017C26.2334 32.0121 26.4527 32.3912 26.8085 32.5969L36.333 38.0906C36.6891 38.2958 37.1276 38.2958 37.4839 38.0906L47.0062 32.5969C47.362 32.3914 47.581 32.0121 47.581 31.6017V20.6142C47.581 20.2037 47.3617 19.8247 47.0057 19.6195L37.4834 14.1302Z" fill="url(#paint0_linear)"/>
<path d="M47.0247 19.6187L37.4735 14.1295C37.3793 14.0751 37.2784 14.0363 37.1747 14.0107L26.4507 32.332C26.5431 32.4358 26.6514 32.5264 26.7717 32.5959L36.339 38.0896C36.61 38.2459 36.9321 38.2824 37.2276 38.2007L47.2809 19.8154C47.2045 19.74 47.1188 19.6729 47.0247 19.6187Z" fill="url(#paint1_linear)"/>
<path d="M36.0158 12.1123L35.8843 12.1873H36.0598L36.0158 12.1123Z" fill="url(#paint2_linear)"/>
<path d="M47.0292 32.5967C47.3068 32.4364 47.5139 32.1697 47.5923 31.8656L37.1222 14.0014C36.8489 13.9469 36.5589 13.9883 36.3127 14.1303L26.8257 19.5865L37.0743 38.2333C37.2205 38.2135 37.3639 38.166 37.495 38.0906L47.0292 32.5967Z" fill="url(#paint3_linear)"/>
<path d="M47.9178 32.4205L47.8545 32.3125V32.4572L47.9178 32.4205Z" fill="url(#paint4_linear)"/>
<path d="M47.0297 32.5967L37.4954 38.0905C37.3643 38.1661 37.221 38.2133 37.0747 38.2332L37.2646 38.5786L47.8545 32.4565V32.3123L47.5928 31.8657C47.5143 32.1698 47.3073 32.4362 47.0297 32.5967Z" fill="url(#paint5_linear)"/>
<path d="M47.0297 32.5967L37.4954 38.0905C37.3643 38.1661 37.221 38.2133 37.0747 38.2332L37.2646 38.5786L47.8545 32.4565V32.3123L47.5928 31.8657C47.5143 32.1698 47.3073 32.4362 47.0297 32.5967Z" fill="url(#paint6_linear)"/>
<defs>
<linearGradient id="paint0_linear" x1="40.7797" y1="18.2183" x2="32.1928" y2="35.7582" gradientUnits="userSpaceOnUse">
<stop stop-color="#41873F"/>
<stop offset="0.3288" stop-color="#418B3D"/>
<stop offset="0.6352" stop-color="#419637"/>
<stop offset="0.9319" stop-color="#3FA92D"/>
<stop offset="1" stop-color="#3FAE2A"/>
</linearGradient>
<linearGradient id="paint1_linear" x1="35.4577" y1="27.3922" x2="59.58" y2="9.54653" gradientUnits="userSpaceOnUse">
<stop offset="0.1376" stop-color="#41873F"/>
<stop offset="0.4032" stop-color="#54A044"/>
<stop offset="0.7136" stop-color="#66B848"/>
<stop offset="0.9081" stop-color="#6CC04A"/>
</linearGradient>
<linearGradient id="paint2_linear" x1="25.8652" y1="12.1498" x2="47.9549" y2="12.1498" gradientUnits="userSpaceOnUse">
<stop offset="0.0919" stop-color="#6CC04A"/>
<stop offset="0.2864" stop-color="#66B848"/>
<stop offset="0.5968" stop-color="#54A044"/>
<stop offset="0.8624" stop-color="#41873F"/>
</linearGradient>
<linearGradient id="paint3_linear" x1="25.8958" y1="26.1058" x2="47.9173" y2="26.1058" gradientUnits="userSpaceOnUse">
<stop offset="0.0919" stop-color="#6CC04A"/>
<stop offset="0.2864" stop-color="#66B848"/>
<stop offset="0.5968" stop-color="#54A044"/>
<stop offset="0.8624" stop-color="#41873F"/>
</linearGradient>
<linearGradient id="paint4_linear" x1="25.8275" y1="32.3849" x2="47.9178" y2="32.3849" gradientUnits="userSpaceOnUse">
<stop offset="0.0919" stop-color="#6CC04A"/>
<stop offset="0.2864" stop-color="#66B848"/>
<stop offset="0.5968" stop-color="#54A044"/>
<stop offset="0.8624" stop-color="#41873F"/>
</linearGradient>
<linearGradient id="paint5_linear" x1="25.8962" y1="35.2222" x2="47.9177" y2="35.2222" gradientUnits="userSpaceOnUse">
<stop offset="0.0919" stop-color="#6CC04A"/>
<stop offset="0.2864" stop-color="#66B848"/>
<stop offset="0.5968" stop-color="#54A044"/>
<stop offset="0.8624" stop-color="#41873F"/>
</linearGradient>
<linearGradient id="paint6_linear" x1="51.1259" y1="17.6984" x2="37.5725" y2="45.3828" gradientUnits="userSpaceOnUse">
<stop stop-color="#41873F"/>
<stop offset="0.3288" stop-color="#418B3D"/>
<stop offset="0.6352" stop-color="#419637"/>
<stop offset="0.9319" stop-color="#3FA92D"/>
<stop offset="1" stop-color="#3FAE2A"/>
</linearGradient>
</defs>
</svg>
