<svg width="189" height="55" viewBox="0 0 189 55" fill="none" xmlns="http://www.w3.org/2000/svg">
<path d="M20.7699 54.5765C16.8308 54.5765 13.276 53.7358 10.1055 52.0545C6.98305 50.3732 4.50911 47.9713 2.68368 44.8488C0.906281 41.7264 0.0175836 38.0755 0.0175836 33.8962C0.0175836 29.765 0.9303 26.1381 2.75573 23.0157C4.58117 19.8452 7.07913 17.4193 10.2496 15.738C13.4201 14.0566 16.9749 13.216 20.914 13.216C24.8531 13.216 28.4079 14.0566 31.5784 15.738C34.7488 17.4193 37.2468 19.8452 39.0722 23.0157C40.8977 26.1381 41.8104 29.765 41.8104 33.8962C41.8104 38.0275 40.8737 41.6783 39.0002 44.8488C37.1747 47.9713 34.6528 50.3732 31.4342 52.0545C28.2638 53.7358 24.709 54.5765 20.7699 54.5765ZM20.7699 43.9121C23.1237 43.9121 25.1173 43.0474 26.7506 41.318C28.4319 39.5887 29.2725 37.1147 29.2725 33.8962C29.2725 30.6777 28.4559 28.2038 26.8226 26.4744C25.2374 24.745 23.2678 23.8804 20.914 23.8804C18.5121 23.8804 16.5185 24.745 14.9333 26.4744C13.348 28.1557 12.5554 30.6297 12.5554 33.8962C12.5554 37.1147 13.324 39.5887 14.8612 41.318C16.4465 43.0474 18.416 43.9121 20.7699 43.9121ZM64.7041 54.5765C61.1974 54.5765 58.0749 53.976 55.3368 52.775C52.5986 51.5741 50.4369 49.9408 48.8517 47.8752C47.2664 45.7615 46.3777 43.4077 46.1856 40.8136H58.3631C58.5072 42.2067 59.1558 43.3356 60.3087 44.2003C61.4616 45.065 62.8787 45.4973 64.56 45.4973C66.0972 45.4973 67.2741 45.2091 68.0908 44.6326C68.9554 44.0082 69.3878 43.2155 69.3878 42.2548C69.3878 41.1019 68.7873 40.2612 67.5864 39.7328C66.3854 39.1563 64.4399 38.5319 61.7498 37.8593C58.8675 37.1868 56.4656 36.4903 54.5441 35.7697C52.6226 35.0011 50.9653 33.8242 49.5722 32.2389C48.1791 30.6056 47.4826 28.4199 47.4826 25.6818C47.4826 23.376 48.1071 21.2863 49.3561 19.4129C50.6531 17.4913 52.5265 15.9782 54.9765 14.8733C57.4744 13.7684 60.4288 13.216 63.8394 13.216C68.8834 13.216 72.8465 14.465 75.7288 16.9629C78.6591 19.4609 80.3404 22.7755 80.7727 26.9067H69.3878C69.1956 25.5136 68.5711 24.4088 67.5143 23.5921C66.5055 22.7755 65.1605 22.3672 63.4791 22.3672C62.038 22.3672 60.9331 22.6554 60.1645 23.2318C59.3959 23.7603 59.0116 24.5048 59.0116 25.4656C59.0116 26.6185 59.6121 27.4832 60.8131 28.0596C62.062 28.6361 63.9835 29.2125 66.5776 29.789C69.5559 30.5576 71.9818 31.3262 73.8553 32.0948C75.7288 32.8154 77.362 34.0163 78.7551 35.6976C80.1963 37.3309 80.9409 39.5407 80.9889 42.3268C80.9889 44.6807 80.3164 46.7943 78.9713 48.6678C77.6743 50.4932 75.7768 51.9344 73.2788 52.9912C70.8289 54.048 67.9707 54.5765 64.7041 54.5765Z" fill="#D9DBF2"/>
<path d="M86.0773 33.8962C86.0773 29.7169 86.918 26.0661 88.5993 22.9436C90.3287 19.8212 92.7065 17.4193 95.7329 15.738C98.8073 14.0566 102.314 13.216 106.253 13.216C111.297 13.216 115.5 14.537 118.863 17.1791C122.274 19.8212 124.507 23.5441 125.564 28.3479H112.45C111.345 25.2735 109.207 23.7362 106.037 23.7362C103.779 23.7362 101.978 24.6249 100.633 26.4023C99.2877 28.1317 98.6152 30.6297 98.6152 33.8962C98.6152 37.1628 99.2877 39.6848 100.633 41.4622C101.978 43.1915 103.779 44.0562 106.037 44.0562C109.207 44.0562 111.345 42.519 112.45 39.4446H125.564C124.507 44.1523 122.274 47.8512 118.863 50.5413C115.452 53.2314 111.249 54.5765 106.253 54.5765C102.314 54.5765 98.8073 53.7358 95.7329 52.0545C92.7065 50.3732 90.3287 47.9713 88.5993 44.8488C86.918 41.7264 86.0773 38.0755 86.0773 33.8962ZM170.057 33.2477C170.057 34.4006 169.985 35.6016 169.841 36.8505H141.955C142.147 39.3485 142.94 41.27 144.333 42.6151C145.774 43.9121 147.527 44.5606 149.593 44.5606C152.667 44.5606 154.805 43.2636 156.006 40.6695H169.12C168.448 43.3116 167.223 45.6895 165.445 47.8031C163.716 49.9168 161.53 51.5741 158.888 52.775C156.246 53.976 153.292 54.5765 150.025 54.5765C146.086 54.5765 142.579 53.7358 139.505 52.0545C136.431 50.3732 134.029 47.9713 132.299 44.8488C130.57 41.7264 129.705 38.0755 129.705 33.8962C129.705 29.7169 130.546 26.0661 132.227 22.9436C133.957 19.8212 136.359 17.4193 139.433 15.738C142.507 14.0566 146.038 13.216 150.025 13.216C153.916 13.216 157.375 14.0326 160.401 15.6659C163.428 17.2992 165.782 19.629 167.463 22.6554C169.192 25.6818 170.057 29.2125 170.057 33.2477ZM157.447 30.0052C157.447 27.8915 156.727 26.2102 155.285 24.9612C153.844 23.7122 152.043 23.0877 149.881 23.0877C147.816 23.0877 146.062 23.6882 144.621 24.8892C143.228 26.0901 142.363 27.7954 142.027 30.0052H157.447ZM188.879 0.678147V54H176.557V0.678147H188.879Z" fill="#F34D4D"/>
</svg>
