<svg width="100" height="89" viewBox="0 0 100 89" fill="none" xmlns="http://www.w3.org/2000/svg">
<path d="M50.0181 53.3264C54.9531 53.3264 58.9536 49.3259 58.9536 44.3909C58.9536 39.4559 54.9531 35.4553 50.0181 35.4553C45.0831 35.4553 41.0825 39.4559 41.0825 44.3909C41.0825 49.3259 45.0831 53.3264 50.0181 53.3264Z" fill="#00D8FF"/>
<path d="M50.0178 64.8607C37.4688 64.8607 26.5041 63.3833 18.2983 60.5709C12.9761 58.7553 8.45497 56.3346 5.23318 53.5756C1.81559 50.6564 0 47.4702 0 44.3908C0 38.4812 6.47917 32.6962 17.3549 28.9227C26.2549 25.8255 37.8604 24.0989 50 24.0989C61.926 24.0989 73.3713 25.7721 82.2179 28.8337C87.3977 30.6136 91.7586 32.9276 94.8558 35.4908C98.22 38.3032 100 41.3826 100 44.3908C100 50.5318 92.7554 56.7439 81.0787 60.6065C72.8195 63.3477 61.7836 64.8607 50.0178 64.8607ZM50.0178 28.3709C38.5012 28.3709 27.1093 30.0441 18.7789 32.9454C8.77536 36.4342 4.28978 41.2046 4.28978 44.3908C4.28978 47.7016 9.11356 52.917 19.6867 56.5303C27.4475 59.1825 37.9494 60.5887 50.0178 60.5887C61.3386 60.5887 71.8939 59.1647 79.7437 56.5481C90.7262 52.8992 95.7458 47.6838 95.7458 44.3908C95.7458 42.6998 94.4642 40.7062 92.1324 38.766C89.4446 36.5232 85.5287 34.4762 80.8473 32.8564C72.4279 29.9729 61.481 28.3709 50.0178 28.3709Z" fill="#00D8FF"/>
<path d="M29.7432 88.9262C27.9276 88.9262 26.3256 88.5346 24.9728 87.7514C19.8643 84.7966 18.0843 76.2883 20.2381 64.9853C22.0003 55.7116 26.3078 44.818 32.3776 34.2982C38.3406 23.9743 45.4962 14.8963 52.5627 8.75535C56.6923 5.15976 60.8753 2.52537 64.6489 1.13698C68.7607 -0.376014 72.3207 -0.376013 74.9194 1.11918C80.2416 4.18077 82.0038 13.5791 79.5118 25.6119C77.7496 34.1558 73.5489 44.462 67.6749 54.6614C61.4093 65.5193 54.6453 74.2769 48.1128 79.9907C43.8764 83.6931 39.5154 86.3986 35.5282 87.8048C33.4456 88.5524 31.4876 88.9262 29.7432 88.9262ZM34.211 35.3662L36.0622 36.4342C30.3128 46.4022 26.0586 57.1 24.421 65.7863C22.4453 76.1993 24.3498 82.4649 27.091 84.0491C27.7674 84.4407 28.6574 84.6542 29.7432 84.6542C33.2854 84.6542 38.8568 82.4115 45.3004 76.7867C51.4769 71.3933 57.9383 62.9917 63.9725 52.5432C69.6329 42.7354 73.6557 32.8743 75.3288 24.7753C77.6606 13.4367 75.6492 6.49476 72.7835 4.83937C71.3239 4.00277 68.9565 4.10957 66.1085 5.15976C62.8155 6.37016 59.0953 8.73755 55.3573 11.9949C48.6468 17.8333 41.7938 26.5197 36.0622 36.452L34.211 35.3662Z" fill="#00D8FF"/>
<path d="M70.2917 88.9795C65.4502 88.9795 59.3092 86.0603 52.9012 80.5423C45.7456 74.3835 38.4655 65.2166 32.3779 54.6968C26.3971 44.3729 22.1251 33.6395 20.3273 24.4369C19.2771 19.0614 19.0813 14.1308 19.7577 10.1614C20.5053 5.83601 22.2675 2.75662 24.8841 1.24363C30.1885 -1.83576 39.2131 1.33263 48.3978 9.5028C54.9126 15.2878 61.7478 24.0809 67.6395 34.2625C73.9229 45.1205 78.1415 55.3554 79.8147 63.8638C80.9005 69.3818 81.0785 74.5081 80.3131 78.6733C79.4943 83.1055 77.6431 86.2561 74.9731 87.8047C73.6381 88.5879 72.0539 88.9795 70.2917 88.9795ZM36.0803 52.5608C41.8475 62.5288 49.003 71.5534 55.6958 77.3027C63.7236 84.2091 70.0959 85.7043 72.8549 84.1023C75.7207 82.4469 77.8211 75.6651 75.6495 64.7004C74.0475 56.6548 70.0069 46.8648 63.955 36.4163C58.2768 26.6085 51.7442 18.1892 45.5676 12.7068C36.9169 5.01721 29.9037 3.29062 27.0379 4.94602C25.5783 5.78261 24.4925 7.9008 23.9763 10.8912C23.3889 14.3444 23.5669 18.7588 24.5281 23.6181C26.2369 32.3579 30.3309 42.6285 36.0803 52.5608Z" fill="#00D8FF"/>
</svg>
