<svg width="187" height="57" viewBox="0 0 187 57" fill="none" xmlns="http://www.w3.org/2000/svg">
<path d="M42.1953 33.3846C42.1953 36.2388 41.6557 38.9252 40.5763 41.4437C39.497 43.9381 38.0219 46.1208 36.151 47.9917C34.2802 49.8385 32.0855 51.3016 29.567 52.381C27.0726 53.4603 24.3982 54 21.5439 54C18.6897 54 16.0033 53.4603 13.4849 52.381C10.9904 51.3016 8.80772 49.8385 6.93686 47.9917C5.08999 46.1208 3.62688 43.9381 2.54754 41.4437C1.4682 38.9252 0.928531 36.2388 0.928531 33.3846V2.4075H11.2182V33.3846C11.2182 34.7997 11.4821 36.1309 12.0098 37.3781C12.5614 38.6254 13.305 39.7167 14.2404 40.6522C15.1758 41.5876 16.2672 42.3311 17.5144 42.8828C18.7856 43.4105 20.1288 43.6743 21.5439 43.6743C22.9591 43.6743 24.2903 43.4105 25.5375 42.8828C26.8087 42.3311 27.9121 41.5876 28.8475 40.6522C29.7829 39.7167 30.5145 38.6254 31.0421 37.3781C31.5938 36.1309 31.8696 34.7997 31.8696 33.3846V2.4075H42.1953V33.3846ZM59.5008 54H49.6788V0.140888H59.5008V17.1585C60.676 16.271 61.8873 15.6474 63.1345 15.2876C64.3818 14.9039 65.653 14.712 66.9482 14.712C69.3228 14.712 71.5534 15.1677 73.6401 16.0792C75.7269 16.9666 77.5377 18.2019 79.0728 19.7849C80.6319 21.3439 81.8551 23.1788 82.7426 25.2895C83.654 27.3763 84.1097 29.6069 84.1097 31.9814V54H74.2158V31.9814H74.2877C74.2877 30.9741 74.0959 30.0266 73.7121 29.1392C73.3283 28.2277 72.8006 27.4362 72.1291 26.7646C71.4575 26.093 70.6779 25.5654 69.7905 25.1816C68.903 24.7978 67.9556 24.6059 66.9482 24.6059C65.9168 24.6059 64.9454 24.7978 64.034 25.1816C63.1226 25.5654 62.331 26.093 61.6594 26.7646C60.9879 27.4362 60.4602 28.2277 60.0764 29.1392C59.6926 30.0266 59.5008 30.9741 59.5008 31.9814V54ZM119.152 49.5027C118.361 50.2223 117.509 50.9059 116.598 51.5535C115.71 52.1771 114.775 52.7288 113.792 53.2085C112.808 53.6642 111.789 54.024 110.733 54.2878C109.702 54.5756 108.647 54.7196 107.567 54.7196C105.193 54.7196 102.962 54.2998 100.876 53.4603C98.7888 52.6208 96.9539 51.4336 95.3709 49.8985C93.8118 48.3395 92.5766 46.4566 91.6651 44.25C90.7777 42.0193 90.3339 39.5248 90.3339 36.7665V15.4675H100.12V36.7665C100.12 38.0617 100.312 39.225 100.696 40.2564C101.103 41.2638 101.643 42.1153 102.315 42.8108C102.986 43.5064 103.766 44.0341 104.653 44.3939C105.565 44.7536 106.536 44.9335 107.567 44.9335C108.575 44.9335 109.522 44.7057 110.41 44.25C111.321 43.7702 112.113 43.1466 112.784 42.3791C113.456 41.6116 113.983 40.7481 114.367 39.7887C114.751 38.8053 114.943 37.7979 114.943 36.7665V15.4675H124.765V54H122.39L119.152 49.5027ZM160.599 49.5027C159.808 50.2223 158.956 50.9059 158.045 51.5535C157.157 52.1771 156.222 52.7288 155.238 53.2085C154.255 53.6642 153.236 54.024 152.18 54.2878C151.149 54.5756 150.093 54.7196 149.014 54.7196C146.64 54.7196 144.409 54.2998 142.322 53.4603C140.235 52.6208 138.401 51.4336 136.818 49.8985C135.259 48.3395 134.023 46.4566 133.112 44.25C132.224 42.0193 131.781 39.5248 131.781 36.7665V15.4675H141.567V36.7665C141.567 38.0617 141.759 39.225 142.142 40.2564C142.55 41.2638 143.09 42.1153 143.761 42.8108C144.433 43.5064 145.212 44.0341 146.1 44.3939C147.011 44.7536 147.983 44.9335 149.014 44.9335C150.021 44.9335 150.969 44.7057 151.856 44.25C152.768 43.7702 153.559 43.1466 154.231 42.3791C154.903 41.6116 155.43 40.7481 155.814 39.7887C156.198 38.8053 156.39 37.7979 156.39 36.7665V15.4675H166.212V54H163.837L160.599 49.5027ZM184.129 41.2638H176.106L173.911 2.4075H186.359L184.129 41.2638ZM186.287 50.3302C186.287 51.1937 186.119 52.0092 185.784 52.7767C185.472 53.5203 185.04 54.1679 184.488 54.7196C183.937 55.2712 183.289 55.703 182.546 56.0148C181.802 56.3506 181.011 56.5185 180.171 56.5185C179.308 56.5185 178.504 56.3506 177.761 56.0148C177.017 55.703 176.357 55.2712 175.782 54.7196C175.23 54.1679 174.786 53.5203 174.451 52.7767C174.139 52.0092 173.983 51.1937 173.983 50.3302C173.983 49.4908 174.139 48.6992 174.451 47.9557C174.786 47.2121 175.23 46.5645 175.782 46.0129C176.357 45.4612 177.017 45.0295 177.761 44.7177C178.504 44.3819 179.308 44.214 180.171 44.214C181.011 44.214 181.802 44.3819 182.546 44.7177C183.289 45.0295 183.937 45.4612 184.488 46.0129C185.04 46.5645 185.472 47.2121 185.784 47.9557C186.119 48.6992 186.287 49.4908 186.287 50.3302Z" fill="#E7EDEF"/>
</svg>
